<?xml version="1.0" encoding="utf-8"?>
<!-- Generator: Adobe Illustrator 15.1.0, SVG Export Plug-In . SVG Version: 6.00 Build 0)  -->
<!DOCTYPE svg PUBLIC "-//W3C//DTD SVG 1.1//EN" "http://www.w3.org/Graphics/SVG/1.1/DTD/svg11.dtd">
<svg version="1.1" id="Layer_1" xmlns="http://www.w3.org/2000/svg" xmlns:xlink="http://www.w3.org/1999/xlink" x="0px" y="0px"
	 width="100px" height="100px" viewBox="450 142.5 100 100" enable-background="new 450 142.5 100 100" xml:space="preserve">
<g>
	<path fill="#FF1A1A" d="M487.449,204.456l4.205-0.972c0.088-0.021,0.234-0.054,0.413-0.111c1.16-0.313,2.154-1.063,2.773-2.093
		c0.619-1.031,0.814-2.261,0.544-3.433c-0.006-0.025-0.012-0.05-0.018-0.075c-0.138-0.562-0.38-1.092-0.713-1.563
		c-0.471-0.598-1.054-1.098-1.716-1.473c-0.78-0.445-1.596-0.822-2.439-1.129l-4.609-1.684c-2.587-0.962-5.174-1.899-7.785-2.813
		c-1.693-0.603-3.128-1.131-4.375-1.517c-0.235-0.073-0.495-0.145-0.706-0.218c-1.507-0.462-2.566-0.653-3.462-0.66
		c-0.599-0.022-1.195,0.086-1.747,0.318c-0.576,0.249-1.093,0.615-1.518,1.077c-0.211,0.24-0.41,0.491-0.595,0.752
		c-0.173,0.266-0.333,0.541-0.477,0.823c-0.159,0.303-0.296,0.618-0.409,0.941c-0.855,2.529-1.282,5.184-1.261,7.853
		c0.015,2.413,0.08,5.511,1.406,7.61c0.32,0.539,0.749,1.005,1.26,1.367c0.945,0.652,1.9,0.739,2.893,0.811
		c1.485,0.106,2.923-0.259,4.357-0.59l13.967-3.227L487.449,204.456z"/>
	<path fill="#FF1A1A" d="M534.354,182.135c-1.148-2.409-2.691-4.608-4.566-6.507c-0.242-0.241-0.502-0.464-0.776-0.667
		c-0.254-0.19-0.518-0.367-0.79-0.531c-0.28-0.153-0.568-0.292-0.863-0.415c-0.583-0.229-1.208-0.332-1.834-0.303
		c-0.599,0.034-1.182,0.198-1.711,0.48c-0.802,0.398-1.669,1.039-2.823,2.112c-0.159,0.158-0.359,0.337-0.539,0.505
		c-0.952,0.895-2.012,1.999-3.271,3.284c-1.947,1.968-3.864,3.946-5.771,5.946l-3.409,3.535c-0.624,0.646-1.192,1.344-1.699,2.086
		c-0.432,0.627-0.737,1.333-0.899,2.077c-0.094,0.57-0.079,1.153,0.041,1.719c0.006,0.025,0.012,0.05,0.018,0.075
		c0.269,1.172,0.982,2.192,1.988,2.847c1.007,0.655,2.229,0.894,3.408,0.665c0.187-0.027,0.331-0.059,0.42-0.08l18.178-4.2
		c1.433-0.331,2.886-0.635,4.173-1.382c0.863-0.5,1.685-0.997,2.247-1.998c0.302-0.55,0.483-1.157,0.535-1.782
		C536.688,187.125,535.394,184.312,534.354,182.135z"/>
	<path fill="#FF1A1A" d="M501.818,189.779c1.317-1.655,1.313-4.122,1.432-6.138c0.396-6.737,0.814-13.476,1.145-20.217
		c0.127-2.553,0.402-5.072,0.25-7.645c-0.125-2.123-0.141-4.559-1.48-6.301c-2.365-3.072-7.409-2.819-10.851-2.343
		c-1.054,0.146-2.11,0.343-3.158,0.595c-1.047,0.251-2.084,0.526-3.099,0.851c-3.302,1.082-7.945,3.067-8.731,6.872
		c-0.443,2.151,0.607,4.352,1.421,6.315c0.987,2.379,2.337,4.523,3.566,6.763c3.25,5.914,6.561,11.791,9.862,17.674
		c0.986,1.756,2.061,3.981,3.967,4.891c0.126,0.055,0.255,0.104,0.386,0.146c0.855,0.324,1.788,0.386,2.679,0.179
		c0.054-0.013,0.106-0.024,0.159-0.037c0.823-0.224,1.568-0.671,2.152-1.293C501.623,189.993,501.724,189.888,501.818,189.779z"/>
	<path fill="#FF1A1A" d="M500.242,207.816c-0.514-0.724-1.244-1.266-2.084-1.549c-0.841-0.283-1.75-0.293-2.597-0.028
		c-0.199,0.065-0.393,0.146-0.581,0.24c-0.29,0.148-0.566,0.32-0.826,0.516c-0.758,0.562-1.396,1.291-1.977,2.021
		c-0.147,0.187-0.282,0.436-0.458,0.595l-2.924,4.021c-1.657,2.254-3.292,4.513-4.912,6.808c-1.058,1.48-1.972,2.732-2.694,3.839
		c-0.137,0.209-0.279,0.441-0.41,0.627c-0.866,1.34-1.356,2.317-1.608,3.188c-0.189,0.579-0.249,1.191-0.175,1.796
		c0.08,0.63,0.292,1.234,0.622,1.777c0.175,0.271,0.364,0.534,0.565,0.787c0.21,0.243,0.433,0.475,0.667,0.693
		c0.25,0.239,0.519,0.46,0.802,0.659c2.018,1.404,4.227,2.413,6.551,3.192c1.934,0.643,3.944,1.026,5.979,1.143
		c0.346,0.018,0.693,0.011,1.038-0.022c0.319-0.027,0.638-0.072,0.953-0.133c0.315-0.074,0.625-0.164,0.931-0.271
		c0.594-0.223,1.135-0.567,1.588-1.012c0.429-0.43,0.759-0.947,0.967-1.517c0.338-0.843,0.56-1.913,0.707-3.501
		c0.013-0.226,0.045-0.496,0.067-0.744c0.115-1.318,0.168-2.865,0.253-4.686c0.143-2.799,0.255-5.585,0.344-8.38
		c0,0,0.188-4.965,0.188-4.968c0.043-1.145,0.008-2.413-0.31-3.552C500.77,208.813,500.544,208.292,500.242,207.816L500.242,207.816
		z"/>
	<path fill="#FF1A1A" d="M533.245,215.592c-0.61-0.67-1.475-1.337-2.839-2.161c-0.196-0.11-0.428-0.257-0.641-0.384
		c-1.136-0.684-2.503-1.402-4.101-2.27c-2.455-1.348-4.911-2.662-7.391-3.965l-4.381-2.323c-0.228-0.066-0.458-0.23-0.672-0.334
		c-0.842-0.402-1.734-0.777-2.66-0.95c-0.319-0.062-0.643-0.095-0.969-0.101c-0.209-0.002-0.418,0.011-0.626,0.038
		c-0.876,0.136-1.687,0.545-2.317,1.169c-0.63,0.623-1.048,1.431-1.193,2.306c-0.066,0.557-0.046,1.12,0.061,1.67
		c0.214,1.166,0.734,2.319,1.273,3.329l2.34,4.385c1.301,2.473,2.619,4.932,3.97,7.382c0.871,1.6,1.596,2.967,2.275,4.102
		c0.128,0.213,0.274,0.443,0.385,0.641c0.826,1.363,1.49,2.221,2.164,2.836c0.437,0.422,0.959,0.742,1.532,0.94
		c0.603,0.199,1.239,0.271,1.871,0.207c0.321-0.038,0.64-0.093,0.955-0.165c0.311-0.083,0.616-0.183,0.917-0.298
		c0.323-0.122,0.639-0.268,0.941-0.436c1.779-0.997,3.418-2.225,4.876-3.65c1.749-1.721,3.295-3.597,4.497-5.745
		c0.167-0.304,0.312-0.619,0.433-0.944c0.113-0.301,0.212-0.606,0.294-0.917c0.071-0.315,0.126-0.635,0.164-0.956
		c0.06-0.631-0.015-1.268-0.216-1.868C533.99,216.554,533.668,216.028,533.245,215.592L533.245,215.592z"/>
</g>
</svg>
