<?xml version="1.0" encoding="utf-8"?>
<!-- Generator: Adobe Illustrator 15.1.0, SVG Export Plug-In . SVG Version: 6.00 Build 0)  -->
<!DOCTYPE svg PUBLIC "-//W3C//DTD SVG 1.1//EN" "http://www.w3.org/Graphics/SVG/1.1/DTD/svg11.dtd">
<svg version="1.1" id="Layer_1" xmlns="http://www.w3.org/2000/svg" xmlns:xlink="http://www.w3.org/1999/xlink" x="0px" y="0px"
	 width="100px" height="100px" viewBox="0 0 100 100" enable-background="new 0 0 100 100" xml:space="preserve">
<g>
	<path fill="#4285F4" d="M94.483,51.053c0-3.285-0.297-6.444-0.848-9.478H50v17.942h24.937c-1.095,5.771-4.381,10.658-9.31,13.945
		v11.666h15.035C89.424,77.041,94.483,65.162,94.483,51.053z"/>
	<path fill="#34A853" d="M50,96.334c12.514,0,22.999-4.131,30.662-11.205L65.627,73.463c-4.126,2.781-9.391,4.463-15.627,4.463
		c-12.046,0-22.282-8.129-25.947-19.082H8.637v11.963C16.262,85.928,31.889,96.334,50,96.334z"/>
	<path fill="#FBBC05" d="M24.053,58.803C23.127,56.021,22.58,53.077,22.58,50c0-3.075,0.547-6.024,1.473-8.803V29.233H8.637
		C5.479,35.467,3.666,42.503,3.666,50c0,7.494,1.813,14.533,4.971,20.766l12.004-9.352L24.053,58.803z"/>
	<path fill="#EA4335" d="M50,22.115c6.824,0,12.892,2.359,17.733,6.908l13.266-13.268C72.957,8.257,62.514,3.667,50,3.667
		c-18.111,0-33.738,10.405-41.363,25.567l15.416,11.964C27.718,30.245,37.954,22.115,50,22.115z"/>
	<path fill="none" d="M3.666,3.667h92.668v92.667H3.666V3.667z"/>
</g>
</svg>
