<?xml version="1.0" encoding="utf-8"?>
<!-- Generator: Adobe Illustrator 15.1.0, SVG Export Plug-In . SVG Version: 6.00 Build 0)  -->
<!DOCTYPE svg PUBLIC "-//W3C//DTD SVG 1.1//EN" "http://www.w3.org/Graphics/SVG/1.1/DTD/svg11.dtd">
<svg version="1.1" id="Layer_1" xmlns="http://www.w3.org/2000/svg" xmlns:xlink="http://www.w3.org/1999/xlink" x="0px" y="0px"
	 width="700px" height="150px" viewBox="0 0 700 150" enable-background="new 0 0 700 150" xml:space="preserve">
<g>
	<path fill="#CCAB7A" d="M102.274,62.718l7.355-0.076c7.895,0,11.84,2.188,11.84,6.568c0,2.125-0.913,3.905-2.737,5.331
		c-1.825,1.43-4.254,2.289-7.278,2.56l5.675,5.508c2.37,2.303,4.146,3.873,5.33,4.709c1.185,0.834,2.207,1.344,3.06,1.516v0.381
		h-8.095c-0.622-0.785-1.612-1.91-2.96-3.377l-7.995-8.617l-1.43-0.078v5.961c0,2.656,0.245,4.604,0.74,5.848v0.264h-6.765v-0.264
		c0.626-1.293,0.94-3.105,0.94-5.43V68.793c0-2.634-0.245-4.595-0.74-5.884v-0.268L102.274,62.718z M108.985,64.58
		c-1.575,0-2.842,0.046-3.8,0.146c-0.095,0.563-0.145,4.076-0.145,10.56c1.185,0.101,2.32,0.146,3.405,0.146
		c2.76,0,4.712-0.481,5.848-1.457c1.135-0.977,1.703-2.42,1.703-4.327c0-1.916-0.527-3.232-1.58-3.968
		C113.362,64.943,111.55,64.58,108.985,64.58z"/>
	<path fill="#CCAB7A" d="M169.665,65.375c-1.939-0.381-4.286-0.567-7.033-0.567c-2.747,0-4.5,0.022-5.258,0.073
		c-0.063,0.962-0.095,4.076-0.095,9.338l11.746-0.189l-1.43,2.62h-0.345c-2.238-0.199-4.018-0.301-5.33-0.301
		c-1.317,0-2.865,0.037-4.64,0.109c0,6.152,0.063,9.607,0.195,10.365c0.758,0.078,2.007,0.113,3.75,0.113
		c5.167,0,8.935-0.404,11.305-1.217h0.345l-0.89,3.496h-20.681v-0.264c0.527-1.57,0.79-4.141,0.79-7.709V70.614
		c0-3.573-0.263-6.138-0.79-7.704v-0.268l19.94-0.114l-1.235,2.847H169.665z"/>
	<path fill="#CCAB7A" d="M210.022,79.918c-2.402,0-4.227,0.008-5.48,0.035c-0.917,2.834-1.485,4.713-1.703,5.639
		c-0.209,0.922-0.318,1.916-0.318,2.979v0.645h-6.71v-0.381c1.48-0.881,3.46-4.395,5.943-10.533c2.483-6.139,4.1-10.157,4.84-12.054
		c0.74-1.897,1.14-3.11,1.208-3.646l5.775-0.455c0,0.891,1.035,3.65,3.11,8.295c2.07,4.645,3.741,8.233,5.008,10.766
		c1.267,2.527,2.247,4.285,2.938,5.275c0.69,0.984,1.462,1.77,2.32,2.352v0.381h-8.295V88.57c0-0.912-0.154-1.762-0.467-2.543
		c-0.313-0.785-0.518-1.289-0.618-1.52l-1.97-4.555C214.281,79.926,212.424,79.918,210.022,79.918z M209.876,65.452
		c-0.663,1.339-2.238,5.453-4.74,12.335h9.625c-0.595-1.393-1.466-3.583-2.615-6.569C210.994,68.235,210.235,66.31,209.876,65.452z"
		/>
	<path fill="#CCAB7A" d="M255.755,62.718c6.088-0.076,9.181-0.117,9.28-0.117c5.821,0,10.166,1.021,13.026,3.06
		c2.865,2.034,4.295,5.167,4.295,9.394c0,2.657-0.545,5.026-1.63,7.096c-2.465,4.713-7.65,7.064-15.545,7.064l-9.375-0.035h-2.915
		v-0.268c0.527-1.566,0.79-4.137,0.79-7.705V70.614c0-3.573-0.263-6.138-0.79-7.704v-0.268L255.755,62.718z M264.985,86.637
		c3.977,0,6.824-0.395,8.536-1.18c2.17-1.898,3.26-4.996,3.26-9.281c0-4.291-0.999-7.247-2.988-8.862
		c-1.988-1.626-5.339-2.434-10.042-2.434c-0.1,0-1.73,0.014-4.885,0.035c-0.068,0.963-0.1,4.078-0.1,9.344v2.276
		c0,5.824,0.068,9.111,0.2,9.869C260.936,86.555,262.942,86.637,264.985,86.637z"/>
	<path fill="#CCAB7A" d="M320.435,76.004c4.177-6.961,6.265-11.197,6.265-12.717v-0.645h5.725v0.376
		c-1.348,0.763-4.785,5.821-10.315,15.187v3.037c0,0.887,0.073,2.238,0.222,4.059c0.15,1.826,0.304,3.043,0.472,3.65v0.264h-6.32
		v-0.264c0.463-1.543,0.695-3.771,0.695-6.682v-4.178l-4.74-7.174c-3.26-4.785-5.398-7.418-6.419-7.899v-0.376h7.305v0.645
		c0,0.984,0.536,2.365,1.607,4.136c1.067,1.771,1.866,3.087,2.393,3.95c0.527,0.862,0.854,1.38,0.985,1.557
		C318.736,73.433,319.445,74.459,320.435,76.004z"/>
	<path fill="#CCAB7A" d="M392.119,79.918c-2.4,0-4.227,0.008-5.475,0.035c-0.926,2.834-1.49,4.713-1.703,5.639
		c-0.217,0.922-0.322,1.916-0.322,2.979v0.645h-6.711v-0.381c1.48-0.881,3.461-4.395,5.943-10.533
		c2.484-6.139,4.1-10.157,4.836-12.054c0.74-1.897,1.145-3.11,1.213-3.646l5.77-0.455c0,0.891,1.039,3.65,3.109,8.295
		c2.076,4.645,3.746,8.233,5.014,10.766c1.262,2.527,2.246,4.285,2.938,5.275c0.689,0.984,1.461,1.77,2.314,2.352v0.381h-8.285
		V88.57c0-0.912-0.158-1.762-0.473-2.543c-0.313-0.785-0.518-1.289-0.617-1.52l-1.975-4.555
		C396.379,79.926,394.521,79.918,392.119,79.918z M391.975,65.452c-0.662,1.339-2.238,5.453-4.74,12.335h9.625
		c-0.594-1.393-1.467-3.583-2.615-6.569C393.092,68.235,392.334,66.31,391.975,65.452z"/>
	<path fill="#CCAB7A" d="M426.811,65.906c0-1.14-0.082-2.266-0.25-3.378c6.615,0.073,10.869,0.114,12.76,0.114
		c1.893,0,6.146-0.041,12.758-0.114c-0.229,1.544-0.346,2.67-0.346,3.378h-0.346c-3.65-0.708-6.76-1.09-9.324-1.14
		c-0.168,1.317-0.246,3.355-0.246,6.111v10.439c0,3.422,0.246,5.965,0.736,7.635v0.264h-6.461v-0.264
		c0.426-1.646,0.641-4.141,0.641-7.48V71.027c0-2.855-0.082-4.943-0.246-6.261c-2.506,0.05-5.611,0.432-9.33,1.14H426.811z"/>
	<path fill="#CCAB7A" d="M501.893,62.718c6.088-0.076,9.18-0.117,9.279-0.117c5.82,0,10.166,1.021,13.031,3.06
		c2.859,2.034,4.289,5.167,4.289,9.394c0,2.657-0.539,5.026-1.625,7.096c-2.469,4.713-7.65,7.064-15.549,7.064l-9.377-0.035h-2.91
		v-0.268c0.527-1.566,0.791-4.137,0.791-7.705V70.614c0-3.573-0.264-6.138-0.791-7.704v-0.268L501.893,62.718z M511.123,86.637
		c3.98,0,6.828-0.395,8.539-1.18c2.17-1.898,3.26-4.996,3.26-9.281c0-4.291-0.998-7.247-2.986-8.862
		c-1.994-1.626-5.344-2.434-10.049-2.434c-0.096,0-1.725,0.014-4.885,0.035c-0.063,0.963-0.096,4.078-0.096,9.344v2.276
		c0,5.824,0.064,9.111,0.195,9.869C507.076,86.555,509.084,86.637,511.123,86.637z"/>
	<path fill="#CCAB7A" d="M565.723,79.918c-2.402,0-4.227,0.008-5.477,0.035c-0.92,2.834-1.492,4.713-1.701,5.639
		c-0.219,0.922-0.322,1.916-0.322,2.979v0.645h-6.715v-0.381c1.479-0.881,3.463-4.395,5.947-10.533
		c2.482-6.139,4.1-10.157,4.834-12.054c0.74-1.897,1.145-3.11,1.213-3.646l5.775-0.455c0,0.891,1.035,3.65,3.105,8.295
		c2.074,4.645,3.746,8.233,5.012,10.766c1.264,2.527,2.244,4.285,2.934,5.275c0.695,0.984,1.467,1.77,2.32,2.352v0.381h-8.291V88.57
		c0-0.912-0.154-1.762-0.467-2.543c-0.314-0.785-0.523-1.289-0.617-1.52l-1.971-4.555C569.98,79.926,568.125,79.918,565.723,79.918z
		 M565.572,65.452c-0.658,1.339-2.234,5.453-4.734,12.335h9.619c-0.59-1.393-1.461-3.583-2.615-6.569
		C566.689,68.235,565.936,66.31,565.572,65.452z"/>
	<path fill="#CCAB7A" d="M639.867,63.287v-0.645h5.998v0.376c-2.102,3.851-4.426,10.125-6.973,18.833
		c-1.271,4.277-2.012,6.746-2.221,7.4l-5.686,0.453c0-1.389-1.557-6.742-4.666-16.053c-0.113-0.354-0.25-0.781-0.395-1.271
		c-0.15-0.495-0.35-1.145-0.605-1.939c-0.248-0.794-0.48-1.521-0.686-2.184h-0.09c-0.205,0.686-0.531,1.625-0.977,2.834
		c-0.445,1.198-1.148,3.232-2.111,6.088c-0.963,2.865-1.656,5.076-2.084,6.643c-0.432,1.57-0.984,3.377-1.666,5.43l-5.684,0.453
		c0-1.211-1.926-7.6-5.779-19.168c-0.918-2.76-1.566-4.581-1.953-5.467c-0.381-0.885-0.813-1.57-1.285-2.052v-0.376h6.615v0.645
		c0,1.67,0.459,4.008,1.381,7.023l4.703,16.053c2.756-7.945,4.648-14.459,5.689-19.549c0.354-1.793,0.545-3.188,0.576-4.172h5.461
		c0.295,2.401,1.213,5.947,2.756,10.628c0.564,1.698,2.012,6.062,4.35,13.093c0.119-0.477,0.564-1.879,1.336-4.213
		C638.537,73.878,639.867,67.59,639.867,63.287z"/>
	<path fill="#CCAB7A" d="M673.188,89.215h-4.984v-0.264c0.494-1.67,0.74-4.607,0.74-8.807v-8.508c0-3.896-0.209-6.807-0.641-8.727
		v-0.268l5.971-0.342l17.275,20.649V70.614c0-1.339-0.1-2.802-0.295-4.386c-0.199-1.584-0.445-2.688-0.744-3.318v-0.268h5.184v0.268
		c-0.49,1.67-0.74,4.604-0.74,8.803v9.53c0,1.518,0.074,3.143,0.223,4.877c0.146,1.734,0.287,2.77,0.418,3.096l-4.641,0.383
		l-18.65-22.211v13.856c0,3.369,0.295,5.939,0.885,7.709V89.215z"/>
	<rect x="32.097" y="39.146" fill="#CCAB7A" width="23.573" height="10.17"/>
	<rect x="45.495" y="39.146" fill="#CCAB7A" width="10.175" height="25.063"/>
	<rect x="45.495" y="83.559" fill="#CCAB7A" width="10.175" height="27.295"/>
	<rect x="19.321" y="69.292" fill="#CCAB7A" width="10.17" height="41.561"/>
	<rect x="4.307" y="54.406" fill="#CCAB7A" width="10.175" height="56.448"/>
	<rect x="19.321" y="69.292" fill="#CCAB7A" width="36.349" height="10.17"/>
	<rect x="19.321" y="100.684" fill="#CCAB7A" width="36.349" height="10.17"/>
	<rect x="4.307" y="54.406" fill="#CCAB7A" width="36.353" height="10.174"/>
</g>
</svg>
