<?xml version="1.0" encoding="utf-8"?>
<!-- Generator: Adobe Illustrator 15.1.0, SVG Export Plug-In . SVG Version: 6.00 Build 0)  -->
<!DOCTYPE svg PUBLIC "-//W3C//DTD SVG 1.1//EN" "http://www.w3.org/Graphics/SVG/1.1/DTD/svg11.dtd">
<svg version="1.1" id="Layer_1" xmlns="http://www.w3.org/2000/svg" xmlns:xlink="http://www.w3.org/1999/xlink" x="0px" y="0px"
	 width="700px" height="150px" viewBox="0 0 700 150" enable-background="new 0 0 700 150" xml:space="preserve">
<g>
	<path id="path2642" fill="#752D3C" d="M170.173,67.49l6.016-0.19v14.22l-6.016-0.345v23.091h-18.256V81.093l-4.413,0.358V67.2
		l4.413,0.29V55.005h18.256V67.49"/>
	<path id="path2644" fill="#752D3C" d="M205.118,81.021c0.009-1.317-0.413-2.443-1.249-3.405c-0.849-0.958-1.902-1.435-3.16-1.435
		c-1.312,0-2.311,0.454-3.015,1.361c-0.699,0.918-1.049,2.07-1.049,3.479H205.118z M196.646,88.771c0,1.893,0.295,3.414,0.872,4.571
		c0.586,1.158,1.725,1.726,3.401,1.726c0.935,0,1.725-0.29,2.383-0.881c0.654-0.59,1.076-1.335,1.267-2.225h17.589
		c-0.567,2.161-1.557,4.072-2.983,5.729c-1.426,1.671-3.115,3.052-5.081,4.15c-1.961,1.099-4.054,1.911-6.265,2.46
		c-2.225,0.531-4.427,0.809-6.633,0.809c-2.988,0-5.83-0.386-8.518-1.153c-2.683-0.771-5.085-1.952-7.187-3.541
		s-3.75-3.578-4.939-5.948c-1.19-2.393-1.789-5.121-1.789-8.199c0-2.996,0.54-5.729,1.644-8.235
		c1.099-2.488,2.629-4.627,4.599-6.375c1.961-1.752,4.227-3.087,6.801-4.022c2.57-0.936,5.353-1.403,8.345-1.403
		c3.169,0,6.152,0.478,8.935,1.444c2.779,0.958,5.208,2.338,7.287,4.141s3.705,4.004,4.872,6.597
		c1.171,2.606,1.757,5.494,1.757,8.681c0,0.187-0.036,0.463-0.082,0.84c0,0.368,0,0.658,0,0.836H196.646"/>
	<path id="path2646" fill="#752D3C" d="M229.322,104.289h18.065V47.437h-18.065V104.289z"/>
	<path id="path2648" fill="#752D3C" d="M255.464,104.289h18.07V47.437h-18.07V104.289z"/>
	<path id="path2650" fill="#752D3C" d="M301.72,67.49l6.025-0.19v14.22l-6.025-0.345v23.091h-18.261V81.093l-4.413,0.358V67.2
		l4.413,0.29V55.005h18.261V67.49"/>
	<path id="path2652" fill="#752D3C" d="M329.292,89.429c0.799,1.021,1.971,1.534,3.528,1.534c1.644,0,2.87-0.535,3.66-1.616
		c0.799-1.076,1.203-2.401,1.203-3.99c0-1.448-0.445-2.639-1.34-3.573c-0.898-0.936-2.065-1.398-3.523-1.398
		c-1.412,0-2.547,0.499-3.414,1.498s-1.303,2.216-1.303,3.618C328.103,87.095,328.502,88.394,329.292,89.429z M337.683,99.381
		h-0.422c-1.881,1.961-3.651,3.405-5.308,4.34c-1.671,0.927-3.696,1.39-6.088,1.39c-2.429,0-4.636-0.563-6.606-1.68
		c-1.966-1.122-3.623-2.624-4.99-4.481c-1.357-1.88-2.383-3.95-3.096-6.242c-0.699-2.279-1.044-4.568-1.044-6.865
		c0-2.379,0.345-4.735,1.044-7.073c0.713-2.334,1.757-4.449,3.169-6.329c1.403-1.902,3.128-3.405,5.162-4.522
		c2.052-1.116,4.327-1.685,6.856-1.685c4.694,0,8.317,1.748,10.901,5.24h0.422l-0.559-4.418h17.711v37.234h-17.711L337.683,99.381"
		/>
	<path id="path2654" fill="#752D3C" d="M362.412,104.289h18.066V47.437h-18.066V104.289z"/>
	<path id="path2656" fill="#752D3C" d="M413.263,81.021c0.009-1.317-0.413-2.443-1.249-3.405c-0.844-0.958-1.902-1.435-3.169-1.435
		c-1.303,0-2.302,0.454-3.005,1.361c-0.699,0.918-1.045,2.07-1.045,3.479H413.263z M404.795,88.771c0,1.893,0.291,3.414,0.867,4.571
		c0.586,1.158,1.726,1.726,3.4,1.726c0.936,0,1.726-0.29,2.384-0.881c0.658-0.59,1.081-1.335,1.267-2.225h17.589
		c-0.567,2.161-1.558,4.072-2.979,5.729c-1.43,1.671-3.119,3.052-5.085,4.15c-1.961,1.099-4.054,1.911-6.274,2.46
		c-2.216,0.531-4.417,0.809-6.619,0.809c-2.992,0-5.83-0.386-8.522-1.153c-2.683-0.771-5.08-1.952-7.187-3.541
		c-2.103-1.589-3.751-3.578-4.94-5.948c-1.189-2.393-1.788-5.121-1.788-8.199c0-2.996,0.54-5.729,1.644-8.235
		c1.103-2.488,2.629-4.627,4.599-6.375c1.952-1.752,4.228-3.087,6.792-4.022c2.584-0.936,5.362-1.403,8.358-1.403
		c3.169,0,6.152,0.478,8.931,1.444c2.779,0.958,5.208,2.338,7.287,4.141s3.705,4.004,4.872,6.597
		c1.171,2.606,1.748,5.494,1.748,8.681c0,0.187-0.019,0.463-0.073,0.84c0,0.368,0,0.658,0,0.836H404.795"/>
	<path id="path2658" fill="#C7C9CB" d="M455.055,86.187c0,0.236,0,0.404,0,0.491c0,1.316,0.386,2.36,1.153,3.128
		c0.771,0.776,1.834,1.157,3.191,1.157c1.494,0,2.706-0.49,3.642-1.471c0.936-0.99,1.521-2.225,1.78-3.723
		c-0.014-0.146-0.014-0.327,0-0.555c0.022-0.249,0.059-0.408,0.067-0.508c-0.009-1.253-0.358-2.288-1.035-3.11
		c-0.676-0.813-1.647-1.212-2.914-1.212c-1.449,0-2.716,0.508-3.814,1.534c-1.107,1.021-1.771,2.279-2.007,3.777
		C455.118,85.833,455.101,86.001,455.055,86.187z M479.118,102.132c-0.559,3.505-1.707,6.552-3.438,9.153
		c-1.725,2.592-3.872,4.722-6.447,6.374c-2.564,1.671-5.425,2.893-8.549,3.687c-3.128,0.8-6.365,1.186-9.671,1.186
		c-2.859,0-5.521-0.241-7.995-0.731c-2.474-0.49-4.971-1.226-7.5-2.216l-1.748-0.635l5.957-12.559
		c1.438,1.462,3.291,2.569,5.539,3.369c2.233,0.79,4.504,1.193,6.792,1.193c2.384,0,4.427-0.776,6.134-2.324
		c1.712-1.548,2.869-3.519,3.469-5.897l0.912-3.791h-0.49c-1.171,1.92-2.878,3.423-5.116,4.526c-2.248,1.09-4.504,1.644-6.797,1.644
		c-2.157,0-4.05-0.432-5.703-1.299c-1.67-0.871-3.051-2.038-4.145-3.541c-1.099-1.489-1.925-3.201-2.493-5.104
		c-0.549-1.916-0.83-3.904-0.83-5.966c0-1.207,0.086-2.396,0.281-3.568c0.363-2.379,1.099-4.713,2.165-6.996
		c1.081-2.293,2.447-4.372,4.141-6.243c1.681-1.866,3.614-3.359,5.803-4.477c2.207-1.116,4.54-1.685,7.023-1.685
		c4.663,0,7.964,2.048,9.88,6.152h0.485l0.359-5.33h17.516L479.118,102.132"/>
	<path id="path2660" fill="#C7C9CB" d="M505.782,86.205c-0.045,0.227-0.068,0.44-0.068,0.617c0,1.217,0.318,2.216,0.977,2.992
		c0.658,0.768,1.639,1.148,2.951,1.148c1.634,0,2.946-0.535,3.927-1.616c0.977-1.076,1.59-2.401,1.812-3.99c0-0.132,0-0.3,0-0.491
		c0.055-0.186,0.077-0.331,0.077-0.422c0-1.212-0.377-2.188-1.121-2.951c-0.749-0.744-1.762-1.107-3.015-1.107
		c-1.403,0-2.615,0.499-3.65,1.498c-1.026,0.999-1.657,2.216-1.889,3.618C505.782,85.633,505.782,85.869,505.782,86.205z
		 M513.146,99.381h-0.422c-2.148,1.961-4.141,3.405-5.952,4.34c-1.83,0.927-3.933,1.39-6.307,1.39c-2.106,0-3.978-0.432-5.607-1.299
		c-1.639-0.871-2.992-2.038-4.072-3.505c-1.081-1.471-1.88-3.137-2.42-5.003c-0.531-1.871-0.799-3.832-0.799-5.889
		c0-1.212,0.091-2.401,0.276-3.573c0.368-2.379,1.095-4.735,2.175-7.073c1.067-2.334,2.447-4.449,4.137-6.329
		c1.68-1.902,3.627-3.405,5.852-4.522c2.211-1.116,4.586-1.685,7.105-1.685c4.677,0,8.014,1.748,10.024,5.24h0.423l0.132-4.418
		h17.738l-5.889,37.234h-17.734L513.146,99.381"/>
	<path id="path2662" fill="#C7C9CB" d="M558.398,73.638h0.554c1.081-2.233,2.737-4.036,4.976-5.38
		c2.248-1.349,4.582-2.025,7.006-2.025c2.67,0,4.795,0.69,6.389,2.066c1.575,1.38,2.588,3.328,3.014,5.856h0.409
		c1.503-2.66,3.26-4.649,5.294-5.952c2.038-1.312,4.449-1.971,7.255-1.971c3.592,0,6.284,1.045,8.063,3.115
		c1.771,2.079,2.66,4.854,2.66,8.313c0,1.122-0.091,2.288-0.276,3.501l-3.65,23.128H582.57l2.946-18.401
		c0.137-1.063,0.214-1.89,0.214-2.443c0-0.79-0.159-1.402-0.459-1.861c-0.313-0.431-0.854-0.653-1.644-0.653
		c-1.126,0-1.907,0.444-2.347,1.325c-0.445,0.886-0.79,2.098-1.026,3.633l-2.933,18.401h-17.525l2.941-18.466
		c0.146-1.08,0.209-1.902,0.209-2.46c0-0.8-0.154-1.412-0.458-1.871c-0.3-0.432-0.845-0.653-1.648-0.653
		c-1.121,0-1.897,0.444-2.347,1.335c-0.44,0.89-0.777,2.106-1.009,3.649l-2.951,18.466h-17.521l5.889-37.234h17.112L558.398,73.638"
		/>
	<path id="path2664" fill="#C7C9CB" d="M636.448,81.021c-0.018-0.046-0.018-0.191,0-0.427c0.041-0.191,0.063-0.322,0.063-0.423
		c0-1.112-0.358-2.057-1.053-2.837c-0.704-0.764-1.594-1.153-2.665-1.153c-1.313,0-2.389,0.454-3.256,1.361
		c-0.871,0.918-1.394,2.07-1.58,3.479H636.448z M626.701,88.771c-0.146,0.967-0.209,1.784-0.209,2.424
		c0,1.203,0.249,2.147,0.763,2.838c0.521,0.69,1.43,1.035,2.737,1.035c0.936,0,1.78-0.29,2.524-0.881
		c0.749-0.59,1.28-1.335,1.603-2.225h17.603c-0.936,2.161-2.247,4.072-3.932,5.729c-1.68,1.671-3.578,3.052-5.703,4.15
		c-2.129,1.099-4.354,1.911-6.665,2.46c-2.311,0.531-4.563,0.809-6.765,0.809c-2.706,0-5.234-0.317-7.6-0.944
		c-2.366-0.636-4.445-1.599-6.271-2.915c-1.825-1.298-3.251-2.933-4.272-4.895c-1.035-1.97-1.548-4.227-1.548-6.792
		c0-1.08,0.091-2.175,0.281-3.296c0.463-2.996,1.435-5.729,2.915-8.235c1.467-2.488,3.323-4.627,5.558-6.375
		c2.247-1.752,4.748-3.087,7.509-4.022c2.752-0.936,5.599-1.403,8.545-1.403c2.851,0,5.498,0.391,7.918,1.158
		c2.438,0.776,4.54,1.916,6.307,3.414c1.784,1.489,3.155,3.323,4.145,5.476c0.977,2.152,1.467,4.54,1.467,7.164
		c0,1.681-0.214,3.455-0.636,5.326H626.701"/>
	<path id="path2666" fill="#C7C9CB" d="M660.407,89.751l0.989,0.699c1.444,0.976,2.91,1.803,4.404,2.456
		c1.503,0.645,2.929,0.98,4.281,0.98c0.704,0,1.357-0.177,1.961-0.521c0.613-0.359,0.954-0.858,1.054-1.512V91.64
		c0.046-0.086,0.068-0.168,0.068-0.2c0-0.653-0.255-1.103-0.763-1.334c-0.527-0.232-1.249-0.4-2.184-0.486l-0.414-0.072
		c-3.032-0.463-5.498-1.354-7.359-2.67c-1.87-1.299-2.806-3.232-2.806-5.803c0-0.558,0.068-1.171,0.214-1.824
		c0.317-2.234,1.135-4.187,2.41-5.844c1.29-1.657,2.869-3.01,4.74-4.091c1.856-1.08,3.85-1.861,5.947-2.352
		c2.106-0.49,4.209-0.731,6.307-0.731c2.529,0,5.053,0.259,7.563,0.776c2.529,0.518,4.654,1.317,6.389,2.38l-6.029,10.328
		c-1.122-0.926-2.366-1.684-3.746-2.238c-1.38-0.567-2.747-0.844-4.104-0.844c-0.703,0-1.325,0.131-1.893,0.39
		c-0.555,0.255-0.877,0.69-0.977,1.29c0,0.744,0.277,1.267,0.845,1.543c0.554,0.282,1.466,0.536,2.724,0.772
		c0.101,0,0.255,0.018,0.49,0.063c3.27,0.559,5.798,1.471,7.573,2.724c1.771,1.263,2.661,3.251,2.661,5.957
		c0,0.645-0.064,1.344-0.2,2.089c-0.377,2.293-1.222,4.304-2.524,6.061c-1.316,1.748-2.924,3.183-4.84,4.295
		c-1.916,1.122-3.986,1.948-6.206,2.483c-2.216,0.545-4.418,0.809-6.62,0.809c-2.72,0-5.407-0.363-8.1-1.09
		c-2.679-0.722-5.452-1.743-8.299-3.046L660.407,89.751"/>
	<g>
		<path id="path3093" fill="#752D3C" d="M71.882,73.638c-16.726,0.005-30.333,13.621-30.337,30.347
			c0.005,16.726,13.611,30.21,30.337,30.21s30.22-13.484,30.22-30.21S88.608,73.643,71.882,73.638z"/>
		<path id="path2634" fill="#C7C9CB" d="M22.694,30.852c-3.905,3.913-6.306,9.271-6.306,15.236s2.401,11.314,6.306,15.232
			c3.918,3.909,9.271,6.307,15.237,6.307s11.323-2.397,15.237-6.307c3.909-3.918,6.311-9.267,6.311-15.232
			s-2.401-11.323-6.311-15.236c-3.914-3.909-9.271-6.307-15.237-6.312C31.965,24.545,26.612,26.942,22.694,30.852z M6.79,46.088
			c0.004-17.207,13.947-31.146,31.141-31.146c17.203,0,31.141,13.938,31.141,31.146c0,17.198-13.938,31.137-31.141,31.137
			C20.737,77.225,6.794,63.286,6.79,46.088"/>
		<path id="path2636" fill="#C7C9CB" d="M90.016,30.852c-3.905,3.913-6.307,9.262-6.307,15.232c0,5.961,2.402,11.318,6.307,15.236
			c3.922,3.909,9.271,6.307,15.241,6.307c5.966,0,11.319-2.397,15.237-6.307c3.904-3.918,6.306-9.275,6.306-15.236
			c0-5.971-2.402-11.319-6.306-15.232c-3.918-3.909-9.271-6.312-15.237-6.312C99.287,24.54,93.938,26.942,90.016,30.852z
			 M74.112,46.084c0.004-17.203,13.947-31.142,31.146-31.142s31.141,13.938,31.146,31.142
			c-0.004,17.202-13.947,31.141-31.146,31.141S74.116,63.286,74.112,46.084"/>
		<path id="path2638" fill="#C7C9CB" d="M32.292,43.918h-2.465v-3.26h0.15c1.494,0,2.643-0.526,3.46-1.599
			c0.826-1.085,1.435-2.837,1.82-5.275h4.422v6.874h5.212v3.26h-5.212v9.589c0,0.727,0.109,1.253,0.322,1.58
			c0.218,0.345,0.549,0.509,0.999,0.509c0.554,0,0.944-0.272,1.163-0.8c0.218-0.526,0.327-1.589,0.327-3.169v-1.644h3.224v2.389
			c0,2.424-0.508,4.149-1.53,5.166c-1.013,1.026-2.706,1.535-5.067,1.535c-1.276,0-2.397-0.182-3.351-0.554
			c-0.958-0.373-1.734-0.927-2.338-1.648c-0.404-0.49-0.686-1.04-0.858-1.657c-0.182-0.617-0.277-1.662-0.277-3.169V43.918"/>
		<path id="path2640" fill="#C7C9CB" d="M99.337,42.669h-2.475v-3.255h0.155c1.484,0,2.633-0.54,3.459-1.607
			c0.822-1.08,1.421-2.833,1.82-5.275h4.427v6.883h5.199v3.255h-5.199v9.594c0,0.718,0.1,1.244,0.309,1.58
			c0.218,0.336,0.544,0.499,0.999,0.499c0.559,0,0.944-0.263,1.171-0.79c0.218-0.526,0.327-1.598,0.327-3.178V48.73h3.219v2.397
			c0,2.424-0.513,4.145-1.525,5.157c-1.017,1.026-2.71,1.535-5.071,1.535c-1.285,0-2.402-0.178-3.351-0.555
			c-0.963-0.367-1.739-0.926-2.329-1.647c-0.404-0.486-0.695-1.04-0.872-1.648c-0.177-0.617-0.263-1.671-0.263-3.178V42.669"/>
		<path id="path3086" fill="#C7C9CB" d="M71.887,72.775c-17.203,0.009-31.196,14.011-31.205,31.209
			c0.009,17.203,14.001,31.063,31.205,31.073c17.203-0.01,31.073-13.87,31.073-31.073C102.96,86.786,89.09,72.784,71.887,72.775z
			 M86.384,80.611c0.422-0.068,0.972,0,1.43,0c1.707,0,2.987,0.346,4.05,1.176c1.058,0.826,1.693,1.902,1.693,3.265
			c0,0.994-0.318,1.861-0.908,2.479c-0.586,0.626-1.403,0.917-2.352,0.917c-1.026,0-1.816-0.3-2.483-0.781
			c-0.663-0.49-1.044-1.085-1.044-1.83c0-0.458,0.159-0.894,0.395-1.312c0.218-0.391,0.549-0.817,1.044-1.172
			c-0.254-0.213-0.458-0.313-0.654-0.391c-0.195-0.09-0.463-0.131-0.649-0.131c-0.363,0-0.708,0.209-1.18,0.259
			c-0.686,0.072-1.598,1.253-2.479,2.615c1.385,0.871,2.629,1.852,3.787,3.005c3.904,3.909,6.397,9.308,6.397,15.273
			s-2.493,11.232-6.397,15.146c-3.918,3.904-9.18,6.393-15.146,6.393s-11.36-2.488-15.278-6.393
			c-3.905-3.914-6.266-9.181-6.266-15.146s2.361-11.359,6.266-15.273c3.918-3.909,9.312-6.274,15.278-6.274
			c3.45,0,6.646,0.786,9.53,2.225c1.058-1.634,2.343-3.178,3.786-3.659C85.607,80.87,85.953,80.68,86.384,80.611z"/>
		<path id="path2668" fill="#FFFFFF" d="M81.417,84.661c-1.29,1.998-2.188,4.123-2.611,4.44c-1.28-0.59-2.565-1.058-3.655-1.308
			c-1.076-0.263-2.12-0.391-3.264-0.391c-3.542,0-6.27,0.813-8.223,2.353c-1.961,1.534-3.005,3.613-3.005,6.393
			c0,1.262,0.213,2.379,0.649,3.396c0.454,0.999,1.094,1.875,1.961,2.61c-1.185,0.45-2.102,1.145-2.742,1.957
			c-0.635,0.836-0.913,1.825-0.913,2.874c0,0.831,0.223,1.503,0.649,2.22c0.417,0.709,1.003,1.489,1.83,2.089
			c-0.913,0.35-1.571,0.809-2.088,1.435c-0.518,0.627-0.786,1.304-0.786,2.089c0,1.762,1.035,3.087,3.133,3.923
			c2.111,0.835,5.33,1.171,9.793,1.171c4.508,0,7.968-0.608,10.188-1.825c2.229-1.217,3.26-3.042,3.26-5.484
			c0-2.07-0.613-3.614-1.957-4.567c-1.349-0.944-3.551-1.308-6.524-1.308c-0.713,0-1.93-0.045-3.791,0
			c-1.866,0.036-3.423,0.132-4.567,0.132c-1.339,0-2.134-0.086-2.479-0.264c-0.345-0.172-0.522-0.581-0.522-1.049
			c0-0.19,0.1-0.326,0.259-0.518c0.159-0.204,0.381-0.391,0.654-0.526c0.74,0.236,1.366,0.418,2.088,0.526
			c0.708,0.118,1.535,0.127,2.22,0.127c3.333,0,5.925-0.735,7.963-2.347c2.034-1.612,3.133-3.791,3.133-6.397
			c0-1.189-0.227-2.22-0.522-3.133c-0.313-0.903-0.694-1.657-1.303-2.352c0.318-0.254,1.593-3.051,3.001-5.221
			C82.647,85.333,82.048,84.97,81.417,84.661z M71.497,90.663c0.667,0,1.135,0.336,1.435,1.177c0.313,0.857,0.522,2.347,0.522,4.309
			c0,2.084-0.195,3.536-0.522,4.439c-0.304,0.908-0.872,1.308-1.566,1.308c-0.763,0-1.226-0.317-1.566-1.176
			c-0.35-0.862-0.522-2.384-0.522-4.309c0-2.156,0.186-3.573,0.522-4.44C70.13,91.09,70.675,90.663,71.497,90.663z M69.667,113.256
			c0.876-0.064,1.984,0,3.264,0c2.361,0,3.937,0.145,4.831,0.39c0.894,0.236,1.307,0.6,1.307,1.172c0,0.617-0.467,1.035-1.435,1.308
			c-0.972,0.281-2.588,0.391-4.835,0.391c-2.307,0-3.914-0.118-4.958-0.391c-1.04-0.264-1.566-0.704-1.566-1.308
			c0-0.591,0.381-0.936,1.308-1.172C68.046,113.519,68.795,113.31,69.667,113.256z"/>
	</g>
</g>
</svg>
