<?xml version="1.0" encoding="utf-8"?>
<!-- Generator: Adobe Illustrator 15.1.0, SVG Export Plug-In . SVG Version: 6.00 Build 0)  -->
<!DOCTYPE svg PUBLIC "-//W3C//DTD SVG 1.1//EN" "http://www.w3.org/Graphics/SVG/1.1/DTD/svg11.dtd">
<svg version="1.1" id="Layer_1" xmlns="http://www.w3.org/2000/svg" xmlns:xlink="http://www.w3.org/1999/xlink" x="0px" y="0px"
	 width="100px" height="75px" viewBox="0 0 100 75" enable-background="new 0 0 100 75" xml:space="preserve">
<path fill="none" stroke="#FFFFFF" stroke-width="2" stroke-miterlimit="10" d="M10,15.5c0,0,10-5,20-5c20,0,20,10,40,10
	c10,0,20-5,20-5"/>
<path fill="none" stroke="#FFFFFF" stroke-width="2" stroke-miterlimit="10" d="M10,59.5c0,0,10-5,20-5c20,0,20,10,40,10
	c10,0,20-5,20-5"/>
<g>
	<rect x="2.166" y="27.833" fill="none" width="95.668" height="19.333"/>
	<path fill="#FFFFFF" d="M11.573,46.085c-1.448-0.797-2.583-1.901-3.406-3.315c-0.823-1.412-1.235-2.994-1.235-4.745
		s0.412-3.332,1.235-4.745c0.823-1.412,1.963-2.517,3.419-3.315c1.456-0.797,3.085-1.196,4.888-1.196c1.352,0,2.6,0.226,3.744,0.676
		c1.144,0.451,2.114,1.11,2.912,1.976l-1.222,1.222c-1.421-1.438-3.216-2.158-5.382-2.158c-1.439,0-2.747,0.33-3.926,0.988
		c-1.179,0.659-2.102,1.56-2.769,2.704c-0.667,1.144-1.001,2.427-1.001,3.848c0,1.421,0.333,2.704,1.001,3.848
		c0.667,1.145,1.59,2.045,2.769,2.704c1.179,0.659,2.487,0.987,3.926,0.987c2.184,0,3.978-0.728,5.382-2.184l1.222,1.223
		c-0.797,0.866-1.772,1.529-2.925,1.988c-1.153,0.459-2.405,0.689-3.757,0.689C14.645,47.281,13.02,46.883,11.573,46.085z"/>
	<path fill="#FFFFFF" d="M27.237,28.925h1.924v16.536h10.192v1.664H27.237V28.925z"/>
	<path fill="#FFFFFF" d="M45.242,46.072c-1.465-0.807-2.609-1.911-3.432-3.315c-0.823-1.403-1.235-2.981-1.235-4.732
		s0.412-3.328,1.235-4.732s1.967-2.509,3.432-3.315c1.464-0.806,3.098-1.209,4.901-1.209c1.802,0,3.427,0.399,4.875,1.196
		c1.446,0.798,2.587,1.903,3.419,3.315c0.832,1.413,1.248,2.995,1.248,4.745s-0.416,3.333-1.248,4.745
		c-0.832,1.414-1.973,2.519-3.419,3.315c-1.448,0.798-3.073,1.196-4.875,1.196C48.34,47.281,46.707,46.878,45.242,46.072z
		 M54.043,44.59c1.161-0.65,2.071-1.551,2.73-2.703c0.658-1.153,0.987-2.44,0.987-3.862c0-1.421-0.329-2.708-0.987-3.861
		c-0.659-1.153-1.569-2.054-2.73-2.704s-2.461-0.975-3.9-0.975S47.4,30.81,46.23,31.46s-2.089,1.551-2.756,2.704
		c-0.667,1.153-1.001,2.44-1.001,3.861c0,1.421,0.333,2.708,1.001,3.862c0.667,1.152,1.586,2.053,2.756,2.703
		s2.474,0.975,3.913,0.975S52.882,45.24,54.043,44.59z"/>
	<path fill="#FFFFFF" d="M65.131,46.631c-1.239-0.434-2.196-1.005-2.873-1.716l0.754-1.481c0.659,0.658,1.534,1.191,2.626,1.599
		c1.093,0.407,2.219,0.61,3.381,0.61c1.629,0,2.851-0.299,3.666-0.896c0.814-0.598,1.222-1.373,1.222-2.327
		c0-0.728-0.221-1.309-0.663-1.742c-0.442-0.433-0.984-0.767-1.625-1.001c-0.642-0.234-1.534-0.489-2.678-0.767
		c-1.37-0.347-2.462-0.68-3.276-1.001s-1.513-0.81-2.093-1.469C62.99,35.78,62.7,34.888,62.7,33.761
		c0-0.919,0.242-1.755,0.728-2.509s1.23-1.356,2.236-1.807c1.005-0.45,2.253-0.676,3.744-0.676c1.04,0,2.058,0.143,3.055,0.429
		c0.997,0.286,1.859,0.68,2.587,1.183L74.4,31.915c-0.764-0.502-1.578-0.879-2.444-1.131c-0.867-0.251-1.716-0.377-2.548-0.377
		c-1.595,0-2.795,0.308-3.601,0.923c-0.807,0.615-1.21,1.408-1.21,2.379c0,0.728,0.222,1.313,0.663,1.755
		c0.442,0.442,0.997,0.78,1.664,1.014s1.564,0.49,2.691,0.767c1.334,0.33,2.413,0.654,3.237,0.975
		c0.822,0.321,1.521,0.805,2.093,1.456s0.857,1.53,0.857,2.639c0,0.92-0.246,1.756-0.74,2.51s-1.253,1.352-2.275,1.794
		s-2.279,0.663-3.77,0.663C67.666,47.281,66.37,47.064,65.131,46.631z"/>
	<path fill="#FFFFFF" d="M92.86,45.461v1.664H79.99v-18.2h12.48v1.664H81.914v6.474h9.412v1.638h-9.412v6.76H92.86z"/>
</g>
</svg>
