<?xml version="1.0" encoding="utf-8"?>
<!-- Generator: Adobe Illustrator 15.1.0, SVG Export Plug-In . SVG Version: 6.00 Build 0)  -->
<!DOCTYPE svg PUBLIC "-//W3C//DTD SVG 1.1//EN" "http://www.w3.org/Graphics/SVG/1.1/DTD/svg11.dtd">
<svg version="1.1" id="Layer_1" xmlns="http://www.w3.org/2000/svg" xmlns:xlink="http://www.w3.org/1999/xlink" x="0px" y="0px"
	 width="400px" height="60px" viewBox="0 0 400 60" enable-background="new 0 0 400 60" xml:space="preserve">
<g>
	<rect x="-1.5" y="1" fill="none" width="403" height="40.25"/>
	<path fill="#3876C7" d="M20.724,37.606c-2.614,0-5.032-0.442-7.252-1.328c-2.221-0.885-4.154-2.154-5.8-3.808
		c-1.646-1.653-2.926-3.646-3.839-5.977s-1.37-4.949-1.37-7.854c0-2.643,0.463-5.046,1.391-7.211
		c0.927-2.165,2.231-4.026,3.912-5.583c1.681-1.556,3.656-2.753,5.925-3.59C15.958,1.419,18.434,1,21.118,1
		c2.269,0,4.209,0.377,5.821,1.131s3.041,1.768,4.286,3.04V3.013c0-0.525,0.19-0.906,0.57-1.141s0.827-0.353,1.339-0.353
		c0.456,0,0.861,0.135,1.214,0.405c0.353,0.27,0.529,0.647,0.529,1.131v7.761c0,0.484-0.177,0.861-0.529,1.131
		c-0.353,0.27-0.758,0.405-1.214,0.405c-0.471,0-0.817-0.183-1.038-0.55s-0.456-0.723-0.705-1.069
		c-1.01-1.674-2.324-3.061-3.943-4.161c-1.618-1.1-3.729-1.65-6.329-1.65c-2.739,0-5.095,0.599-7.066,1.795
		c-1.972,1.197-3.486,2.847-4.545,4.95C8.449,13.77,7.92,16.17,7.92,18.868c0,4.552,1.145,8.135,3.435,10.75
		c2.29,2.615,5.544,3.922,9.764,3.922c2.933,0,5.302-0.792,7.107-2.376c1.806-1.584,2.964-3.69,3.476-6.319
		c0.11-0.498,0.374-0.868,0.789-1.11c0.415-0.242,0.857-0.363,1.328-0.363c0.54,0,1.041,0.159,1.504,0.477
		c0.463,0.318,0.695,0.782,0.695,1.39c0,2.228-0.626,4.278-1.878,6.153c-1.252,1.875-3.023,3.379-5.313,4.514
		C26.538,37.04,23.837,37.606,20.724,37.606z"/>
	<path fill="#3876C7" d="M52.827,37.606c-2.56,0-4.808-0.516-6.744-1.546c-1.938-1.03-3.445-2.49-4.524-4.379
		c-1.079-1.888-1.618-4.112-1.618-6.671c0-2.587,0.539-4.818,1.618-6.692s2.587-3.324,4.524-4.348
		c1.937-1.023,4.185-1.536,6.744-1.536c2.532,0,4.742,0.519,6.63,1.557c1.888,1.037,3.358,2.5,4.41,4.389
		c1.051,1.889,1.577,4.099,1.577,6.63s-0.526,4.742-1.577,6.63c-1.052,1.889-2.525,3.354-4.42,4.399
		C57.551,37.085,55.345,37.606,52.827,37.606z M52.827,34.079c1.715,0,3.171-0.395,4.368-1.183c1.197-0.789,2.106-1.868,2.729-3.238
		c0.623-1.369,0.934-2.918,0.934-4.648c0-1.743-0.312-3.296-0.934-4.659s-1.532-2.435-2.729-3.217
		c-1.197-0.781-2.653-1.172-4.368-1.172c-1.757,0-3.251,0.388-4.482,1.162c-1.231,0.775-2.172,1.844-2.822,3.206
		c-0.65,1.363-0.976,2.923-0.976,4.68c0,1.771,0.325,3.337,0.976,4.701c0.65,1.362,1.591,2.432,2.822,3.206
		C49.576,33.691,51.07,34.079,52.827,34.079z"/>
	<path fill="#3876C7" d="M76.401,37.669c-1.411,0-2.677-0.29-3.798-0.872c-1.121-0.58-2.006-1.394-2.656-2.438
		c-0.65-1.045-0.976-2.259-0.976-3.643c0-1.494,0.329-2.729,0.986-3.704c0.656-0.975,1.542-1.757,2.656-2.345
		c1.113-0.588,2.368-1.038,3.767-1.349c1.396-0.311,2.843-0.542,4.337-0.695s2.933-0.291,4.316-0.415v-3.362
		c0-0.733-0.218-1.307-0.654-1.722c-0.436-0.415-0.985-0.712-1.649-0.892s-1.356-0.27-2.075-0.27c-1.301,0-2.373,0.09-3.217,0.27
		s-1.615,0.456-2.313,0.83c-0.699,0.373-1.491,0.844-2.376,1.411c-0.264,0.152-0.506,0.228-0.727,0.228
		c-0.471,0-0.893-0.221-1.266-0.664c-0.374-0.442-0.561-0.906-0.561-1.39c0-0.83,0.343-1.519,1.027-2.065s1.553-0.976,2.604-1.287
		c1.051-0.312,2.137-0.533,3.258-0.664s2.109-0.197,2.968-0.197c2.352,0,4.188,0.322,5.51,0.965c1.32,0.644,2.251,1.671,2.791,3.082
		c0.539,1.411,0.81,3.278,0.81,5.603v10.459c0,0.43,0.072,0.785,0.218,1.069c0.145,0.283,0.376,0.425,0.694,0.425
		c0.416,0,0.872-0.187,1.37-0.561c0.498-0.373,0.979-0.746,1.442-1.12c0.463-0.374,0.861-0.561,1.193-0.561
		c0.317,0,0.643,0.204,0.975,0.612s0.498,0.807,0.498,1.193c0,0.554-0.207,1.072-0.622,1.557s-0.938,0.909-1.566,1.276
		c-0.63,0.366-1.273,0.653-1.931,0.86c-0.657,0.208-1.221,0.312-1.691,0.312c-2.282,0-3.666-1.12-4.15-3.361
		c-1.01,1.176-2.331,2.041-3.963,2.594C79.998,37.392,78.255,37.669,76.401,37.669z M77.854,34.079c1.453,0,2.773-0.263,3.964-0.789
		c1.189-0.525,2.262-1.169,3.217-1.93v-6.039c-1.094,0.125-2.308,0.253-3.643,0.384s-2.604,0.356-3.808,0.674
		c-1.203,0.318-2.196,0.81-2.978,1.474c-0.782,0.664-1.173,1.577-1.173,2.739c0,1.176,0.436,2.051,1.308,2.625
		C75.612,33.792,76.65,34.079,77.854,34.079z"/>
	<path fill="#3876C7" d="M110.103,37.648c-0.996,0-2.068-0.107-3.217-0.322c-1.148-0.214-2.22-0.525-3.216-0.934
		s-1.758-0.902-2.283-1.483c0,0.927-0.163,1.521-0.487,1.784c-0.325,0.264-0.724,0.395-1.193,0.395
		c-0.526,0-0.965-0.117-1.318-0.353c-0.353-0.235-0.528-0.63-0.528-1.183v-7.015c0.027-0.429,0.196-0.754,0.508-0.976
		c0.312-0.221,0.667-0.332,1.068-0.332c0.609,0,1.034,0.142,1.276,0.426s0.426,0.695,0.55,1.234
		c0.429,1.882,1.415,3.293,2.958,4.233c1.542,0.941,3.427,1.411,5.654,1.411c1.355,0,2.511-0.252,3.466-0.757
		s1.432-1.346,1.432-2.521s-0.273-2.03-0.819-2.563c-0.547-0.532-1.532-1.013-2.957-1.442l-5.645-1.764
		c-1.177-0.373-2.272-0.816-3.289-1.328c-1.018-0.511-1.837-1.162-2.46-1.95c-0.622-0.789-0.934-1.785-0.934-2.988
		c0-1.342,0.26-2.452,0.778-3.331c0.519-0.878,1.211-1.57,2.075-2.075c0.864-0.505,1.829-0.861,2.895-1.068
		c1.065-0.208,2.145-0.312,3.238-0.312c0.954,0,1.908,0.132,2.863,0.395s1.809,0.629,2.563,1.1c0.754,0.471,1.297,1.017,1.629,1.64
		v-1.764c0-0.429,0.152-0.771,0.457-1.027c0.304-0.256,0.671-0.384,1.1-0.384c1.218,0,1.826,0.54,1.826,1.619v5.997
		c-0.056,0.471-0.245,0.827-0.57,1.069c-0.325,0.242-0.73,0.363-1.214,0.363c-0.457,0-0.762-0.138-0.913-0.415
		c-0.152-0.276-0.298-0.671-0.436-1.183c-0.305-0.982-0.852-1.805-1.64-2.469c-0.789-0.664-1.688-1.169-2.698-1.515
		c-1.01-0.345-2.013-0.519-3.009-0.519c-1.273,0-2.387,0.246-3.341,0.737c-0.955,0.491-1.432,1.249-1.432,2.272
		c0,0.886,0.283,1.567,0.851,2.044c0.566,0.477,1.486,0.875,2.76,1.193l5.313,1.743c1.245,0.415,2.425,0.889,3.538,1.422
		s2.02,1.255,2.719,2.168c0.698,0.913,1.048,2.152,1.048,3.714c0,2.311-0.782,4.058-2.345,5.24
		C115.159,37.057,112.952,37.648,110.103,37.648z"/>
	<path fill="#3876C7" d="M132.037,37.648c-1.079,0-2.082-0.264-3.009-0.789c-0.928-0.525-1.671-1.221-2.231-2.085
		c-0.56-0.865-0.84-1.809-0.84-2.833V17.249h-3.113c-0.581,0-1.01-0.166-1.286-0.498c-0.277-0.332-0.415-0.761-0.415-1.287
		c0-0.512,0.128-0.955,0.384-1.328s0.653-0.56,1.193-0.56h3.237c0-0.636,0.017-1.411,0.052-2.324
		c0.034-0.913,0.128-1.819,0.28-2.719c0.151-0.899,0.395-1.65,0.727-2.251c0.332-0.602,0.795-0.903,1.39-0.903
		c0.623,0,1.176,0.173,1.66,0.519v0.415c0,0.18,0.007,0.381,0.021,0.602c0.014,0.222,0.021,0.429,0.021,0.623v6.039h5.437
		c0.525,0,0.906,0.19,1.142,0.57c0.235,0.381,0.353,0.834,0.353,1.359c0,0.457-0.135,0.861-0.404,1.214
		c-0.27,0.353-0.647,0.529-1.131,0.529h-5.396v14.049c0,1.094,0.249,1.868,0.747,2.324c0.498,0.457,1.127,0.685,1.888,0.685
		c0.664,0,1.193-0.113,1.588-0.342s0.723-0.488,0.986-0.778c0.262-0.29,0.525-0.55,0.788-0.778s0.588-0.342,0.976-0.342
		c0.442,0,0.802,0.152,1.079,0.456c0.276,0.305,0.415,0.678,0.415,1.12c0,0.817-0.35,1.525-1.048,2.128
		c-0.699,0.602-1.554,1.065-2.563,1.39C133.953,37.485,132.978,37.648,132.037,37.648z"/>
	<path fill="#3876C7" d="M148.618,37.669c-1.411,0-2.677-0.29-3.798-0.872c-1.121-0.58-2.006-1.394-2.656-2.438
		c-0.65-1.045-0.976-2.259-0.976-3.643c0-1.494,0.329-2.729,0.986-3.704c0.656-0.975,1.542-1.757,2.656-2.345
		c1.113-0.588,2.368-1.038,3.767-1.349c1.396-0.311,2.843-0.542,4.337-0.695s2.933-0.291,4.316-0.415v-3.362
		c0-0.733-0.218-1.307-0.654-1.722c-0.436-0.415-0.985-0.712-1.649-0.892s-1.356-0.27-2.075-0.27c-1.301,0-2.373,0.09-3.217,0.27
		s-1.615,0.456-2.313,0.83c-0.699,0.373-1.491,0.844-2.376,1.411c-0.264,0.152-0.506,0.228-0.727,0.228
		c-0.471,0-0.893-0.221-1.266-0.664c-0.374-0.442-0.561-0.906-0.561-1.39c0-0.83,0.343-1.519,1.027-2.065s1.553-0.976,2.604-1.287
		c1.051-0.312,2.137-0.533,3.258-0.664s2.109-0.197,2.968-0.197c2.352,0,4.188,0.322,5.51,0.965c1.32,0.644,2.251,1.671,2.791,3.082
		c0.539,1.411,0.81,3.278,0.81,5.603v10.459c0,0.43,0.072,0.785,0.218,1.069c0.145,0.283,0.376,0.425,0.694,0.425
		c0.416,0,0.872-0.187,1.37-0.561c0.498-0.373,0.979-0.746,1.442-1.12c0.463-0.374,0.861-0.561,1.193-0.561
		c0.317,0,0.643,0.204,0.975,0.612s0.498,0.807,0.498,1.193c0,0.554-0.207,1.072-0.622,1.557s-0.938,0.909-1.566,1.276
		c-0.63,0.366-1.273,0.653-1.931,0.86c-0.657,0.208-1.221,0.312-1.691,0.312c-2.282,0-3.666-1.12-4.15-3.361
		c-1.01,1.176-2.331,2.041-3.963,2.594C152.215,37.392,150.472,37.669,148.618,37.669z M150.07,34.079
		c1.453,0,2.773-0.263,3.964-0.789c1.189-0.525,2.262-1.169,3.217-1.93v-6.039c-1.094,0.125-2.308,0.253-3.643,0.384
		s-2.604,0.356-3.808,0.674c-1.203,0.318-2.196,0.81-2.978,1.474c-0.782,0.664-1.173,1.577-1.173,2.739
		c0,1.176,0.436,2.051,1.308,2.625C147.829,33.792,148.867,34.079,150.07,34.079z"/>
	<path fill="#3876C7" d="M170.449,37.088c-0.581,0-1.01-0.166-1.287-0.498c-0.276-0.332-0.414-0.761-0.414-1.287
		c0-0.511,0.127-0.95,0.384-1.317c0.256-0.366,0.653-0.55,1.192-0.55h4.711V5.545l-4.877,1.287c-0.055,0-0.086,0.007-0.093,0.021
		s-0.045,0.021-0.114,0.021c-0.429,0-0.813-0.19-1.151-0.571c-0.34-0.38-0.509-0.785-0.509-1.214c0-0.595,0.155-0.986,0.467-1.172
		c0.312-0.187,0.695-0.349,1.152-0.488l7.989-2.303c0.083-0.028,0.18-0.042,0.29-0.042c0.291,0,0.547,0.09,0.768,0.27
		c0.222,0.18,0.332,0.429,0.332,0.747v31.335h5.064c0.525,0,0.905,0.187,1.141,0.561c0.235,0.373,0.354,0.823,0.354,1.349
		c0,0.456-0.136,0.861-0.405,1.214s-0.646,0.529-1.131,0.529H170.449z"/>
	<path fill="#3876C7" d="M216.289,37.606c-2.614,0-5.032-0.442-7.253-1.328c-2.22-0.885-4.153-2.154-5.8-3.808
		s-2.926-3.646-3.839-5.977s-1.37-4.949-1.37-7.854c0-2.643,0.464-5.046,1.391-7.211s2.23-4.026,3.912-5.583
		c1.681-1.556,3.655-2.753,5.924-3.59c2.27-0.837,4.745-1.256,7.43-1.256c2.269,0,4.209,0.377,5.821,1.131
		c1.611,0.754,3.04,1.768,4.285,3.04V3.013c0-0.525,0.189-0.906,0.57-1.141s0.826-0.353,1.339-0.353
		c0.456,0,0.861,0.135,1.214,0.405c0.353,0.27,0.529,0.647,0.529,1.131v7.761c0,0.484-0.177,0.861-0.529,1.131
		c-0.353,0.27-0.758,0.405-1.214,0.405c-0.471,0-0.816-0.183-1.038-0.55s-0.456-0.723-0.705-1.069
		c-1.011-1.674-2.324-3.061-3.943-4.161c-1.618-1.1-3.729-1.65-6.329-1.65c-2.739,0-5.095,0.599-7.066,1.795
		c-1.971,1.197-3.486,2.847-4.544,4.95c-1.059,2.103-1.588,4.503-1.588,7.201c0,4.552,1.145,8.135,3.435,10.75
		c2.289,2.615,5.544,3.922,9.764,3.922c2.933,0,5.302-0.792,7.107-2.376s2.964-3.69,3.477-6.319c0.11-0.498,0.373-0.868,0.788-1.11
		c0.415-0.242,0.857-0.363,1.328-0.363c0.54,0,1.041,0.159,1.505,0.477c0.463,0.318,0.695,0.782,0.695,1.39
		c0,2.228-0.627,4.278-1.879,6.153s-3.022,3.379-5.313,4.514C222.104,37.04,219.402,37.606,216.289,37.606z"/>
	<path fill="#3876C7" d="M236.813,37.088c-0.581,0-1.01-0.166-1.287-0.498c-0.276-0.332-0.414-0.761-0.414-1.287
		c0-0.511,0.127-0.95,0.384-1.317c0.256-0.366,0.653-0.55,1.192-0.55h4.711V5.545l-4.877,1.287c-0.055,0-0.086,0.007-0.093,0.021
		s-0.045,0.021-0.114,0.021c-0.429,0-0.813-0.19-1.151-0.571c-0.34-0.38-0.509-0.785-0.509-1.214c0-0.595,0.155-0.986,0.467-1.172
		c0.312-0.187,0.695-0.349,1.152-0.488l7.989-2.303c0.083-0.028,0.18-0.042,0.29-0.042c0.291,0,0.547,0.09,0.768,0.27
		c0.222,0.18,0.332,0.429,0.332,0.747v31.335h5.064c0.525,0,0.905,0.187,1.141,0.561c0.235,0.373,0.354,0.823,0.354,1.349
		c0,0.456-0.136,0.861-0.405,1.214s-0.646,0.529-1.131,0.529H236.813z"/>
	<path fill="#3876C7" d="M262.067,37.669c-1.411,0-2.677-0.29-3.798-0.872c-1.121-0.58-2.006-1.394-2.656-2.438
		c-0.65-1.045-0.976-2.259-0.976-3.643c0-1.494,0.329-2.729,0.986-3.704c0.656-0.975,1.542-1.757,2.656-2.345
		c1.113-0.588,2.368-1.038,3.767-1.349c1.396-0.311,2.843-0.542,4.337-0.695s2.933-0.291,4.316-0.415v-3.362
		c0-0.733-0.218-1.307-0.654-1.722c-0.436-0.415-0.985-0.712-1.649-0.892s-1.356-0.27-2.075-0.27c-1.301,0-2.373,0.09-3.217,0.27
		s-1.615,0.456-2.313,0.83c-0.699,0.373-1.491,0.844-2.376,1.411c-0.264,0.152-0.506,0.228-0.727,0.228
		c-0.471,0-0.893-0.221-1.266-0.664c-0.374-0.442-0.561-0.906-0.561-1.39c0-0.83,0.343-1.519,1.027-2.065s1.553-0.976,2.604-1.287
		c1.051-0.312,2.137-0.533,3.258-0.664s2.109-0.197,2.968-0.197c2.352,0,4.188,0.322,5.51,0.965c1.32,0.644,2.251,1.671,2.791,3.082
		c0.539,1.411,0.81,3.278,0.81,5.603v10.459c0,0.43,0.072,0.785,0.218,1.069c0.145,0.283,0.376,0.425,0.694,0.425
		c0.416,0,0.872-0.187,1.37-0.561c0.498-0.373,0.979-0.746,1.442-1.12c0.463-0.374,0.861-0.561,1.193-0.561
		c0.317,0,0.643,0.204,0.975,0.612s0.498,0.807,0.498,1.193c0,0.554-0.207,1.072-0.622,1.557s-0.938,0.909-1.566,1.276
		c-0.63,0.366-1.273,0.653-1.931,0.86c-0.657,0.208-1.221,0.312-1.691,0.312c-2.282,0-3.666-1.12-4.15-3.361
		c-1.01,1.176-2.331,2.041-3.963,2.594C265.664,37.392,263.921,37.669,262.067,37.669z M263.52,34.079
		c1.453,0,2.773-0.263,3.964-0.789c1.189-0.525,2.262-1.169,3.217-1.93v-6.039c-1.094,0.125-2.308,0.253-3.643,0.384
		s-2.604,0.356-3.808,0.674c-1.203,0.318-2.196,0.81-2.978,1.474c-0.782,0.664-1.173,1.577-1.173,2.739
		c0,1.176,0.436,2.051,1.308,2.625C261.278,33.792,262.316,34.079,263.52,34.079z"/>
	<path fill="#3876C7" d="M295.769,37.648c-0.996,0-2.068-0.107-3.217-0.322c-1.148-0.214-2.22-0.525-3.216-0.934
		s-1.758-0.902-2.283-1.483c0,0.927-0.163,1.521-0.487,1.784c-0.325,0.264-0.724,0.395-1.193,0.395
		c-0.526,0-0.965-0.117-1.318-0.353c-0.353-0.235-0.528-0.63-0.528-1.183v-7.015c0.027-0.429,0.196-0.754,0.508-0.976
		c0.312-0.221,0.667-0.332,1.068-0.332c0.609,0,1.034,0.142,1.276,0.426s0.426,0.695,0.55,1.234
		c0.429,1.882,1.415,3.293,2.958,4.233c1.542,0.941,3.427,1.411,5.654,1.411c1.355,0,2.511-0.252,3.466-0.757
		s1.432-1.346,1.432-2.521s-0.273-2.03-0.819-2.563c-0.547-0.532-1.532-1.013-2.957-1.442l-5.645-1.764
		c-1.177-0.373-2.272-0.816-3.289-1.328c-1.018-0.511-1.837-1.162-2.46-1.95c-0.622-0.789-0.934-1.785-0.934-2.988
		c0-1.342,0.26-2.452,0.778-3.331c0.519-0.878,1.211-1.57,2.075-2.075c0.864-0.505,1.829-0.861,2.895-1.068
		c1.065-0.208,2.145-0.312,3.238-0.312c0.954,0,1.908,0.132,2.863,0.395s1.809,0.629,2.563,1.1c0.754,0.471,1.297,1.017,1.629,1.64
		v-1.764c0-0.429,0.152-0.771,0.457-1.027c0.304-0.256,0.671-0.384,1.1-0.384c1.218,0,1.826,0.54,1.826,1.619v5.997
		c-0.056,0.471-0.245,0.827-0.57,1.069c-0.325,0.242-0.73,0.363-1.214,0.363c-0.457,0-0.762-0.138-0.913-0.415
		c-0.152-0.276-0.298-0.671-0.436-1.183c-0.305-0.982-0.852-1.805-1.64-2.469c-0.789-0.664-1.688-1.169-2.698-1.515
		c-1.01-0.345-2.013-0.519-3.009-0.519c-1.273,0-2.387,0.246-3.341,0.737c-0.955,0.491-1.432,1.249-1.432,2.272
		c0,0.886,0.283,1.567,0.851,2.044c0.566,0.477,1.486,0.875,2.76,1.193l5.313,1.743c1.245,0.415,2.425,0.889,3.538,1.422
		s2.02,1.255,2.719,2.168c0.698,0.913,1.048,2.152,1.048,3.714c0,2.311-0.782,4.058-2.345,5.24
		C300.825,37.057,298.618,37.648,295.769,37.648z"/>
	<path fill="#3876C7" d="M321.355,37.648c-0.996,0-2.068-0.107-3.217-0.322c-1.148-0.214-2.221-0.525-3.217-0.934
		s-1.757-0.902-2.282-1.483c0,0.927-0.163,1.521-0.487,1.784c-0.325,0.264-0.724,0.395-1.193,0.395
		c-0.526,0-0.965-0.117-1.318-0.353c-0.353-0.235-0.529-0.63-0.529-1.183v-7.015c0.028-0.429,0.197-0.754,0.509-0.976
		c0.312-0.221,0.667-0.332,1.069-0.332c0.608,0,1.033,0.142,1.275,0.426s0.426,0.695,0.551,1.234
		c0.428,1.882,1.414,3.293,2.957,4.233c1.542,0.941,3.427,1.411,5.654,1.411c1.355,0,2.512-0.252,3.466-0.757
		s1.432-1.346,1.432-2.521s-0.273-2.03-0.819-2.563c-0.547-0.532-1.532-1.013-2.957-1.442l-5.645-1.764
		c-1.177-0.373-2.272-0.816-3.289-1.328c-1.018-0.511-1.837-1.162-2.459-1.95c-0.623-0.789-0.935-1.785-0.935-2.988
		c0-1.342,0.26-2.452,0.778-3.331c0.519-0.878,1.211-1.57,2.075-2.075c0.864-0.505,1.829-0.861,2.896-1.068
		c1.064-0.208,2.144-0.312,3.236-0.312c0.955,0,1.91,0.132,2.864,0.395s1.809,0.629,2.563,1.1c0.754,0.471,1.298,1.017,1.63,1.64
		v-1.764c0-0.429,0.151-0.771,0.456-1.027c0.304-0.256,0.671-0.384,1.1-0.384c1.218,0,1.826,0.54,1.826,1.619v5.997
		c-0.056,0.471-0.245,0.827-0.57,1.069c-0.325,0.242-0.73,0.363-1.214,0.363c-0.457,0-0.762-0.138-0.913-0.415
		c-0.152-0.276-0.298-0.671-0.437-1.183c-0.304-0.982-0.851-1.805-1.639-2.469c-0.789-0.664-1.688-1.169-2.698-1.515
		c-1.01-0.345-2.013-0.519-3.009-0.519c-1.273,0-2.387,0.246-3.341,0.737c-0.955,0.491-1.433,1.249-1.433,2.272
		c0,0.886,0.284,1.567,0.852,2.044c0.566,0.477,1.486,0.875,2.76,1.193l5.313,1.743c1.245,0.415,2.425,0.889,3.538,1.422
		s2.02,1.255,2.719,2.168c0.698,0.913,1.048,2.152,1.048,3.714c0,2.311-0.782,4.058-2.345,5.24
		C326.412,37.057,324.205,37.648,321.355,37.648z"/>
	<path fill="#3876C7" d="M335.072,37.088c-1.135,0-1.701-0.574-1.701-1.723c0-0.512,0.127-0.951,0.384-1.317
		c0.256-0.366,0.653-0.55,1.192-0.55h2.844v-16.81l-2.968,0.81c-0.083,0.028-0.18,0.042-0.29,0.042
		c-0.416,0-0.803-0.169-1.162-0.508c-0.36-0.339-0.54-0.723-0.54-1.152c0-0.955,0.395-1.536,1.183-1.743l6.641-1.66
		c0.11-0.027,0.222-0.042,0.332-0.042c0.706,0,1.059,0.325,1.059,0.976v20.088h3.195c0.526,0,0.906,0.187,1.142,0.561
		c0.235,0.373,0.353,0.823,0.353,1.349c0,0.456-0.135,0.851-0.404,1.183s-0.646,0.498-1.131,0.498H335.072z M339.762,7.475
		c-0.871,0-1.615-0.308-2.23-0.923c-0.615-0.615-0.924-1.359-0.924-2.231c0-0.871,0.309-1.615,0.924-2.23s1.359-0.924,2.23-0.924
		c0.872,0,1.612,0.308,2.221,0.924s0.913,1.359,0.913,2.23c0,0.872-0.305,1.616-0.913,2.231
		C341.374,7.167,340.634,7.475,339.762,7.475z"/>
	<path fill="#3876C7" d="M362.506,37.606c-2.656,0-5.001-0.512-7.034-1.535c-2.034-1.023-3.625-2.501-4.773-4.431
		s-1.722-4.237-1.722-6.921c0-2.642,0.636-4.877,1.908-6.703c1.273-1.826,2.961-3.213,5.064-4.161
		c2.103-0.947,4.398-1.421,6.889-1.421c1.052,0,2.104,0.093,3.154,0.28c1.052,0.187,2.014,0.516,2.885,0.985
		c0.872,0.471,1.57,1.125,2.096,1.961c0.526,0.837,0.789,1.906,0.789,3.206c0,0.816-0.159,1.504-0.478,2.065
		c-0.318,0.56-0.83,0.84-1.535,0.84c-0.692,0-1.207-0.287-1.546-0.861c-0.34-0.574-0.592-1.272-0.758-2.096
		s-0.339-1.601-0.519-2.334c-1.328-0.346-2.643-0.519-3.943-0.519c-1.784,0-3.386,0.35-4.804,1.048
		c-1.418,0.699-2.539,1.702-3.362,3.009c-0.823,1.307-1.234,2.874-1.234,4.7c0,1.979,0.408,3.614,1.225,4.908
		c0.815,1.293,1.885,2.259,3.206,2.895c1.321,0.637,2.735,0.954,4.244,0.954c1.189,0,2.376-0.221,3.559-0.664
		c1.183-0.442,2.265-1.106,3.248-1.992c0.428-0.359,0.864-0.539,1.307-0.539c0.567,0,1.041,0.142,1.422,0.426
		c0.38,0.283,0.57,0.682,0.57,1.193c0,0.885-0.335,1.681-1.006,2.386c-0.672,0.706-1.525,1.308-2.563,1.806
		c-1.037,0.498-2.116,0.875-3.237,1.131C364.437,37.479,363.42,37.606,362.506,37.606z"/>
	<path fill="#3876C7" d="M388.737,37.648c-0.996,0-2.068-0.107-3.217-0.322c-1.148-0.214-2.22-0.525-3.216-0.934
		s-1.758-0.902-2.283-1.483c0,0.927-0.163,1.521-0.487,1.784c-0.325,0.264-0.724,0.395-1.193,0.395
		c-0.526,0-0.965-0.117-1.318-0.353c-0.353-0.235-0.528-0.63-0.528-1.183v-7.015c0.027-0.429,0.196-0.754,0.508-0.976
		c0.312-0.221,0.667-0.332,1.068-0.332c0.609,0,1.034,0.142,1.276,0.426s0.426,0.695,0.55,1.234
		c0.429,1.882,1.415,3.293,2.958,4.233c1.542,0.941,3.427,1.411,5.654,1.411c1.355,0,2.511-0.252,3.466-0.757
		s1.432-1.346,1.432-2.521s-0.273-2.03-0.819-2.563c-0.547-0.532-1.532-1.013-2.957-1.442l-5.645-1.764
		c-1.177-0.373-2.272-0.816-3.289-1.328c-1.018-0.511-1.837-1.162-2.46-1.95c-0.622-0.789-0.934-1.785-0.934-2.988
		c0-1.342,0.26-2.452,0.778-3.331c0.519-0.878,1.211-1.57,2.075-2.075c0.864-0.505,1.829-0.861,2.895-1.068
		c1.065-0.208,2.145-0.312,3.238-0.312c0.954,0,1.908,0.132,2.863,0.395s1.809,0.629,2.563,1.1c0.754,0.471,1.297,1.017,1.629,1.64
		v-1.764c0-0.429,0.152-0.771,0.457-1.027c0.304-0.256,0.671-0.384,1.1-0.384c1.218,0,1.826,0.54,1.826,1.619v5.997
		c-0.056,0.471-0.245,0.827-0.57,1.069c-0.325,0.242-0.73,0.363-1.214,0.363c-0.457,0-0.762-0.138-0.913-0.415
		c-0.152-0.276-0.298-0.671-0.436-1.183c-0.305-0.982-0.852-1.805-1.64-2.469c-0.789-0.664-1.688-1.169-2.698-1.515
		c-1.01-0.345-2.013-0.519-3.009-0.519c-1.273,0-2.387,0.246-3.341,0.737c-0.955,0.491-1.432,1.249-1.432,2.272
		c0,0.886,0.283,1.567,0.851,2.044c0.566,0.477,1.486,0.875,2.76,1.193l5.313,1.743c1.245,0.415,2.425,0.889,3.538,1.422
		s2.02,1.255,2.719,2.168c0.698,0.913,1.048,2.152,1.048,3.714c0,2.311-0.782,4.058-2.345,5.24
		C393.794,37.057,391.587,37.648,388.737,37.648z"/>
</g>
<g>
	<rect x="5.75" y="47.75" fill="none" width="388.5" height="11.25"/>
	<path d="M19.785,56.63H14.91l-0.93,2.25h-2.49l4.68-10.5h2.4l4.695,10.5h-2.55L19.785,56.63z M19.02,54.785l-1.665-4.021
		l-1.665,4.021H19.02z"/>
	<path d="M25.297,57.814c-0.835-0.83-1.253-2.015-1.253-3.555v-5.88h2.43v5.79c0,1.88,0.78,2.82,2.34,2.82
		c0.76,0,1.34-0.228,1.74-0.683s0.6-1.167,0.6-2.138v-5.79h2.4v5.88c0,1.54-0.417,2.725-1.252,3.555s-2.002,1.246-3.502,1.246
		S26.131,58.645,25.297,57.814z"/>
	<path d="M37.949,50.359h-3.36V48.38h9.15v1.979h-3.36v8.521h-2.43V50.359z"/>
	<path d="M47.032,58.355c-0.875-0.471-1.56-1.118-2.055-1.943c-0.495-0.824-0.743-1.752-0.743-2.782s0.248-1.958,0.743-2.782
		c0.495-0.825,1.18-1.473,2.055-1.943c0.875-0.47,1.857-0.705,2.948-0.705c1.09,0,2.07,0.235,2.94,0.705
		c0.87,0.47,1.555,1.118,2.055,1.943c0.5,0.824,0.75,1.752,0.75,2.782s-0.25,1.958-0.75,2.782c-0.5,0.825-1.185,1.473-2.055,1.943
		c-0.87,0.47-1.85,0.705-2.94,0.705C48.889,59.061,47.907,58.825,47.032,58.355z M51.659,56.563c0.5-0.285,0.893-0.683,1.178-1.192
		c0.285-0.511,0.428-1.09,0.428-1.74c0-0.649-0.143-1.229-0.428-1.74c-0.285-0.51-0.678-0.907-1.178-1.192s-1.06-0.428-1.68-0.428
		c-0.62,0-1.18,0.143-1.68,0.428s-0.893,0.683-1.177,1.192c-0.285,0.511-0.428,1.091-0.428,1.74c0,0.65,0.143,1.229,0.428,1.74
		c0.285,0.51,0.677,0.907,1.177,1.192s1.06,0.428,1.68,0.428C50.599,56.99,51.159,56.848,51.659,56.563z"/>
	<path d="M67.109,58.88l-0.015-6.3l-3.09,5.189H62.91l-3.075-5.055v6.165h-2.28v-10.5h2.01l3.93,6.524l3.87-6.524h1.995l0.03,10.5
		H67.109z"/>
	<path d="M74.017,58.355c-0.875-0.471-1.56-1.118-2.055-1.943c-0.495-0.824-0.743-1.752-0.743-2.782s0.248-1.958,0.743-2.782
		c0.495-0.825,1.18-1.473,2.055-1.943c0.875-0.47,1.857-0.705,2.947-0.705s2.07,0.235,2.94,0.705c0.87,0.47,1.555,1.118,2.055,1.943
		c0.5,0.824,0.75,1.752,0.75,2.782s-0.25,1.958-0.75,2.782c-0.5,0.825-1.185,1.473-2.055,1.943c-0.87,0.47-1.851,0.705-2.94,0.705
		S74.892,58.825,74.017,58.355z M78.645,56.563c0.5-0.285,0.893-0.683,1.178-1.192c0.284-0.511,0.427-1.09,0.427-1.74
		c0-0.649-0.143-1.229-0.427-1.74c-0.285-0.51-0.678-0.907-1.178-1.192s-1.061-0.428-1.681-0.428s-1.18,0.143-1.68,0.428
		s-0.893,0.683-1.178,1.192c-0.284,0.511-0.427,1.091-0.427,1.74c0,0.65,0.143,1.229,0.427,1.74c0.285,0.51,0.678,0.907,1.178,1.192
		s1.06,0.428,1.68,0.428S78.145,56.848,78.645,56.563z"/>
	<path d="M86.563,50.359h-3.36V48.38h9.15v1.979h-3.36v8.521h-2.43V50.359z"/>
	<path d="M93.658,48.38h2.43v10.5h-2.43V48.38z"/>
	<path d="M108.613,48.38l-4.545,10.5h-2.4l-4.529-10.5h2.625l3.194,7.5l3.24-7.5H108.613z"/>
	<path d="M117.613,56.93v1.95h-8.13v-10.5h7.935v1.95h-5.52v2.279h4.875V54.5h-4.875v2.43H117.613z"/>
	<path d="M130.482,58.88l-2.024-2.925h-0.12h-2.115v2.925h-2.43v-10.5h4.545c0.93,0,1.737,0.155,2.423,0.465
		c0.685,0.31,1.212,0.75,1.582,1.32c0.37,0.569,0.555,1.245,0.555,2.024c0,0.78-0.188,1.453-0.563,2.018
		c-0.375,0.565-0.907,0.998-1.597,1.298l2.354,3.375H130.482z M129.868,50.832c-0.381-0.314-0.936-0.473-1.665-0.473h-1.98v3.66
		h1.98c0.729,0,1.284-0.16,1.665-0.479c0.38-0.32,0.569-0.771,0.569-1.351C130.438,51.6,130.248,51.147,129.868,50.832z"/>
	<path d="M142.947,56.93v1.95h-8.13v-10.5h7.935v1.95h-5.52v2.279h4.875V54.5h-4.875v2.43H142.947z"/>
	<path d="M145.924,58.723c-0.774-0.225-1.397-0.518-1.867-0.878l0.825-1.83c0.45,0.33,0.984,0.595,1.604,0.796
		c0.62,0.199,1.24,0.299,1.86,0.299c0.69,0,1.2-0.102,1.53-0.307s0.495-0.478,0.495-0.818c0-0.25-0.098-0.457-0.293-0.622
		s-0.445-0.298-0.75-0.397s-0.718-0.21-1.237-0.33c-0.8-0.189-1.455-0.38-1.965-0.57c-0.51-0.189-0.948-0.494-1.313-0.914
		c-0.365-0.42-0.548-0.98-0.548-1.681c0-0.61,0.165-1.162,0.495-1.657s0.827-0.888,1.492-1.178s1.478-0.435,2.438-0.435
		c0.67,0,1.325,0.081,1.965,0.24c0.641,0.16,1.2,0.39,1.681,0.69l-0.75,1.845c-0.971-0.55-1.94-0.824-2.91-0.824
		c-0.681,0-1.183,0.109-1.508,0.33c-0.325,0.22-0.487,0.51-0.487,0.869c0,0.36,0.188,0.628,0.563,0.803
		c0.375,0.176,0.947,0.348,1.718,0.518c0.8,0.189,1.455,0.38,1.965,0.57c0.51,0.189,0.947,0.49,1.313,0.899
		c0.365,0.41,0.548,0.966,0.548,1.665c0,0.6-0.168,1.147-0.503,1.643s-0.838,0.888-1.508,1.178s-1.484,0.436-2.444,0.436
		C147.502,59.061,146.699,58.947,145.924,58.723z"/>
	<path d="M156.476,50.359h-3.36V48.38h9.15v1.979h-3.36v8.521h-2.43V50.359z"/>
	<path d="M165.559,58.355c-0.875-0.471-1.561-1.118-2.056-1.943c-0.495-0.824-0.742-1.752-0.742-2.782s0.247-1.958,0.742-2.782
		c0.495-0.825,1.181-1.473,2.056-1.943c0.875-0.47,1.857-0.705,2.947-0.705s2.07,0.235,2.939,0.705
		c0.87,0.47,1.556,1.118,2.056,1.943c0.5,0.824,0.75,1.752,0.75,2.782s-0.25,1.958-0.75,2.782c-0.5,0.825-1.186,1.473-2.056,1.943
		c-0.869,0.47-1.85,0.705-2.939,0.705S166.434,58.825,165.559,58.355z M170.186,56.563c0.5-0.285,0.893-0.683,1.178-1.192
		c0.285-0.511,0.428-1.09,0.428-1.74c0-0.649-0.143-1.229-0.428-1.74c-0.285-0.51-0.678-0.907-1.178-1.192s-1.06-0.428-1.68-0.428
		s-1.18,0.143-1.68,0.428c-0.501,0.285-0.893,0.683-1.178,1.192c-0.285,0.511-0.428,1.091-0.428,1.74c0,0.65,0.143,1.229,0.428,1.74
		c0.285,0.51,0.677,0.907,1.178,1.192c0.5,0.285,1.06,0.428,1.68,0.428S169.686,56.848,170.186,56.563z"/>
	<path d="M182.771,58.88l-2.024-2.925h-0.12h-2.115v2.925h-2.43v-10.5h4.545c0.93,0,1.737,0.155,2.423,0.465
		c0.685,0.31,1.212,0.75,1.582,1.32c0.37,0.569,0.555,1.245,0.555,2.024c0,0.78-0.188,1.453-0.563,2.018
		c-0.375,0.565-0.907,0.998-1.597,1.298l2.354,3.375H182.771z M182.156,50.832c-0.381-0.314-0.936-0.473-1.665-0.473h-1.98v3.66
		h1.98c0.729,0,1.284-0.16,1.665-0.479c0.38-0.32,0.569-0.771,0.569-1.351C182.726,51.6,182.536,51.147,182.156,50.832z"/>
	<path d="M194.021,56.63h-4.875l-0.93,2.25h-2.49l4.68-10.5h2.4l4.694,10.5h-2.55L194.021,56.63z M193.255,54.785l-1.664-4.021
		l-1.665,4.021H193.255z"/>
	<path d="M200.245,50.359h-3.36V48.38h9.15v1.979h-3.36v8.521h-2.43V50.359z"/>
	<path d="M207.34,48.38h2.43v10.5h-2.43V48.38z"/>
	<path d="M214.397,58.355c-0.875-0.471-1.561-1.118-2.056-1.943c-0.495-0.824-0.742-1.752-0.742-2.782s0.247-1.958,0.742-2.782
		c0.495-0.825,1.181-1.473,2.056-1.943c0.875-0.47,1.857-0.705,2.947-0.705s2.07,0.235,2.939,0.705
		c0.87,0.47,1.556,1.118,2.056,1.943c0.5,0.824,0.75,1.752,0.75,2.782s-0.25,1.958-0.75,2.782c-0.5,0.825-1.186,1.473-2.056,1.943
		c-0.869,0.47-1.85,0.705-2.939,0.705S215.272,58.825,214.397,58.355z M219.024,56.563c0.5-0.285,0.893-0.683,1.178-1.192
		c0.285-0.511,0.428-1.09,0.428-1.74c0-0.649-0.143-1.229-0.428-1.74c-0.285-0.51-0.678-0.907-1.178-1.192s-1.06-0.428-1.68-0.428
		s-1.18,0.143-1.68,0.428c-0.501,0.285-0.893,0.683-1.178,1.192c-0.285,0.511-0.428,1.091-0.428,1.74c0,0.65,0.143,1.229,0.428,1.74
		c0.285,0.51,0.677,0.907,1.178,1.192c0.5,0.285,1.06,0.428,1.68,0.428S218.524,56.848,219.024,56.563z"/>
	<path d="M234.55,48.38v10.5h-1.995l-5.235-6.375v6.375h-2.399v-10.5h2.01l5.22,6.375V48.38H234.55z"/>
	<path d="M249.355,59.061l-1.261-1.171c-1,0.78-2.17,1.171-3.51,1.171c-0.76,0-1.445-0.123-2.055-0.368
		c-0.61-0.245-1.088-0.587-1.433-1.027s-0.518-0.935-0.518-1.485c0-0.65,0.183-1.223,0.548-1.717
		c0.364-0.496,0.952-0.968,1.762-1.418c-0.38-0.391-0.654-0.763-0.824-1.117c-0.171-0.355-0.256-0.723-0.256-1.104
		c0-0.51,0.136-0.959,0.405-1.35c0.271-0.39,0.652-0.692,1.147-0.907c0.495-0.215,1.067-0.322,1.718-0.322
		c0.91,0,1.64,0.217,2.19,0.652c0.55,0.435,0.824,1.022,0.824,1.763c0,0.539-0.162,1.02-0.487,1.439s-0.848,0.825-1.567,1.215
		l1.92,1.785c0.23-0.479,0.405-1.024,0.525-1.635l1.875,0.585c-0.2,0.931-0.521,1.726-0.96,2.386l1.229,1.139L249.355,59.061z
		 M246.715,56.615l-2.535-2.37c-0.47,0.27-0.805,0.534-1.005,0.795c-0.2,0.26-0.3,0.555-0.3,0.885c0,0.39,0.17,0.705,0.51,0.945
		c0.34,0.239,0.795,0.36,1.365,0.36C245.479,57.23,246.135,57.025,246.715,56.615z M244.247,50.105
		c-0.205,0.18-0.307,0.41-0.307,0.689c0,0.21,0.055,0.408,0.165,0.592c0.109,0.186,0.324,0.434,0.645,0.743
		c0.51-0.271,0.865-0.513,1.065-0.728c0.199-0.215,0.3-0.447,0.3-0.697c0-0.26-0.09-0.471-0.271-0.631
		c-0.18-0.159-0.435-0.239-0.765-0.239C244.729,49.835,244.452,49.925,244.247,50.105z"/>
	<path d="M258.572,58.362c-0.865-0.465-1.545-1.11-2.04-1.935c-0.495-0.825-0.742-1.758-0.742-2.798s0.247-1.973,0.742-2.798
		c0.495-0.824,1.175-1.47,2.04-1.935s1.838-0.698,2.918-0.698c0.91,0,1.732,0.16,2.468,0.48c0.734,0.32,1.352,0.78,1.853,1.381
		L264.25,51.5c-0.71-0.82-1.59-1.23-2.64-1.23c-0.65,0-1.23,0.143-1.74,0.428s-0.907,0.683-1.192,1.192
		c-0.285,0.511-0.428,1.091-0.428,1.74c0,0.65,0.143,1.229,0.428,1.74c0.285,0.51,0.683,0.907,1.192,1.192s1.09,0.428,1.74,0.428
		c1.05,0,1.93-0.415,2.64-1.245l1.561,1.44c-0.501,0.609-1.12,1.074-1.86,1.395s-1.565,0.48-2.476,0.48
		C260.405,59.061,259.438,58.827,258.572,58.362z"/>
	<path d="M268.518,57.814c-0.835-0.83-1.252-2.015-1.252-3.555v-5.88h2.43v5.79c0,1.88,0.78,2.82,2.34,2.82
		c0.76,0,1.34-0.228,1.74-0.683c0.399-0.455,0.6-1.167,0.6-2.138v-5.79h2.4v5.88c0,1.54-0.418,2.725-1.253,3.555
		s-2.002,1.246-3.502,1.246S269.353,58.645,268.518,57.814z"/>
	<path d="M280.218,58.723c-0.774-0.225-1.397-0.518-1.867-0.878l0.825-1.83c0.45,0.33,0.984,0.595,1.604,0.796
		c0.62,0.199,1.24,0.299,1.86,0.299c0.69,0,1.2-0.102,1.53-0.307s0.495-0.478,0.495-0.818c0-0.25-0.098-0.457-0.293-0.622
		s-0.445-0.298-0.75-0.397s-0.718-0.21-1.237-0.33c-0.8-0.189-1.455-0.38-1.965-0.57c-0.51-0.189-0.948-0.494-1.313-0.914
		c-0.365-0.42-0.548-0.98-0.548-1.681c0-0.61,0.165-1.162,0.495-1.657s0.827-0.888,1.492-1.178s1.478-0.435,2.438-0.435
		c0.67,0,1.325,0.081,1.965,0.24c0.641,0.16,1.2,0.39,1.681,0.69l-0.75,1.845c-0.971-0.55-1.94-0.824-2.91-0.824
		c-0.681,0-1.183,0.109-1.508,0.33c-0.325,0.22-0.487,0.51-0.487,0.869c0,0.36,0.188,0.628,0.563,0.803
		c0.375,0.176,0.947,0.348,1.718,0.518c0.8,0.189,1.455,0.38,1.965,0.57c0.51,0.189,0.947,0.49,1.313,0.899
		c0.365,0.41,0.548,0.966,0.548,1.665c0,0.6-0.168,1.147-0.503,1.643s-0.838,0.888-1.508,1.178s-1.484,0.436-2.444,0.436
		C281.796,59.061,280.993,58.947,280.218,58.723z"/>
	<path d="M290.77,50.359h-3.36V48.38h9.15v1.979h-3.36v8.521h-2.43V50.359z"/>
	<path d="M299.853,58.355c-0.875-0.471-1.561-1.118-2.056-1.943c-0.495-0.824-0.742-1.752-0.742-2.782s0.247-1.958,0.742-2.782
		c0.495-0.825,1.181-1.473,2.056-1.943c0.875-0.47,1.857-0.705,2.947-0.705s2.07,0.235,2.939,0.705
		c0.87,0.47,1.556,1.118,2.056,1.943c0.5,0.824,0.75,1.752,0.75,2.782s-0.25,1.958-0.75,2.782c-0.5,0.825-1.186,1.473-2.056,1.943
		c-0.869,0.47-1.85,0.705-2.939,0.705S300.728,58.825,299.853,58.355z M304.479,56.563c0.5-0.285,0.893-0.683,1.178-1.192
		c0.285-0.511,0.428-1.09,0.428-1.74c0-0.649-0.143-1.229-0.428-1.74c-0.285-0.51-0.678-0.907-1.178-1.192s-1.06-0.428-1.68-0.428
		s-1.18,0.143-1.68,0.428c-0.501,0.285-0.893,0.683-1.178,1.192c-0.285,0.511-0.428,1.091-0.428,1.74c0,0.65,0.143,1.229,0.428,1.74
		c0.285,0.51,0.677,0.907,1.178,1.192c0.5,0.285,1.06,0.428,1.68,0.428S303.979,56.848,304.479,56.563z"/>
	<path d="M319.93,58.88l-0.015-6.3l-3.09,5.189h-1.096l-3.074-5.055v6.165h-2.28v-10.5h2.01l3.93,6.524l3.87-6.524h1.995l0.03,10.5
		H319.93z"/>
	<path d="M324.7,48.38h2.43v10.5h-2.43V48.38z"/>
	<path d="M338.125,56.9v1.979h-9.18v-1.575l5.76-6.945h-5.64V48.38h8.835v1.575l-5.745,6.945H338.125z"/>
	<path d="M346.6,56.63h-4.875l-0.93,2.25h-2.49l4.68-10.5h2.4l4.694,10.5h-2.55L346.6,56.63z M345.834,54.785l-1.664-4.021
		l-1.665,4.021H345.834z"/>
	<path d="M352.825,50.359h-3.36V48.38h9.15v1.979h-3.36v8.521h-2.43V50.359z"/>
	<path d="M359.92,48.38h2.43v10.5h-2.43V48.38z"/>
	<path d="M366.978,58.355c-0.875-0.471-1.561-1.118-2.056-1.943c-0.495-0.824-0.742-1.752-0.742-2.782s0.247-1.958,0.742-2.782
		c0.495-0.825,1.181-1.473,2.056-1.943c0.875-0.47,1.857-0.705,2.947-0.705s2.07,0.235,2.939,0.705
		c0.87,0.47,1.556,1.118,2.056,1.943c0.5,0.824,0.75,1.752,0.75,2.782s-0.25,1.958-0.75,2.782c-0.5,0.825-1.186,1.473-2.056,1.943
		c-0.869,0.47-1.85,0.705-2.939,0.705S367.853,58.825,366.978,58.355z M371.604,56.563c0.5-0.285,0.893-0.683,1.178-1.192
		c0.285-0.511,0.428-1.09,0.428-1.74c0-0.649-0.143-1.229-0.428-1.74c-0.285-0.51-0.678-0.907-1.178-1.192s-1.06-0.428-1.68-0.428
		s-1.18,0.143-1.68,0.428c-0.501,0.285-0.893,0.683-1.178,1.192c-0.285,0.511-0.428,1.091-0.428,1.74c0,0.65,0.143,1.229,0.428,1.74
		c0.285,0.51,0.677,0.907,1.178,1.192c0.5,0.285,1.06,0.428,1.68,0.428S371.104,56.848,371.604,56.563z"/>
	<path d="M387.13,48.38v10.5h-1.995l-5.235-6.375v6.375H377.5v-10.5h2.01l5.22,6.375V48.38H387.13z"/>
</g>
</svg>
