<?xml version="1.0" encoding="utf-8"?>
<!-- Generator: Adobe Illustrator 15.1.0, SVG Export Plug-In . SVG Version: 6.00 Build 0)  -->
<!DOCTYPE svg PUBLIC "-//W3C//DTD SVG 1.1//EN" "http://www.w3.org/Graphics/SVG/1.1/DTD/svg11.dtd">
<svg version="1.1" id="Layer_1" xmlns="http://www.w3.org/2000/svg" xmlns:xlink="http://www.w3.org/1999/xlink" x="0px" y="0px"
	 width="400px" height="70px" viewBox="0 0 400 70" enable-background="new 0 0 400 70" xml:space="preserve">
<g>
	<rect x="2.5" y="3" fill="none" width="395" height="48"/>
	<path fill="#3876C7" d="M22.833,39.176c-2.584,0-4.973-0.438-7.167-1.313s-4.105-2.129-5.732-3.764
		c-1.627-1.633-2.892-3.602-3.794-5.906c-0.902-2.304-1.354-4.891-1.354-7.762c0-2.611,0.458-4.987,1.374-7.126
		s2.205-3.979,3.866-5.517s3.613-2.721,5.855-3.548S20.57,3,23.223,3c2.242,0,4.16,0.373,5.752,1.118s3.004,1.747,4.235,3.004V4.989
		c0-0.52,0.188-0.896,0.564-1.128s0.817-0.349,1.323-0.349c0.451,0,0.851,0.133,1.2,0.4s0.523,0.639,0.523,1.118v7.67
		c0,0.479-0.174,0.851-0.523,1.118s-0.749,0.4-1.2,0.4c-0.465,0-0.807-0.181-1.025-0.543s-0.451-0.714-0.697-1.056
		c-0.998-1.654-2.297-3.025-3.896-4.112s-3.685-1.63-6.255-1.63c-2.707,0-5.035,0.591-6.983,1.774s-3.445,2.813-4.491,4.891
		s-1.569,4.45-1.569,7.116c0,4.498,1.131,8.039,3.394,10.623s5.479,3.876,9.649,3.876c2.898,0,5.24-0.782,7.024-2.348
		s2.929-3.647,3.435-6.245c0.109-0.492,0.369-0.858,0.779-1.097s0.848-0.359,1.313-0.359c0.533,0,1.029,0.157,1.487,0.472
		s0.687,0.772,0.687,1.374c0,2.201-0.619,4.229-1.856,6.08c-1.237,1.854-2.987,3.34-5.25,4.461S25.909,39.176,22.833,39.176z"/>
	<path fill="#3876C7" d="M54.559,39.176c-2.529,0-4.751-0.51-6.665-1.527c-1.914-1.019-3.404-2.461-4.471-4.328
		c-1.066-1.865-1.6-4.063-1.6-6.593c0-2.557,0.533-4.761,1.6-6.614s2.557-3.285,4.471-4.296s4.136-1.518,6.665-1.518
		c2.502,0,4.686,0.513,6.552,1.538s3.319,2.471,4.358,4.337s1.559,4.05,1.559,6.552s-0.52,4.687-1.559,6.552
		c-1.039,1.867-2.495,3.316-4.368,4.348C59.228,38.66,57.047,39.176,54.559,39.176z M54.559,35.689c1.695,0,3.134-0.39,4.317-1.169
		s2.082-1.846,2.697-3.199s0.923-2.885,0.923-4.594c0-1.723-0.308-3.257-0.923-4.604s-1.514-2.406-2.697-3.179
		s-2.622-1.159-4.317-1.159c-1.736,0-3.213,0.383-4.43,1.148s-2.146,1.822-2.789,3.168s-0.964,2.888-0.964,4.625
		c0,1.75,0.321,3.299,0.964,4.646s1.572,2.402,2.789,3.168S52.822,35.689,54.559,35.689z"/>
	<path fill="#3876C7" d="M77.855,39.237c-1.395,0-2.646-0.287-3.753-0.861s-1.982-1.377-2.625-2.409s-0.964-2.232-0.964-3.6
		c0-1.477,0.324-2.697,0.975-3.661c0.648-0.964,1.523-1.736,2.625-2.317c1.1-0.581,2.341-1.025,3.722-1.333s2.81-0.537,4.286-0.687
		s2.898-0.287,4.266-0.41v-3.322c0-0.725-0.215-1.292-0.646-1.702c-0.43-0.41-0.974-0.704-1.63-0.882s-1.34-0.267-2.051-0.267
		c-1.285,0-2.345,0.089-3.179,0.267s-1.597,0.451-2.287,0.82s-1.473,0.834-2.348,1.395c-0.26,0.15-0.499,0.226-0.718,0.226
		c-0.465,0-0.882-0.219-1.251-0.656s-0.554-0.896-0.554-1.374c0-0.82,0.339-1.5,1.015-2.041c0.678-0.54,1.535-0.964,2.574-1.271
		s2.112-0.526,3.22-0.656s2.085-0.195,2.933-0.195c2.324,0,4.139,0.318,5.445,0.954c1.305,0.636,2.225,1.651,2.758,3.045
		s0.8,3.24,0.8,5.537v10.336c0,0.424,0.071,0.776,0.216,1.057c0.143,0.28,0.372,0.42,0.687,0.42c0.41,0,0.861-0.185,1.354-0.554
		s0.967-0.738,1.425-1.107s0.852-0.554,1.18-0.554c0.314,0,0.636,0.202,0.964,0.605s0.492,0.796,0.492,1.179
		c0,0.547-0.205,1.06-0.615,1.538s-0.927,0.899-1.548,1.262c-0.623,0.362-1.259,0.646-1.908,0.851s-1.206,0.308-1.671,0.308
		c-2.256,0-3.623-1.107-4.102-3.322c-0.998,1.162-2.304,2.017-3.917,2.563S79.688,39.237,77.855,39.237z M79.291,35.689
		c1.436,0,2.741-0.26,3.917-0.779s2.235-1.155,3.179-1.907v-5.968c-1.08,0.123-2.28,0.25-3.6,0.379s-2.573,0.352-3.763,0.667
		s-2.171,0.8-2.942,1.456c-0.773,0.656-1.159,1.559-1.159,2.707c0,1.162,0.431,2.027,1.292,2.594
		C77.076,35.406,78.102,35.689,79.291,35.689z"/>
	<path fill="#3876C7" d="M111.16,39.217c-0.984,0-2.044-0.106-3.179-0.318s-2.194-0.519-3.179-0.922s-1.736-0.893-2.256-1.467
		c0,0.916-0.161,1.504-0.482,1.764s-0.714,0.39-1.179,0.39c-0.52,0-0.954-0.116-1.302-0.349c-0.35-0.232-0.523-0.622-0.523-1.169
		v-6.932c0.027-0.424,0.195-0.745,0.502-0.964c0.309-0.219,0.66-0.328,1.057-0.328c0.602,0,1.021,0.14,1.262,0.42
		c0.238,0.28,0.42,0.687,0.543,1.22c0.424,1.859,1.397,3.254,2.922,4.184s3.388,1.395,5.589,1.395c1.34,0,2.481-0.249,3.425-0.748
		s1.415-1.33,1.415-2.492s-0.271-2.006-0.81-2.533c-0.541-0.526-1.515-1.001-2.923-1.425l-5.578-1.743
		c-1.162-0.369-2.245-0.807-3.251-1.313c-1.004-0.506-1.814-1.148-2.43-1.928s-0.923-1.764-0.923-2.953
		c0-1.326,0.257-2.423,0.769-3.292c0.514-0.868,1.196-1.552,2.051-2.051s1.809-0.851,2.861-1.056s2.119-0.308,3.199-0.308
		c0.943,0,1.887,0.13,2.83,0.39s1.787,0.622,2.533,1.087c0.744,0.465,1.281,1.005,1.609,1.62v-1.743c0-0.424,0.15-0.762,0.451-1.015
		s0.663-0.379,1.087-0.379c1.203,0,1.805,0.533,1.805,1.6v5.927c-0.055,0.465-0.243,0.817-0.563,1.056
		c-0.322,0.239-0.722,0.359-1.2,0.359c-0.451,0-0.752-0.137-0.902-0.41s-0.294-0.663-0.431-1.169
		c-0.301-0.971-0.841-1.784-1.62-2.44s-1.668-1.155-2.666-1.497s-1.989-0.513-2.974-0.513c-1.258,0-2.358,0.243-3.302,0.728
		s-1.415,1.234-1.415,2.246c0,0.875,0.28,1.548,0.841,2.02s1.47,0.865,2.728,1.179l5.25,1.723c1.23,0.41,2.396,0.878,3.496,1.405
		s1.996,1.241,2.688,2.143c0.689,0.902,1.035,2.126,1.035,3.671c0,2.283-0.772,4.01-2.317,5.178
		C116.157,38.633,113.977,39.217,111.16,39.217z"/>
	<path fill="#3876C7" d="M132.837,39.217c-1.066,0-2.058-0.26-2.974-0.779s-1.65-1.206-2.205-2.061
		c-0.553-0.854-0.83-1.788-0.83-2.8v-14.52h-3.076c-0.574,0-0.998-0.164-1.271-0.492s-0.41-0.752-0.41-1.271
		c0-0.506,0.126-0.943,0.379-1.313s0.646-0.554,1.18-0.554h3.199c0-0.629,0.017-1.395,0.051-2.297s0.127-1.798,0.277-2.687
		s0.39-1.63,0.718-2.225s0.786-0.892,1.374-0.892c0.615,0,1.162,0.171,1.641,0.513v0.41c0,0.178,0.007,0.376,0.021,0.595
		s0.021,0.424,0.021,0.615v5.968h5.373c0.52,0,0.896,0.188,1.128,0.564s0.349,0.824,0.349,1.343c0,0.451-0.133,0.851-0.4,1.2
		c-0.266,0.349-0.639,0.523-1.117,0.523h-5.332v13.884c0,1.08,0.246,1.846,0.738,2.297s1.114,0.677,1.866,0.677
		c0.656,0,1.179-0.112,1.569-0.339c0.389-0.225,0.714-0.481,0.974-0.769s0.52-0.544,0.779-0.769c0.26-0.227,0.581-0.339,0.964-0.339
		c0.438,0,0.793,0.15,1.066,0.451s0.41,0.67,0.41,1.107c0,0.807-0.346,1.507-1.035,2.103c-0.691,0.594-1.535,1.053-2.533,1.373
		C134.73,39.056,133.767,39.217,132.837,39.217z"/>
	<path fill="#3876C7" d="M149.223,39.237c-1.395,0-2.646-0.287-3.753-0.861s-1.982-1.377-2.625-2.409s-0.964-2.232-0.964-3.6
		c0-1.477,0.324-2.697,0.975-3.661c0.648-0.964,1.523-1.736,2.625-2.317c1.1-0.581,2.341-1.025,3.722-1.333s2.81-0.537,4.286-0.687
		s2.898-0.287,4.266-0.41v-3.322c0-0.725-0.215-1.292-0.646-1.702c-0.43-0.41-0.974-0.704-1.63-0.882s-1.34-0.267-2.051-0.267
		c-1.285,0-2.345,0.089-3.179,0.267s-1.597,0.451-2.287,0.82s-1.473,0.834-2.348,1.395c-0.26,0.15-0.499,0.226-0.718,0.226
		c-0.465,0-0.882-0.219-1.251-0.656s-0.554-0.896-0.554-1.374c0-0.82,0.339-1.5,1.015-2.041c0.678-0.54,1.535-0.964,2.574-1.271
		s2.112-0.526,3.22-0.656s2.085-0.195,2.933-0.195c2.324,0,4.139,0.318,5.445,0.954c1.305,0.636,2.225,1.651,2.758,3.045
		s0.8,3.24,0.8,5.537v10.336c0,0.424,0.071,0.776,0.216,1.057c0.143,0.28,0.372,0.42,0.687,0.42c0.41,0,0.861-0.185,1.354-0.554
		s0.967-0.738,1.425-1.107s0.852-0.554,1.18-0.554c0.314,0,0.636,0.202,0.964,0.605s0.492,0.796,0.492,1.179
		c0,0.547-0.205,1.06-0.615,1.538s-0.927,0.899-1.548,1.262c-0.623,0.362-1.259,0.646-1.908,0.851s-1.206,0.308-1.671,0.308
		c-2.256,0-3.623-1.107-4.102-3.322c-0.998,1.162-2.304,2.017-3.917,2.563S151.055,39.237,149.223,39.237z M150.658,35.689
		c1.436,0,2.741-0.26,3.917-0.779s2.235-1.155,3.179-1.907v-5.968c-1.08,0.123-2.28,0.25-3.6,0.379s-2.573,0.352-3.763,0.667
		s-2.171,0.8-2.942,1.456c-0.773,0.656-1.159,1.559-1.159,2.707c0,1.162,0.431,2.027,1.292,2.594
		C148.443,35.406,149.469,35.689,150.658,35.689z"/>
	<path fill="#3876C7" d="M170.797,38.663c-0.574,0-0.998-0.164-1.271-0.492s-0.41-0.752-0.41-1.271c0-0.506,0.126-0.939,0.379-1.302
		s0.646-0.544,1.18-0.544h4.655V7.491l-4.819,1.271c-0.055,0-0.086,0.007-0.092,0.021c-0.008,0.014-0.045,0.021-0.113,0.021
		c-0.424,0-0.804-0.188-1.139-0.564s-0.502-0.776-0.502-1.2c0-0.588,0.154-0.974,0.461-1.159c0.309-0.185,0.688-0.345,1.139-0.482
		l7.896-2.276c0.082-0.027,0.178-0.041,0.287-0.041c0.287,0,0.54,0.089,0.759,0.267s0.328,0.424,0.328,0.738v30.967h5.004
		c0.52,0,0.896,0.185,1.128,0.554s0.349,0.813,0.349,1.333c0,0.451-0.133,0.851-0.4,1.2c-0.266,0.348-0.639,0.522-1.117,0.522
		H170.797z"/>
	<path fill="#3876C7" d="M216.099,39.176c-2.584,0-4.974-0.438-7.167-1.313c-2.195-0.875-4.105-2.129-5.732-3.764
		c-1.627-1.633-2.892-3.602-3.794-5.906c-0.902-2.304-1.354-4.891-1.354-7.762c0-2.611,0.458-4.987,1.374-7.126
		s2.205-3.979,3.865-5.517c1.662-1.538,3.613-2.721,5.855-3.548S213.836,3,216.488,3c2.242,0,4.159,0.373,5.752,1.118
		s3.005,1.747,4.235,3.004V4.989c0-0.52,0.188-0.896,0.563-1.128s0.817-0.349,1.323-0.349c0.451,0,0.851,0.133,1.2,0.4
		c0.348,0.267,0.522,0.639,0.522,1.118v7.67c0,0.479-0.175,0.851-0.522,1.118c-0.35,0.267-0.749,0.4-1.2,0.4
		c-0.465,0-0.807-0.181-1.025-0.543s-0.451-0.714-0.697-1.056c-0.998-1.654-2.297-3.025-3.896-4.112s-3.685-1.63-6.255-1.63
		c-2.707,0-5.035,0.591-6.982,1.774c-1.949,1.183-3.445,2.813-4.492,4.891c-1.045,2.078-1.568,4.45-1.568,7.116
		c0,4.498,1.131,8.039,3.395,10.623c2.262,2.584,5.479,3.876,9.648,3.876c2.898,0,5.24-0.782,7.023-2.348
		c1.785-1.565,2.93-3.647,3.436-6.245c0.109-0.492,0.369-0.858,0.779-1.097s0.848-0.359,1.313-0.359
		c0.533,0,1.028,0.157,1.486,0.472s0.688,0.772,0.688,1.374c0,2.201-0.619,4.229-1.855,6.08c-1.238,1.854-2.988,3.34-5.25,4.461
		C221.844,38.615,219.175,39.176,216.099,39.176z"/>
	<path fill="#3876C7" d="M236.381,38.663c-0.574,0-0.998-0.164-1.271-0.492s-0.41-0.752-0.41-1.271c0-0.506,0.126-0.939,0.379-1.302
		s0.646-0.544,1.18-0.544h4.655V7.491l-4.819,1.271c-0.055,0-0.086,0.007-0.092,0.021c-0.008,0.014-0.045,0.021-0.113,0.021
		c-0.424,0-0.804-0.188-1.139-0.564s-0.502-0.776-0.502-1.2c0-0.588,0.154-0.974,0.461-1.159c0.309-0.185,0.688-0.345,1.139-0.482
		l7.896-2.276c0.082-0.027,0.178-0.041,0.287-0.041c0.287,0,0.54,0.089,0.759,0.267s0.328,0.424,0.328,0.738v30.967h5.004
		c0.52,0,0.896,0.185,1.128,0.554s0.349,0.813,0.349,1.333c0,0.451-0.133,0.851-0.4,1.2c-0.266,0.348-0.639,0.522-1.117,0.522
		H236.381z"/>
	<path fill="#3876C7" d="M261.339,39.237c-1.395,0-2.646-0.287-3.753-0.861s-1.982-1.377-2.625-2.409s-0.964-2.232-0.964-3.6
		c0-1.477,0.324-2.697,0.974-3.661s1.524-1.736,2.625-2.317s2.342-1.025,3.723-1.333s2.81-0.537,4.286-0.687s2.898-0.287,4.266-0.41
		v-3.322c0-0.725-0.216-1.292-0.646-1.702c-0.432-0.41-0.975-0.704-1.631-0.882s-1.34-0.267-2.051-0.267
		c-1.285,0-2.345,0.089-3.179,0.267s-1.597,0.451-2.286,0.82c-0.691,0.369-1.474,0.834-2.349,1.395
		c-0.26,0.15-0.499,0.226-0.718,0.226c-0.465,0-0.882-0.219-1.251-0.656s-0.554-0.896-0.554-1.374c0-0.82,0.338-1.5,1.016-2.041
		c0.676-0.54,1.534-0.964,2.573-1.271s2.112-0.526,3.22-0.656s2.085-0.195,2.933-0.195c2.324,0,4.139,0.318,5.444,0.954
		s2.226,1.651,2.759,3.045s0.8,3.24,0.8,5.537v10.336c0,0.424,0.072,0.776,0.215,1.057c0.145,0.28,0.373,0.42,0.688,0.42
		c0.41,0,0.861-0.185,1.354-0.554s0.967-0.738,1.426-1.107c0.457-0.369,0.851-0.554,1.179-0.554c0.314,0,0.636,0.202,0.964,0.605
		s0.492,0.796,0.492,1.179c0,0.547-0.205,1.06-0.615,1.538s-0.927,0.899-1.549,1.262s-1.258,0.646-1.906,0.851
		c-0.65,0.205-1.207,0.308-1.672,0.308c-2.256,0-3.623-1.107-4.102-3.322c-0.998,1.162-2.304,2.017-3.917,2.563
		S263.171,39.237,261.339,39.237z M262.774,35.689c1.436,0,2.741-0.26,3.917-0.779s2.235-1.155,3.179-1.907v-5.968
		c-1.08,0.123-2.28,0.25-3.599,0.379c-1.32,0.13-2.574,0.352-3.764,0.667s-2.171,0.8-2.943,1.456s-1.158,1.559-1.158,2.707
		c0,1.162,0.431,2.027,1.292,2.594C260.56,35.406,261.585,35.689,262.774,35.689z"/>
	<path fill="#3876C7" d="M294.644,39.217c-0.984,0-2.044-0.106-3.179-0.318s-2.194-0.519-3.179-0.922s-1.736-0.893-2.256-1.467
		c0,0.916-0.161,1.504-0.481,1.764c-0.322,0.26-0.715,0.39-1.18,0.39c-0.52,0-0.953-0.116-1.303-0.349
		c-0.348-0.232-0.522-0.622-0.522-1.169v-6.932c0.027-0.424,0.194-0.745,0.503-0.964c0.307-0.219,0.659-0.328,1.056-0.328
		c0.602,0,1.021,0.14,1.261,0.42s0.421,0.687,0.544,1.22c0.424,1.859,1.397,3.254,2.923,4.184c1.523,0.93,3.387,1.395,5.588,1.395
		c1.34,0,2.481-0.249,3.425-0.748s1.415-1.33,1.415-2.492s-0.271-2.006-0.811-2.533c-0.54-0.526-1.514-1.001-2.922-1.425
		l-5.578-1.743c-1.162-0.369-2.246-0.807-3.25-1.313c-1.006-0.506-1.815-1.148-2.431-1.928s-0.923-1.764-0.923-2.953
		c0-1.326,0.256-2.423,0.77-3.292c0.512-0.868,1.195-1.552,2.051-2.051c0.854-0.499,1.808-0.851,2.86-1.056s2.119-0.308,3.199-0.308
		c0.943,0,1.887,0.13,2.83,0.39s1.787,0.622,2.532,1.087s1.282,1.005,1.61,1.62v-1.743c0-0.424,0.15-0.762,0.451-1.015
		s0.663-0.379,1.087-0.379c1.203,0,1.805,0.533,1.805,1.6v5.927c-0.055,0.465-0.243,0.817-0.564,1.056s-0.721,0.359-1.199,0.359
		c-0.451,0-0.752-0.137-0.902-0.41s-0.294-0.663-0.431-1.169c-0.301-0.971-0.841-1.784-1.62-2.44s-1.668-1.155-2.666-1.497
		s-1.989-0.513-2.974-0.513c-1.258,0-2.358,0.243-3.302,0.728s-1.415,1.234-1.415,2.246c0,0.875,0.28,1.548,0.841,2.02
		s1.47,0.865,2.728,1.179l5.25,1.723c1.23,0.41,2.396,0.878,3.497,1.405c1.1,0.526,1.995,1.241,2.686,2.143s1.036,2.126,1.036,3.671
		c0,2.283-0.772,4.01-2.317,5.178C299.641,38.633,297.46,39.217,294.644,39.217z"/>
	<path fill="#3876C7" d="M319.93,39.217c-0.984,0-2.044-0.106-3.179-0.318s-2.194-0.519-3.179-0.922s-1.736-0.893-2.256-1.467
		c0,0.916-0.161,1.504-0.482,1.764s-0.714,0.39-1.179,0.39c-0.52,0-0.954-0.116-1.302-0.349c-0.35-0.232-0.523-0.622-0.523-1.169
		v-6.932c0.027-0.424,0.195-0.745,0.502-0.964c0.309-0.219,0.66-0.328,1.057-0.328c0.602,0,1.021,0.14,1.262,0.42
		c0.238,0.28,0.42,0.687,0.543,1.22c0.424,1.859,1.397,3.254,2.922,4.184s3.388,1.395,5.589,1.395c1.34,0,2.481-0.249,3.425-0.748
		s1.415-1.33,1.415-2.492s-0.271-2.006-0.81-2.533c-0.541-0.526-1.515-1.001-2.923-1.425l-5.578-1.743
		c-1.162-0.369-2.245-0.807-3.251-1.313c-1.004-0.506-1.814-1.148-2.43-1.928s-0.923-1.764-0.923-2.953
		c0-1.326,0.257-2.423,0.769-3.292c0.514-0.868,1.196-1.552,2.051-2.051s1.809-0.851,2.861-1.056s2.119-0.308,3.199-0.308
		c0.943,0,1.887,0.13,2.83,0.39s1.787,0.622,2.533,1.087c0.744,0.465,1.281,1.005,1.609,1.62v-1.743c0-0.424,0.15-0.762,0.451-1.015
		s0.663-0.379,1.087-0.379c1.203,0,1.805,0.533,1.805,1.6v5.927c-0.055,0.465-0.243,0.817-0.563,1.056
		c-0.322,0.239-0.722,0.359-1.2,0.359c-0.451,0-0.752-0.137-0.902-0.41s-0.294-0.663-0.431-1.169
		c-0.301-0.971-0.841-1.784-1.62-2.44s-1.668-1.155-2.666-1.497s-1.989-0.513-2.974-0.513c-1.258,0-2.358,0.243-3.302,0.728
		s-1.415,1.234-1.415,2.246c0,0.875,0.28,1.548,0.841,2.02s1.47,0.865,2.728,1.179l5.25,1.723c1.23,0.41,2.396,0.878,3.496,1.405
		s1.996,1.241,2.688,2.143c0.689,0.902,1.035,2.126,1.035,3.671c0,2.283-0.772,4.01-2.317,5.178
		C324.927,38.633,322.746,39.217,319.93,39.217z"/>
	<path fill="#3876C7" d="M333.485,38.663c-1.121,0-1.682-0.567-1.682-1.702c0-0.506,0.126-0.939,0.38-1.303
		c0.252-0.361,0.646-0.543,1.179-0.543h2.81V18.504l-2.933,0.8c-0.082,0.027-0.178,0.041-0.287,0.041
		c-0.41,0-0.793-0.167-1.148-0.502s-0.533-0.714-0.533-1.138c0-0.943,0.39-1.518,1.169-1.723l6.563-1.641
		c0.109-0.027,0.219-0.041,0.328-0.041c0.697,0,1.046,0.321,1.046,0.964v19.852h3.158c0.52,0,0.896,0.185,1.128,0.554
		s0.349,0.813,0.349,1.333c0,0.451-0.134,0.841-0.399,1.169c-0.268,0.328-0.64,0.492-1.118,0.492H333.485z M338.12,9.398
		c-0.861,0-1.597-0.304-2.204-0.913c-0.609-0.608-0.913-1.343-0.913-2.205s0.304-1.596,0.913-2.205
		c0.607-0.608,1.343-0.913,2.204-0.913s1.593,0.304,2.194,0.913s0.902,1.343,0.902,2.205s-0.301,1.596-0.902,2.205
		S338.981,9.398,338.12,9.398z"/>
	<path fill="#3876C7" d="M360.597,39.176c-2.625,0-4.942-0.506-6.952-1.518s-3.582-2.471-4.717-4.379
		c-1.135-1.906-1.702-4.187-1.702-6.839c0-2.611,0.629-4.819,1.887-6.624s2.926-3.175,5.004-4.112s4.348-1.405,6.809-1.405
		c1.039,0,2.078,0.092,3.117,0.277s1.989,0.509,2.851,0.974s1.552,1.111,2.071,1.938s0.779,1.883,0.779,3.168
		c0,0.807-0.157,1.487-0.472,2.041s-0.82,0.831-1.518,0.831c-0.684,0-1.193-0.284-1.527-0.851c-0.336-0.567-0.585-1.258-0.749-2.071
		s-0.335-1.583-0.513-2.307c-1.313-0.342-2.611-0.513-3.896-0.513c-1.764,0-3.347,0.345-4.748,1.036s-2.509,1.682-3.322,2.974
		s-1.22,2.84-1.22,4.645c0,1.955,0.403,3.572,1.21,4.851s1.862,2.231,3.168,2.86s2.704,0.943,4.194,0.943
		c1.176,0,2.349-0.219,3.517-0.656c1.17-0.438,2.239-1.094,3.21-1.969c0.424-0.355,0.854-0.533,1.292-0.533
		c0.561,0,1.028,0.141,1.404,0.421s0.564,0.673,0.564,1.179c0,0.875-0.332,1.661-0.994,2.358c-0.664,0.697-1.508,1.292-2.533,1.784
		s-2.092,0.865-3.199,1.118C362.504,39.049,361.499,39.176,360.597,39.176z"/>
	<path fill="#3876C7" d="M386.519,39.217c-0.984,0-2.044-0.106-3.179-0.318s-2.194-0.519-3.179-0.922s-1.736-0.893-2.256-1.467
		c0,0.916-0.161,1.504-0.481,1.764c-0.322,0.26-0.715,0.39-1.18,0.39c-0.52,0-0.953-0.116-1.303-0.349
		c-0.348-0.232-0.522-0.622-0.522-1.169v-6.932c0.027-0.424,0.194-0.745,0.503-0.964c0.307-0.219,0.659-0.328,1.056-0.328
		c0.602,0,1.021,0.14,1.261,0.42s0.421,0.687,0.544,1.22c0.424,1.859,1.397,3.254,2.923,4.184c1.523,0.93,3.387,1.395,5.588,1.395
		c1.34,0,2.481-0.249,3.425-0.748s1.415-1.33,1.415-2.492s-0.271-2.006-0.811-2.533c-0.54-0.526-1.514-1.001-2.922-1.425
		l-5.578-1.743c-1.162-0.369-2.246-0.807-3.25-1.313c-1.006-0.506-1.815-1.148-2.431-1.928s-0.923-1.764-0.923-2.953
		c0-1.326,0.256-2.423,0.77-3.292c0.512-0.868,1.195-1.552,2.051-2.051c0.854-0.499,1.808-0.851,2.86-1.056s2.119-0.308,3.199-0.308
		c0.943,0,1.887,0.13,2.83,0.39s1.787,0.622,2.532,1.087s1.282,1.005,1.61,1.62v-1.743c0-0.424,0.15-0.762,0.451-1.015
		s0.663-0.379,1.087-0.379c1.203,0,1.805,0.533,1.805,1.6v5.927c-0.055,0.465-0.243,0.817-0.564,1.056s-0.721,0.359-1.199,0.359
		c-0.451,0-0.752-0.137-0.902-0.41s-0.294-0.663-0.431-1.169c-0.301-0.971-0.841-1.784-1.62-2.44s-1.668-1.155-2.666-1.497
		s-1.989-0.513-2.974-0.513c-1.258,0-2.358,0.243-3.302,0.728s-1.415,1.234-1.415,2.246c0,0.875,0.28,1.548,0.841,2.02
		s1.47,0.865,2.728,1.179l5.25,1.723c1.23,0.41,2.396,0.878,3.497,1.405c1.1,0.526,1.995,1.241,2.686,2.143s1.036,2.126,1.036,3.671
		c0,2.283-0.772,4.01-2.317,5.178C391.516,38.633,389.335,39.217,386.519,39.217z"/>
</g>
<g>
	<rect x="5.75" y="51" fill="none" width="388.5" height="17"/>
	<path d="M20.131,67.8h-3.576l-0.936-3.528H11.49L10.554,67.8h-3.6l4.248-16.801h4.705L20.131,67.8z M14.827,60.768l-1.272-5.929
		l-1.248,5.929H14.827z"/>
	<path d="M31.728,53.797v9.102c0,0.801-0.16,1.541-0.5,2.221c-0.8,1.641-2.5,2.781-4.481,2.781c-1.96,0-3.661-1.141-4.481-2.781
		c-0.34-0.68-0.52-1.42-0.52-2.221v-9.102h2.98l0.02,9.441c0,0.221,0.04,0.44,0.1,0.641c0.28,0.801,1.02,1.36,1.9,1.36
		s1.64-0.56,1.9-1.36c0.06-0.2,0.1-0.42,0.1-0.641v-9.441H31.728z"/>
	<path d="M36.746,67.8V56.338h-4v-2.541h11.122v2.541h-4.021V67.8H36.746z"/>
	<path d="M54.488,58.638v4.321c0,0.779-0.18,1.52-0.52,2.18c-0.8,1.641-2.48,2.762-4.441,2.762c-1.94,0-3.621-1.121-4.421-2.762
		c-0.34-0.66-0.52-1.4-0.52-2.18v-4.321c0-0.78,0.18-1.521,0.5-2.181c0.82-1.641,2.5-2.76,4.441-2.76c1.96,0,3.641,1.119,4.441,2.76
		C54.308,57.117,54.488,57.857,54.488,58.638z M51.407,57.678c-0.28-0.76-1-1.32-1.88-1.32c-0.86,0-1.581,0.561-1.86,1.32
		c-0.08,0.22-0.12,0.439-0.12,0.66v4.961c0,0.221,0.04,0.439,0.12,0.641c0.26,0.779,1,1.34,1.86,1.34c0.88,0,1.621-0.561,1.88-1.34
		c0.08-0.201,0.12-0.42,0.12-0.641v-4.961C51.527,58.117,51.487,57.897,51.407,57.678z"/>
	<path d="M62.607,63.439h-2.521h-0.02l-1.181-2.821V67.8h-2.8V53.797h2.8l2.461,5.762l2.42-5.742v-0.02h2.82V67.8h-2.82v-7.161
		L62.607,63.439z"/>
	<path d="M78.027,58.638v4.321c0,0.779-0.18,1.52-0.52,2.18c-0.801,1.641-2.481,2.762-4.441,2.762c-1.94,0-3.621-1.121-4.421-2.762
		c-0.34-0.66-0.52-1.4-0.52-2.18v-4.321c0-0.78,0.18-1.521,0.5-2.181c0.82-1.641,2.5-2.76,4.441-2.76c1.96,0,3.641,1.119,4.441,2.76
		C77.848,57.117,78.027,57.857,78.027,58.638z M74.947,57.678c-0.28-0.76-1.001-1.32-1.881-1.32c-0.86,0-1.58,0.561-1.86,1.32
		c-0.08,0.22-0.12,0.439-0.12,0.66v4.961c0,0.221,0.04,0.439,0.12,0.641c0.26,0.779,1,1.34,1.86,1.34c0.88,0,1.62-0.561,1.881-1.34
		c0.079-0.201,0.119-0.42,0.119-0.641v-4.961C75.066,58.117,75.026,57.897,74.947,57.678z"/>
	<path d="M82.507,67.8V56.338h-4.001v-2.541h11.122v2.541h-4.021V67.8H82.507z"/>
	<path d="M93.446,67.8h-2.801V53.797h2.801V67.8z"/>
	<path d="M105.327,53.797L101.807,67.8h-3.86l-3.501-14.003h2.961l2.48,10.803l2.48-10.803H105.327z"/>
	<path d="M115.527,67.8h-9.223V53.797h9.223v2.781h-6.441v2.74h3.921v2.78h-3.921v2.921h6.441V67.8z"/>
	<path d="M133.59,62.808c0,2.544,0,4.992,0,4.992h-3.432c0,0,0-2.304,0-3.912c0-0.673-0.192-1.272-0.48-1.729
		c-0.432-0.624-1.08-1.008-1.824-1.008c-1.296,0-3.288,0-3.288,0V67.8h-3.36V50.926c0,0,5.521,0,7.944,0
		c0.912,0,1.753,0.289,2.473,0.768c1.176,0.815,1.968,2.208,1.968,3.841c0,2.615-2.184,3.912-2.184,3.912s0.504,0.191,1.032,0.695
		C133.015,60.646,133.59,61.512,133.59,62.808z M129.006,54.406c-0.216-0.096-0.48-0.144-0.768-0.144c-1.801,0-3.528,0-3.528,0
		v3.648h3.528c0.384,0,0.72-0.12,0.983-0.288C130.302,56.879,130.254,54.959,129.006,54.406z"/>
	<path d="M144.644,67.8h-9.223V53.797h9.223v2.781h-6.441v2.74h3.921v2.78h-3.921v2.921h6.441V67.8z"/>
	<path d="M156.084,64.039c0,0.721-0.279,1.6-0.939,2.36c-0.78,0.841-2.041,1.501-3.981,1.501c-1.58,0-2.94-0.541-3.9-1.381
		c-0.94-0.84-1.501-1.961-1.501-3.141h3.461c0,0.561,0.181,1,0.46,1.34c0.841,0.92,2.501,0.94,3.161,0.141
		c0.16-0.2,0.26-0.44,0.26-0.74c0-2.221-7.081-1.2-7.081-6.481c0-0.36,0.2-1.24,0.8-2.081c0.681-0.959,1.9-1.859,3.961-1.859
		s3.2,0.8,3.82,1.74c0.921,1.4,0.7,3.141,0.7,3.141h-2.76c0-0.58-0.181-1.041-0.48-1.36c-0.72-0.82-2.12-0.82-2.761-0.16
		c-0.2,0.22-0.32,0.479-0.32,0.82C148.982,60.678,156.084,59.197,156.084,64.039z"/>
	<path d="M160.223,67.8V56.338h-4.001v-2.541h11.122v2.541h-4.021V67.8H160.223z"/>
	<path d="M177.964,58.638v4.321c0,0.779-0.18,1.52-0.52,2.18c-0.801,1.641-2.481,2.762-4.441,2.762c-1.94,0-3.621-1.121-4.421-2.762
		c-0.34-0.66-0.521-1.4-0.521-2.18v-4.321c0-0.78,0.181-1.521,0.5-2.181c0.82-1.641,2.501-2.76,4.441-2.76
		c1.96,0,3.641,1.119,4.441,2.76C177.784,57.117,177.964,57.857,177.964,58.638z M174.884,57.678c-0.28-0.76-1.001-1.32-1.881-1.32
		c-0.86,0-1.58,0.561-1.86,1.32c-0.08,0.22-0.12,0.439-0.12,0.66v4.961c0,0.221,0.04,0.439,0.12,0.641c0.26,0.779,1,1.34,1.86,1.34
		c0.88,0,1.62-0.561,1.881-1.34c0.079-0.201,0.119-0.42,0.119-0.641v-4.961C175.003,58.117,174.963,57.897,174.884,57.678z"/>
	<path d="M189.884,63.639c0,2.121,0,4.161,0,4.161h-2.86c0,0,0-1.921,0-3.261c0-0.561-0.16-1.061-0.4-1.44
		c-0.359-0.521-0.899-0.84-1.52-0.84c-1.081,0-2.741,0-2.741,0V67.8h-2.801V53.736c0,0,4.602,0,6.622,0
		c0.76,0,1.46,0.24,2.061,0.641c0.979,0.68,1.64,1.84,1.64,3.201c0,2.18-1.82,3.26-1.82,3.26s0.42,0.16,0.86,0.58
		C189.404,61.838,189.884,62.559,189.884,63.639z M186.063,56.637c-0.181-0.079-0.4-0.119-0.641-0.119c-1.5,0-2.94,0-2.94,0v3.041
		h2.94c0.32,0,0.601-0.101,0.82-0.24C187.144,58.697,187.104,57.098,186.063,56.637z"/>
	<path d="M201.823,67.8h-2.98l-0.78-2.94h-3.44l-0.78,2.94h-3l3.54-14.003h3.921L201.823,67.8z M197.402,61.938l-1.06-4.94
		l-1.04,4.94H197.402z"/>
	<path d="M204.923,67.8V56.338h-4.001v-2.541h11.122v2.541h-4.021V67.8H204.923z"/>
	<path d="M215.862,67.8h-2.801V53.797h2.801V67.8z"/>
	<path d="M227.363,58.638v4.321c0,0.779-0.18,1.52-0.52,2.18c-0.801,1.641-2.481,2.762-4.441,2.762c-1.94,0-3.621-1.121-4.421-2.762
		c-0.34-0.66-0.521-1.4-0.521-2.18v-4.321c0-0.78,0.181-1.521,0.5-2.181c0.82-1.641,2.501-2.76,4.441-2.76
		c1.96,0,3.641,1.119,4.441,2.76C227.184,57.117,227.363,57.857,227.363,58.638z M224.283,57.678c-0.28-0.76-1.001-1.32-1.881-1.32
		c-0.86,0-1.58,0.561-1.86,1.32c-0.08,0.22-0.12,0.439-0.12,0.66v4.961c0,0.221,0.04,0.439,0.12,0.641c0.26,0.779,1,1.34,1.86,1.34
		c0.88,0,1.62-0.561,1.881-1.34c0.079-0.201,0.119-0.42,0.119-0.641v-4.961C224.402,58.117,224.362,57.897,224.283,57.678z"/>
	<path d="M238.943,53.797V67.8h-2.801l-4.381-8.542V67.8h-2.801V53.797h2.801l4.381,8.542v-8.542H238.943z"/>
	<path d="M256.304,67.699h-2.761l-1.12-1.26c-0.24,0.18-0.561,0.381-0.921,0.6c-0.74,0.381-1.7,0.761-2.761,0.761
		c-2.24,0-4.261-1.761-4.261-4.401s2.421-3.881,2.421-3.881c-0.48-0.6-0.98-1.46-0.98-2.5c0-1.061,0.44-1.94,1.12-2.521
		c0.54-0.44,1.24-0.7,2.001-0.7c1.5,0,3.141,1.08,3.141,3.24c0,1.301-0.74,2.141-1.32,2.621c-0.4,0.3-0.721,0.439-0.721,0.439
		l2.381,3.021c0.68-0.98,1.021-2.201,1.021-2.201l2.08,0.84c-0.46,1.621-1.681,3.021-1.681,3.021L256.304,67.699z M251.063,64.699
		l-2.901-3.521c0,0-0.34,0.181-0.7,0.521c-0.42,0.399-0.899,1.039-0.899,1.84c0,1.48,1.4,2.12,2.16,2.12c0.54,0,1.04-0.18,1.44-0.38
		C250.702,64.999,251.063,64.699,251.063,64.699z M248.002,56.918c0,0.619,0.779,1.5,0.779,1.5s0.44-0.16,0.82-0.461
		c0.261-0.219,0.48-0.5,0.48-0.859c0-0.84-0.521-1.16-1-1.16c-0.261,0-0.54,0.1-0.761,0.3
		C248.142,56.397,248.002,56.617,248.002,56.918z"/>
	<path d="M271.178,63.863l1.56,0.744c-0.96,1.969-2.976,3.313-5.328,3.313c-2.328,0-4.345-1.344-5.328-3.313
		c-0.385-0.792-0.601-1.68-0.601-2.616v-5.185c0-0.936,0.216-1.824,0.601-2.616c0.983-1.968,3-3.312,5.328-3.312
		c2.353,0,4.368,1.344,5.328,3.312l-1.56,0.744l-1.513,0.72c-0.336-0.912-1.224-1.584-2.256-1.584s-1.896,0.672-2.232,1.584
		c-0.096,0.265-0.144,0.528-0.144,0.793v5.952c0,0.265,0.048,0.528,0.12,0.769c0.336,0.936,1.224,1.607,2.256,1.607
		c1.056,0,1.944-0.672,2.256-1.607L271.178,63.863z"/>
	<path d="M284.311,53.797v9.102c0,0.801-0.16,1.541-0.5,2.221c-0.8,1.641-2.501,2.781-4.481,2.781c-1.96,0-3.66-1.141-4.48-2.781
		c-0.34-0.68-0.521-1.42-0.521-2.221v-9.102h2.981l0.02,9.441c0,0.221,0.04,0.44,0.1,0.641c0.28,0.801,1.021,1.36,1.9,1.36
		c0.881,0,1.641-0.56,1.9-1.36c0.061-0.2,0.101-0.42,0.101-0.641v-9.441H284.311z"/>
	<path d="M295.95,64.039c0,0.721-0.279,1.6-0.939,2.36c-0.78,0.841-2.041,1.501-3.981,1.501c-1.58,0-2.94-0.541-3.9-1.381
		c-0.94-0.84-1.501-1.961-1.501-3.141h3.461c0,0.561,0.181,1,0.46,1.34c0.841,0.92,2.501,0.94,3.161,0.141
		c0.16-0.2,0.26-0.44,0.26-0.74c0-2.221-7.081-1.2-7.081-6.481c0-0.36,0.2-1.24,0.8-2.081c0.681-0.959,1.9-1.859,3.961-1.859
		s3.2,0.8,3.82,1.74c0.921,1.4,0.7,3.141,0.7,3.141h-2.76c0-0.58-0.181-1.041-0.48-1.36c-0.72-0.82-2.12-0.82-2.761-0.16
		c-0.2,0.22-0.32,0.479-0.32,0.82C288.849,60.678,295.95,59.197,295.95,64.039z"/>
	<path d="M300.089,67.8V56.338h-4.001v-2.541h11.122v2.541h-4.021V67.8H300.089z"/>
	<path d="M317.83,58.638v4.321c0,0.779-0.18,1.52-0.52,2.18c-0.801,1.641-2.481,2.762-4.441,2.762c-1.94,0-3.621-1.121-4.421-2.762
		c-0.34-0.66-0.521-1.4-0.521-2.18v-4.321c0-0.78,0.181-1.521,0.5-2.181c0.82-1.641,2.501-2.76,4.441-2.76
		c1.96,0,3.641,1.119,4.441,2.76C317.65,57.117,317.83,57.857,317.83,58.638z M314.75,57.678c-0.28-0.76-1.001-1.32-1.881-1.32
		c-0.86,0-1.58,0.561-1.86,1.32c-0.08,0.22-0.12,0.439-0.12,0.66v4.961c0,0.221,0.04,0.439,0.12,0.641c0.26,0.779,1,1.34,1.86,1.34
		c0.88,0,1.62-0.561,1.881-1.34c0.079-0.201,0.119-0.42,0.119-0.641v-4.961C314.869,58.117,314.829,57.897,314.75,57.678z"/>
	<path d="M325.949,63.439h-2.521h-0.02l-1.181-2.821V67.8h-2.801V53.797h2.801l2.461,5.762l2.42-5.742v-0.02h2.821V67.8h-2.821
		v-7.161L325.949,63.439z"/>
	<path d="M334.269,67.8h-2.801V53.797h2.801V67.8z"/>
	<path d="M344.35,56.457l-5.562,8.702h5.562v2.661h-8.482v-2.661l5.741-8.821h-5.741v-2.521h8.482V56.457z"/>
	<path d="M356.029,67.8h-2.98l-0.78-2.94h-3.44l-0.78,2.94h-3l3.54-14.003h3.921L356.029,67.8z M351.608,61.938l-1.06-4.94
		l-1.04,4.94H351.608z"/>
	<path d="M359.128,67.8V56.338h-4.001v-2.541h11.122v2.541h-4.021V67.8H359.128z"/>
	<path d="M370.067,67.8h-2.801V53.797h2.801V67.8z"/>
	<path d="M381.568,58.638v4.321c0,0.779-0.18,1.52-0.52,2.18c-0.801,1.641-2.481,2.762-4.441,2.762c-1.94,0-3.621-1.121-4.421-2.762
		c-0.34-0.66-0.521-1.4-0.521-2.18v-4.321c0-0.78,0.181-1.521,0.5-2.181c0.82-1.641,2.501-2.76,4.441-2.76
		c1.96,0,3.641,1.119,4.441,2.76C381.389,57.117,381.568,57.857,381.568,58.638z M378.488,57.678c-0.28-0.76-1.001-1.32-1.881-1.32
		c-0.86,0-1.58,0.561-1.86,1.32c-0.08,0.22-0.12,0.439-0.12,0.66v4.961c0,0.221,0.04,0.439,0.12,0.641c0.26,0.779,1,1.34,1.86,1.34
		c0.88,0,1.62-0.561,1.881-1.34c0.079-0.201,0.119-0.42,0.119-0.641v-4.961C378.607,58.117,378.567,57.897,378.488,57.678z"/>
	<path d="M393.148,53.797V67.8h-2.801l-4.381-8.542V67.8h-2.801V53.797h2.801l4.381,8.542v-8.542H393.148z"/>
</g>
</svg>
