<?xml version="1.0" encoding="utf-8"?>
<!-- Generator: Adobe Illustrator 15.1.0, SVG Export Plug-In . SVG Version: 6.00 Build 0)  -->
<!DOCTYPE svg PUBLIC "-//W3C//DTD SVG 1.1//EN" "http://www.w3.org/Graphics/SVG/1.1/DTD/svg11.dtd">
<svg version="1.1" id="Layer_1" xmlns="http://www.w3.org/2000/svg" xmlns:xlink="http://www.w3.org/1999/xlink" x="0px" y="0px"
	 width="100px" height="100px" viewBox="0 0 100 100" enable-background="new 0 0 100 100" xml:space="preserve">
<path fill="#009800" d="M54.156,70.135c0.479,1.663,1.907,5.933,5.763,10.404c2.07,2.439,3.787,3.551,5.289,4.11
	c-0.476-0.105-0.951-0.212-1.422-0.318c-0.511-0.118-1.017-0.231-1.517-0.367c-4.085-0.998-7.907-2.457-10.536-3.61
	c-0.609-0.282-1.172-0.545-1.708-0.795c0.518-1.167,0.813-3.438-0.882-6.687c-2.409-4.699-4.716-6.262-8.686-10.57
	c-0.221-0.241-0.575-0.205-0.61,0.067c-0.178,1.466-0.44,5.381,1.299,10.228c0.383,1.108,0.802,2.002,1.238,2.739
	c-0.385-0.242-0.758-0.486-1.119-0.739c-0.737-0.504-1.449-1.002-2.145-1.496c-0.689-0.504-1.347-1.029-2-1.551
	c-0.342-0.273-0.577-0.509-0.96-0.82c-0.543-0.454-1.076-0.929-1.617-1.402c-0.43-0.382-0.871-0.763-1.299-1.156
	c0.876-0.688,2.026-2.309,1.655-5.398c-0.506-4.402-2.076-6.389-4.292-11.163c-0.112-0.242-0.42-0.332-0.531-0.15
	c-0.63,1.034-2.187,3.982-2.262,8.354c-0.033,1.223,0.081,2.205,0.286,3.02c-2.178-2.532-4.195-5.254-6.051-8.155
	c0.361-0.082,2.874-1.03,2.899-5.08c0.076-4.179-1.172-6.281-2.709-11.303c-0.07-0.238-0.335-0.373-0.453-0.231
	c-0.706,0.849-2.548,3.419-3.128,7.612c-0.163,1.103-0.176,2.018-0.094,2.796c-1.391-2.856-2.604-5.73-3.644-8.752
	c-0.037-0.109-0.074-0.219-0.11-0.327c0.05,0.105,0.102,0.213,0.15,0.325c0.012,0.004,2.612-0.147,3.167-3.944
	c0.59-3.696-0.253-5.805-0.965-10.743c-0.026-0.191-0.199-0.334-0.299-0.247c-0.669,0.595-2.645,2.627-3.689,6.375
	c-0.127,0.44-0.221,0.85-0.289,1.232c-0.398-1.844-0.729-3.76-0.966-5.78c-0.115-0.395-0.261-1.511-0.385-2.86
	c-0.096-1.259-0.145-2.715-0.18-3.951c0.687-0.382,2.043-1.547,2.501-5.144c0.653-4.666,0-7.193-0.11-13.381
	c-0.002-0.227-0.138-0.355-0.233-0.221c-0.674,0.935-2.759,4.124-3.889,8.982c-1.291,5.822,0.258,6.614,1.363,9.845
	c0.005,0.236,0.011,0.471,0.015,0.704c0.019,0.731,0.044,1.45,0.076,2.159c0.023,0.706,0.097,1.415,0.159,2.11
	c0.01,0.099,0.017,0.195,0.027,0.292c-0.232-0.641-0.536-1.334-0.934-2.081c-2.016-3.82-3.457-4.79-6.313-7.774
	c-0.111-0.116-0.229,0-0.205,0.202c0.157,1.376,0.795,5.491,2.704,9.521c2.34,4.841,3.315,3.672,5.341,4.669
	c0.072,0.434,0.149,0.868,0.227,1.299c0.113,0.669,0.26,1.342,0.412,2.012c0.083,0.372,0.166,0.746,0.253,1.119
	c0.037,1.064,0.31,1.876,0.683,2.652c0.071,0.249,0.14,0.489,0.207,0.719c0.209,0.722,0.403,1.363,0.598,1.989
	c0.185,0.579,0.532,1.418,0.596,1.818c-0.087-0.035-0.435-1.21-0.564-1.45c0.191,0.59,0.389,1.172,0.594,1.749
	c-0.4-0.568-0.87-1.159-1.422-1.767c-3.505-3.904-5.544-4.55-9.808-7.047c-0.204-0.123-0.351,0.119-0.25,0.416
	c0.59,1.759,2.44,6.471,5.849,10.64c4.315,5.172,5.183,3.223,8.034,3.662c0,0,0-0.006,0-0.018c1.714,3.698,3.704,7.129,5.935,10.332
	c-0.845-0.853-1.931-1.727-3.346-2.5c-4.331-2.39-6.316-2.084-10.825-2.49c-0.228-0.021-0.286,0.299-0.097,0.55
	c1.079,1.448,4.159,5.169,8.502,7.876c5.506,3.368,5.658,1.051,8.323,0.284c0.007,0.009-0.092-0.26-0.318-0.692
	c1.295,1.657,2.666,3.251,4.111,4.78c0.288,0.336,0.6,0.647,0.929,0.963c0.544,0.554,1.101,1.102,1.667,1.64
	c0.124,0.132,0.25,0.268,0.378,0.413c-0.003-0.001,0.012-0.007,0.038-0.021c0.64,0.596,1.29,1.182,1.957,1.757
	c0.256,0.226,0.519,0.455,0.787,0.685c-0.917-0.372-1.973-0.663-3.174-0.788c-4.601-0.489-6.146,0.741-10.15,2.404
	c-0.208,0.086-0.137,0.434,0.123,0.599c1.464,0.938,5.481,3.226,10.284,4.09c5.855,1.011,5.352-1.19,7.05-3.058
	c0.112,0.081,0.223,0.161,0.335,0.239c0.566,0.4,1.104,0.771,1.594,1.094c0.729,0.463,1.537,0.972,2.359,1.481
	c1.668,1.665,3.392,1.954,5.783,3.335c-0.006,0.001,0.036-0.051,0.106-0.149c0.652,0.316,1.297,0.618,1.935,0.909
	c1.086,0.469,2.156,0.896,3.228,1.31c0.25,0.093,0.496,0.181,0.745,0.271c-1.214-0.179-2.595-0.19-4.091,0.175
	c-4.452,1.059-5.431,2.841-8.683,5.813c-0.168,0.149,0.013,0.478,0.313,0.558c1.697,0.456,6.302,1.453,11.223,0.755
	c6.229-0.94,4.555-3.134,5.634-5.779c0.005,0.001-0.116-0.076-0.338-0.195c0.604,0.179,1.222,0.353,1.851,0.518
	c1.205,0.348,2.631,0.663,3.971,0.948c1.339,0.301,2.59,0.485,3.419,0.615c0.621,0.094,1.466,0.228,2.225,0.313
	c0.756,0.081,1.428,0.142,1.698,0.161c0.168,0.013,0.18-0.029,0.589,0.007c0.498,0.043,1.005,0.094,1.514,0.142
	c0.138,0.014,0.276,0.021,0.413,0.03c-1.003,0.313-2.021,0.777-3.004,1.467c-4.34,2.958-4.529,5.421-6.758,10.067
	c-0.137,0.275,0.272,0.636,0.708,0.613c2.22-0.113,7.887-0.702,13.107-3.434c6.524-3.512,3.622-5.423,3.193-8.761
	c0.757-0.038,1.506-0.082,2.235-0.149c0.62-0.081,0.788-0.17,1.414-0.259c0.755-0.062,1.401-0.146,2.018-0.267
	c0.618-0.126,1.219-0.261,1.916-0.392c0.438-0.084,0.886-0.161,1.346-0.239c0.457-0.08,0.93-0.149,1.398-0.252
	c0.945-0.194,1.94-0.412,2.991-0.706c0.362-0.146-0.717,0.063-0.762-0.018c0.715-0.22,1.409-0.443,1.586-0.597
	c-0.908,0.208-1.461,0.276-2.201,0.409c-0.564,0.146-1.082,0.265-1.566,0.364c-0.485,0.102-0.94,0.185-1.398,0.24
	c-0.906,0.126-1.77,0.223-2.749,0.354c-0.404,0.053-1.04,0.181-1.441,0.213c-0.491,0.04-0.97,0.047-1.473,0.089
	c-0.792,0.07-1.518,0.128-2.192,0.176c-0.168,0.013-0.333,0.025-0.496,0.036c-0.163,0.01-0.325,0.015-0.482,0.021
	c-0.314,0.014-0.62,0.025-0.914,0.037c-0.862,0.03-1.757,0.063-2.66,0.085c-0.908,0.012-1.829-0.009-2.726-0.029
	c-1.506-0.021-3.154-0.188-4.492-0.306c-0.034-0.002-0.071-0.003-0.107-0.007c0.136-0.302,0.475-3.911-4.258-7.96
	c-4.543-4.075-7.354-4.853-12.789-7.851C54.385,69.621,54.065,69.816,54.156,70.135z M71.569,85.603
	c-0.219-0.01-0.446-0.012-0.671-0.035c-0.45-0.047-0.724-0.12-1.153-0.175c-0.157-0.022-0.317-0.04-0.48-0.058
	C69.961,85.394,70.713,85.468,71.569,85.603z"/>
</svg>
