<?xml version="1.0" encoding="utf-8"?>
<!-- Generator: Adobe Illustrator 15.1.0, SVG Export Plug-In . SVG Version: 6.00 Build 0)  -->
<!DOCTYPE svg PUBLIC "-//W3C//DTD SVG 1.1//EN" "http://www.w3.org/Graphics/SVG/1.1/DTD/svg11.dtd">
<svg version="1.1" id="Layer_1" xmlns="http://www.w3.org/2000/svg" xmlns:xlink="http://www.w3.org/1999/xlink" x="0px" y="0px"
	 width="100px" height="4px" viewBox="0 0 100 4" enable-background="new 0 0 100 4" xml:space="preserve">
<g>
	<g>
		<path fill="#F8BC00" d="M0.5,2c0.011,0.643,0.471,1.322,1.355,1.214C2.871,3.098,3.476,2.233,5.652,2
			C3.476,1.767,2.871,0.902,1.855,0.784C0.971,0.682,0.511,1.355,0.5,2z"/>
		<path fill="#F8BC00" d="M8.518,2.483C8.881,2.109,9.691,2.137,9.691,2c0-0.135-0.811-0.107-1.174-0.483
			C8.128,1.114,8.125,0.802,8.001,0.802c-0.124,0-0.127,0.312-0.517,0.715C7.122,1.894,6.309,1.866,6.309,2
			c0,0.136,0.813,0.108,1.175,0.482c0.39,0.404,0.393,0.714,0.517,0.714C8.125,3.197,8.128,2.887,8.518,2.483z"/>
		<circle fill="#F8BC00" cx="10.135" cy="2" r="0.445"/>
		<circle fill="#F8BC00" cx="5.863" cy="2" r="0.445"/>
		<rect x="10.445" y="1.828" fill="#F8BC00" width="26.543" height="0.342"/>
	</g>
	<g>
		<g>
			<path fill="#F8BC00" d="M36.535,2c0.012,0.643,0.471,1.322,1.355,1.214C38.907,3.098,39.512,2.233,41.688,2
				c-2.176-0.233-2.78-1.098-3.797-1.216C37.006,0.682,36.547,1.355,36.535,2z"/>
			<path fill="#F8BC00" d="M44.553,2.483C44.916,2.107,45.727,2.137,45.727,2c0-0.137-0.812-0.109-1.174-0.483
				c-0.39-0.403-0.393-0.715-0.516-0.715c-0.125,0-0.128,0.312-0.518,0.715C43.157,1.892,42.344,1.864,42.344,2
				c0,0.136,0.813,0.106,1.175,0.482c0.39,0.404,0.393,0.714,0.518,0.714C44.16,3.197,44.163,2.887,44.553,2.483z"/>
			<circle fill="#F8BC00" cx="46.17" cy="2" r="0.445"/>
			<circle fill="#F8BC00" cx="41.898" cy="2" r="0.445"/>
		</g>
		<g>
			<path fill="#F8BC00" d="M63.464,2c-0.011,0.643-0.47,1.322-1.354,1.214C61.095,3.098,60.488,2.233,58.313,2
				c2.176-0.233,2.782-1.098,3.797-1.216C62.994,0.682,63.453,1.355,63.464,2z"/>
			<path fill="#F8BC00" d="M55.445,2.483C55.083,2.107,54.273,2.137,54.273,2c0-0.137,0.81-0.109,1.172-0.483
				c0.391-0.403,0.395-0.715,0.52-0.715c0.122,0,0.127,0.312,0.516,0.715C56.843,1.892,57.655,1.864,57.655,2
				c0,0.136-0.813,0.106-1.175,0.482c-0.389,0.404-0.394,0.714-0.516,0.714C55.84,3.197,55.836,2.887,55.445,2.483z"/>
			<circle fill="#F8BC00" cx="53.829" cy="2" r="0.445"/>
			<circle fill="#F8BC00" cx="58.101" cy="2" r="0.445"/>
		</g>
		<path fill="#F8BC00" d="M50,0.74C48.718,0.771,47.755,1.685,46.505,2C47.755,2.313,48.718,3.23,50,3.26
			C51.281,3.23,52.244,2.313,53.495,2C52.244,1.685,51.281,0.771,50,0.74z"/>
	</g>
	<g>
		<path fill="#F8BC00" d="M99.5,2c-0.011,0.643-0.471,1.322-1.354,1.214C97.128,3.098,96.523,2.233,94.349,2
			c2.175-0.233,2.779-1.098,3.797-1.216C99.029,0.682,99.489,1.355,99.5,2z"/>
		<path fill="#F8BC00" d="M91.481,2.483C91.118,2.109,90.309,2.137,90.309,2c0-0.135,0.81-0.107,1.173-0.483
			c0.39-0.403,0.395-0.715,0.517-0.715c0.125,0,0.129,0.312,0.518,0.715C92.879,1.894,93.69,1.866,93.69,2
			c0,0.136-0.812,0.108-1.175,0.482c-0.389,0.404-0.393,0.714-0.518,0.714C91.876,3.197,91.871,2.887,91.481,2.483z"/>
		<circle fill="#F8BC00" cx="89.863" cy="2" r="0.445"/>
		<circle fill="#F8BC00" cx="94.137" cy="2" r="0.445"/>
		<rect x="63.012" y="1.828" fill="#F8BC00" width="26.544" height="0.342"/>
	</g>
</g>
</svg>
