<?xml version="1.0" encoding="utf-8"?>
<!-- Generator: Adobe Illustrator 15.1.0, SVG Export Plug-In . SVG Version: 6.00 Build 0)  -->
<!DOCTYPE svg PUBLIC "-//W3C//DTD SVG 1.1//EN" "http://www.w3.org/Graphics/SVG/1.1/DTD/svg11.dtd">
<svg version="1.1" id="Layer_1" xmlns="http://www.w3.org/2000/svg" xmlns:xlink="http://www.w3.org/1999/xlink" x="0px" y="0px"
	 width="100px" height="75px" viewBox="0 0 100 75" enable-background="new 0 0 100 75" xml:space="preserve">
<path fill="none" stroke="#3876C7" stroke-width="2" stroke-miterlimit="10" d="M10,15.5c0,0,10-5,20-5c20,0,20,10,40,10
	c10,0,20-5,20-5"/>
<path fill="none" stroke="#3876C7" stroke-width="2" stroke-miterlimit="10" d="M10,59.5c0,0,10-5,20-5c20,0,20,10,40,10
	c10,0,20-5,20-5"/>
<g>
	<rect x="7.5" y="27.833" fill="none" width="85" height="19.333"/>
	<path fill="#3876C7" d="M29.89,28.925v18.2h-1.846v-14.56l-7.15,12.246h-0.91l-7.15-12.167v14.482h-1.846v-18.2h1.586l7.904,13.494
		l7.826-13.494H29.89z"/>
	<path fill="#3876C7" d="M48.687,45.461v1.664h-12.87v-18.2h12.48v1.664H37.741v6.474h9.412v1.638h-9.412v6.76H48.687z"/>
	<path fill="#3876C7" d="M68.421,28.925v18.2h-1.586l-11.7-14.768v14.768h-1.924v-18.2h1.586l11.726,14.769V28.925H68.421z"/>
	<path fill="#3876C7" d="M76.169,45.253c-1.317-1.353-1.977-3.319-1.977-5.901V28.925h1.925v10.349c0,2.114,0.477,3.691,1.43,4.731
		s2.331,1.56,4.134,1.56c1.82,0,3.207-0.52,4.16-1.56s1.43-2.617,1.43-4.731V28.925h1.872v10.427c0,2.582-0.654,4.549-1.963,5.901
		s-3.142,2.028-5.499,2.028S77.485,46.605,76.169,45.253z"/>
</g>
</svg>
