<?xml version="1.0" encoding="utf-8"?>
<!-- Generator: Adobe Illustrator 15.1.0, SVG Export Plug-In . SVG Version: 6.00 Build 0)  -->
<!DOCTYPE svg PUBLIC "-//W3C//DTD SVG 1.1//EN" "http://www.w3.org/Graphics/SVG/1.1/DTD/svg11.dtd">
<svg version="1.1" id="Layer_1" xmlns="http://www.w3.org/2000/svg" xmlns:xlink="http://www.w3.org/1999/xlink" x="0px" y="0px"
	 width="100px" height="75px" viewBox="0 0 100 75" enable-background="new 0 0 100 75" xml:space="preserve">
<g>
	<path fill="#3876C7" d="M94.743,0.901H99.5c-1.296,8.139-4.467,14.182-9.514,18.127c-5.046,3.952-10.968,5.919-17.76,5.919
		c-3.171,0-6.811-0.535-10.92-1.605c-4.108-1.082-10.482-3.485-19.118-7.234c-8.641-3.749-15.288-5.621-19.948-5.621
		c-4.271,0-8.007,1.186-11.21,3.562c-3.203,2.369-5.257,5.853-6.163,10.453H0.5c1.23-8.092,4.368-14.139,9.414-18.133
		c5.047-3.998,10.741-5.994,17.083-5.994c3.234,0,7.183,0.598,11.841,1.794c3.495,0.905,10.289,3.447,20.382,7.647
		c7.636,3.094,13.847,4.643,18.633,4.643c4.21,0,7.638-1,10.291-2.998C91.64,8.867,93.84,5.344,94.743,0.901z"/>
	<path fill="#3876C7" d="M94.743,25.735H99.5c-1.296,8.143-4.467,14.184-9.514,18.131c-5.046,3.949-10.968,5.919-17.76,5.919
		c-3.171,0-6.811-0.534-10.92-1.606c-4.108-1.078-10.482-3.483-19.118-7.232c-8.641-3.75-15.288-5.619-19.948-5.619
		c-4.271,0-8.007,1.183-11.21,3.561c-3.203,2.368-5.257,5.854-6.163,10.451H0.5c1.23-8.09,4.368-14.141,9.414-18.13
		c5.047-3.998,10.741-5.997,17.083-5.997c3.234,0,7.183,0.596,11.841,1.793c3.495,0.905,10.289,3.449,20.382,7.648
		c7.636,3.094,13.847,4.641,18.633,4.641c4.21,0,7.638-0.996,10.291-2.995C91.64,33.706,93.84,30.183,94.743,25.735z"/>
	<path fill="#3876C7" d="M94.743,50.571H99.5c-1.296,8.146-4.467,14.188-9.514,18.132c-5.046,3.944-10.968,5.922-17.76,5.922
		c-3.171,0-6.811-0.536-10.92-1.614c-4.108-1.073-10.482-3.48-19.118-7.228c-8.641-3.748-15.288-5.616-19.948-5.616
		c-4.271,0-8.007,1.184-11.21,3.558c-3.203,2.368-5.257,5.854-6.163,10.446H0.5c1.23-8.085,4.368-14.135,9.414-18.128
		c5.047-3.992,10.741-5.994,17.083-5.994c3.234,0,7.183,0.595,11.841,1.796c3.495,0.901,10.289,3.449,20.382,7.646
		c7.636,3.096,13.847,4.641,18.633,4.641c4.21,0,7.638-0.994,10.291-2.992C91.64,58.542,93.84,55.021,94.743,50.571z"/>
</g>
</svg>
