<?xml version="1.0" encoding="utf-8"?>
<!-- Generator: Adobe Illustrator 15.1.0, SVG Export Plug-In . SVG Version: 6.00 Build 0)  -->
<!DOCTYPE svg PUBLIC "-//W3C//DTD SVG 1.1//EN" "http://www.w3.org/Graphics/SVG/1.1/DTD/svg11.dtd">
<svg version="1.1" id="Layer_1" xmlns="http://www.w3.org/2000/svg" xmlns:xlink="http://www.w3.org/1999/xlink" x="0px" y="0px"
	 width="100px" height="30px" viewBox="0 0 100 30" enable-background="new 0 0 100 30" xml:space="preserve">
<g>
	<rect x="2" y="2.352" fill="none" width="96" height="25.298"/>
	<path fill="#3876C7" d="M21.955,19.705H17.42h-0.036l-2.124-5.076v12.923h-5.039V2.354h5.039l4.428,10.367l4.355-10.331V2.354
		h5.075v25.197h-5.075V14.665L21.955,19.705z"/>
	<path fill="#3876C7" d="M36.896,7.358v4.932h7.055v5.003h-7.055v5.256h11.591v5.003H31.892V2.354h16.594v5.004H36.896z"/>
	<path fill="#3876C7" d="M69.222,2.354v25.197h-5.039L56.3,12.182v15.37h-5.04V2.354h5.04l7.883,15.37V2.354H69.222z"/>
	<path fill="#3876C7" d="M89.741,2.354v16.378c0,1.44-0.288,2.772-0.899,3.996c-1.44,2.951-4.5,5.003-8.063,5.003
		c-3.527,0-6.587-2.052-8.063-5.003c-0.612-1.224-0.937-2.556-0.937-3.996V2.354h5.363l0.036,16.99c0,0.396,0.072,0.792,0.181,1.152
		c0.504,1.439,1.835,2.447,3.419,2.447s2.952-1.008,3.42-2.447c0.107-0.36,0.18-0.756,0.18-1.152V2.354H89.741z"/>
</g>
</svg>
