<?xml version="1.0" encoding="utf-8"?>
<!-- Generator: Adobe Illustrator 15.1.0, SVG Export Plug-In . SVG Version: 6.00 Build 0)  -->
<!DOCTYPE svg PUBLIC "-//W3C//DTD SVG 1.1//EN" "http://www.w3.org/Graphics/SVG/1.1/DTD/svg11.dtd">
<svg version="1.1" id="Layer_1" xmlns="http://www.w3.org/2000/svg" xmlns:xlink="http://www.w3.org/1999/xlink" x="0px" y="0px"
	 width="100px" height="75px" viewBox="0 0 100 75" enable-background="new 0 0 100 75" xml:space="preserve">
<path fill="none" stroke="#3876C7" stroke-width="0.5" stroke-miterlimit="10" d="M10,17.5c0,0,10-5,20-5c20,0,20,10,40,10
	c10,0,20-5,20-5"/>
<path fill="none" stroke="#3876C7" stroke-width="0.5" stroke-miterlimit="10" d="M10,57.5c0,0,10-5,20-5c20,0,20,10,40,10
	c10,0,20-5,20-5"/>
<g>
	<rect x="7.5" y="27.833" fill="none" width="85" height="19.333"/>
	<path fill="#3876C7" d="M29.356,28.925v18.2h-0.52V30.043l-8.294,14.508H20.23l-8.294-14.456v17.03h-0.52v-18.2h0.442l8.528,14.925
		l8.528-14.925H29.356z"/>
	<path fill="#3876C7" d="M48.389,46.631v0.494H36.272v-18.2h11.726v0.494H36.792v8.216h10.036v0.494H36.792v8.502H48.389z"/>
	<path fill="#3876C7" d="M67.94,28.925v18.2h-0.441L54.16,29.887v17.238h-0.52v-18.2h0.442l13.338,17.238V28.925H67.94z"/>
	<path fill="#3876C7" d="M76.547,45.253c-1.231-1.3-1.847-3.215-1.847-5.746V28.925h0.521V39.48c0,2.393,0.559,4.195,1.677,5.408
		c1.118,1.214,2.726,1.82,4.823,1.82c2.097,0,3.705-0.606,4.822-1.82c1.118-1.213,1.678-3.016,1.678-5.408V28.925h0.52v10.582
		c0,2.531-0.615,4.446-1.846,5.746c-1.231,1.3-2.955,1.95-5.174,1.95S77.777,46.553,76.547,45.253z"/>
</g>
</svg>
