<?xml version="1.0" encoding="utf-8"?>
<!-- Generator: Adobe Illustrator 15.1.0, SVG Export Plug-In . SVG Version: 6.00 Build 0)  -->
<!DOCTYPE svg PUBLIC "-//W3C//DTD SVG 1.1//EN" "http://www.w3.org/Graphics/SVG/1.1/DTD/svg11.dtd">
<svg version="1.1" id="Layer_1" xmlns="http://www.w3.org/2000/svg" xmlns:xlink="http://www.w3.org/1999/xlink" x="0px" y="0px"
	 width="160px" height="40px" viewBox="0 0 160 40" enable-background="new 0 0 160 40" xml:space="preserve">
<g id="Layer_2" opacity="0.5">
	<polygon points="80,37.191 158.777,6.485 155.777,3.485 80,12.114 4.222,3.485 1.222,6.485 	"/>
</g>
<g id="Layer_1_1_">
	<g>
		<rect x="37.333" y="15.338" fill="none" width="85.333" height="9.662"/>
		<path fill="#FFFFFF" d="M53.849,21.088l2.525-0.158c0.055,0.41,0.166,0.723,0.334,0.938c0.273,0.348,0.664,0.521,1.172,0.521
			c0.379,0,0.671-0.089,0.876-0.267c0.205-0.179,0.308-0.384,0.308-0.618c0-0.223-0.098-0.422-0.293-0.598s-0.648-0.342-1.359-0.498
			c-1.164-0.262-1.994-0.609-2.49-1.043c-0.5-0.434-0.75-0.986-0.75-1.658c0-0.441,0.128-0.858,0.384-1.251
			c0.256-0.393,0.641-0.701,1.154-0.926c0.513-0.225,1.218-0.337,2.112-0.337c1.098,0,1.935,0.204,2.511,0.612
			c0.576,0.408,0.919,1.058,1.028,1.948L58.859,17.9c-0.066-0.387-0.206-0.668-0.419-0.844c-0.213-0.176-0.507-0.264-0.882-0.264
			c-0.309,0-0.541,0.065-0.697,0.196c-0.156,0.131-0.234,0.29-0.234,0.478c0,0.137,0.064,0.26,0.193,0.369
			c0.125,0.113,0.422,0.219,0.891,0.316c1.16,0.25,1.991,0.503,2.493,0.759s0.867,0.573,1.096,0.952
			c0.229,0.379,0.343,0.803,0.343,1.271c0,0.551-0.152,1.059-0.457,1.523c-0.305,0.464-0.73,0.816-1.277,1.058
			s-1.236,0.36-2.068,0.36c-1.461,0-2.473-0.281-3.035-0.844C54.244,22.667,53.923,21.955,53.849,21.088z"/>
		<path fill="#FFFFFF" d="M68.697,20.414l2.326,0.703c-0.156,0.652-0.402,1.197-0.738,1.635s-0.753,0.768-1.251,0.99
			c-0.498,0.222-1.132,0.334-1.901,0.334c-0.934,0-1.696-0.137-2.288-0.407c-0.592-0.271-1.103-0.748-1.532-1.432
			c-0.43-0.684-0.645-1.559-0.645-2.623c0-1.421,0.378-2.513,1.134-3.276c0.756-0.763,1.825-1.145,3.208-1.145
			c1.082,0,1.933,0.219,2.552,0.656s1.079,1.109,1.38,2.016l-2.344,0.521c-0.082-0.262-0.168-0.453-0.258-0.574
			c-0.148-0.203-0.33-0.359-0.545-0.469c-0.215-0.11-0.455-0.164-0.721-0.164c-0.603,0-1.063,0.242-1.383,0.727
			c-0.242,0.359-0.363,0.923-0.363,1.69c0,0.952,0.145,1.604,0.434,1.958c0.289,0.354,0.695,0.529,1.219,0.529
			c0.508,0,0.892-0.144,1.151-0.428C68.391,21.37,68.58,20.957,68.697,20.414z"/>
		<path fill="#FFFFFF" d="M72.347,23.93v-8.59h4.424c0.82,0,1.447,0.07,1.881,0.211c0.434,0.141,0.783,0.401,1.049,0.782
			c0.266,0.381,0.398,0.845,0.398,1.392c0,0.477-0.102,0.888-0.305,1.233s-0.483,0.626-0.839,0.841
			c-0.227,0.137-0.537,0.25-0.932,0.34c0.315,0.105,0.546,0.211,0.69,0.316c0.098,0.07,0.239,0.222,0.425,0.452
			c0.186,0.229,0.31,0.407,0.372,0.532l1.285,2.489h-2.999l-1.419-2.625c-0.18-0.34-0.34-0.561-0.48-0.661
			c-0.191-0.134-0.408-0.2-0.65-0.2h-0.234v3.486L72.347,23.93L72.347,23.93z M75.013,18.82h1.119c0.121,0,0.355-0.039,0.703-0.117
			c0.176-0.035,0.319-0.125,0.431-0.27s0.167-0.311,0.167-0.498c0-0.277-0.088-0.49-0.264-0.639s-0.506-0.223-0.99-0.223h-1.166
			L75.013,18.82L75.013,18.82z"/>
		<path fill="#FFFFFF" d="M81.107,19.641c0-1.402,0.391-2.494,1.172-3.275c0.781-0.781,1.869-1.172,3.264-1.172
			c1.43,0,2.531,0.384,3.305,1.151c0.774,0.768,1.16,1.843,1.16,3.227c0,1.004-0.169,1.827-0.507,2.47s-0.826,1.143-1.465,1.5
			c-0.64,0.357-1.435,0.536-2.388,0.536c-0.97,0-1.771-0.154-2.405-0.463c-0.634-0.31-1.149-0.798-1.544-1.466
			C81.304,21.48,81.107,20.645,81.107,19.641z M83.761,19.652c0,0.868,0.161,1.491,0.483,1.87s0.761,0.567,1.314,0.567
			c0.57,0,1.013-0.187,1.324-0.557c0.313-0.371,0.469-1.037,0.469-1.998c0-0.809-0.162-1.399-0.488-1.772
			c-0.326-0.373-0.77-0.56-1.327-0.56c-0.535,0-0.965,0.189-1.289,0.568S83.761,18.777,83.761,19.652z"/>
		<path fill="#FFFFFF" d="M91.438,15.34h2.653v6.475h4.144v2.115h-6.797V15.34z"/>
		<path fill="#FFFFFF" d="M99.441,15.34h2.653v6.475h4.144v2.115h-6.797V15.34z"/>
	</g>
</g>
<g id="_x5F_bup" display="none">
	<polygon display="inline" points="78.662,37.191 151.771,-0.515 78.662,15.114 5.551,-0.515 	"/>
	<g display="inline">
		<path fill="#EC297B" d="M51.395,18.838l1.688-0.164c0.102,0.566,0.308,0.982,0.618,1.248c0.31,0.266,0.729,0.398,1.257,0.398
			c0.559,0,0.979-0.118,1.263-0.354c0.284-0.236,0.425-0.513,0.425-0.829c0-0.203-0.06-0.376-0.179-0.519
			c-0.119-0.143-0.327-0.267-0.624-0.372c-0.203-0.07-0.666-0.195-1.389-0.375c-0.93-0.23-1.582-0.514-1.957-0.85
			c-0.527-0.473-0.791-1.049-0.791-1.729c0-0.438,0.124-0.847,0.372-1.228s0.605-0.671,1.072-0.87
			c0.467-0.199,1.03-0.299,1.69-0.299c1.078,0,1.89,0.236,2.435,0.709s0.831,1.104,0.858,1.893l-1.734,0.076
			c-0.074-0.441-0.233-0.759-0.478-0.952c-0.245-0.193-0.61-0.29-1.099-0.29c-0.504,0-0.898,0.104-1.185,0.311
			c-0.184,0.133-0.274,0.311-0.274,0.533c0,0.203,0.086,0.377,0.258,0.521c0.219,0.184,0.75,0.375,1.594,0.574
			c0.844,0.199,1.468,0.405,1.872,0.618c0.404,0.213,0.721,0.504,0.949,0.873c0.228,0.369,0.343,0.825,0.343,1.368
			c0,0.492-0.137,0.953-0.41,1.383c-0.272,0.43-0.66,0.749-1.16,0.958s-1.123,0.313-1.869,0.313c-1.086,0-1.92-0.251-2.502-0.753
			C51.856,20.527,51.508,19.799,51.395,18.838z"/>
		<path fill="#EC297B" d="M66.535,21.475l1.682,0.533c-0.258,0.938-0.687,1.635-1.286,2.09c-0.599,0.454-1.36,0.683-2.282,0.683
			c-1.141,0-2.078-0.39-2.813-1.169c-0.735-0.779-1.102-1.846-1.102-3.196c0-1.43,0.369-2.54,1.107-3.331
			c0.738-0.791,1.709-1.187,2.912-1.187c1.051,0,1.904,0.311,2.561,0.932c0.391,0.367,0.684,0.895,0.879,1.582l-1.717,0.41
			c-0.102-0.445-0.313-0.797-0.636-1.055c-0.323-0.258-0.714-0.387-1.175-0.387c-0.637,0-1.153,0.229-1.55,0.686
			c-0.397,0.457-0.595,1.197-0.595,2.221c0,1.086,0.195,1.858,0.586,2.319s0.898,0.691,1.523,0.691c0.461,0,0.857-0.146,1.189-0.439
			S66.39,22.104,66.535,21.475z"/>
		<path fill="#EC297B" d="M70.91,27.633v-8.59h3.65c0.918,0,1.586,0.077,2.002,0.231s0.748,0.429,0.998,0.823
			s0.375,0.846,0.375,1.354c0,0.645-0.189,1.177-0.568,1.597s-0.945,0.685-1.699,0.794c0.375,0.219,0.685,0.459,0.93,0.721
			c0.243,0.263,0.572,0.728,0.986,1.396l1.049,1.676h-2.074l-1.254-1.868c-0.445-0.668-0.75-1.09-0.914-1.264
			s-0.338-0.293-0.521-0.357c-0.183-0.063-0.475-0.097-0.873-0.097h-0.352v3.586L70.91,27.633L70.91,27.633z M72.644,22.676h1.283
			c0.832,0,1.353-0.035,1.559-0.104c0.207-0.07,0.369-0.191,0.486-0.363c0.117-0.172,0.176-0.387,0.176-0.646
			c0-0.289-0.077-0.521-0.23-0.699c-0.155-0.178-0.373-0.29-0.654-0.338c-0.141-0.02-0.563-0.028-1.266-0.028h-1.354V22.676z"/>
		<path fill="#EC297B" d="M80.418,23.391c0-0.875,0.131-1.608,0.393-2.203c0.195-0.438,0.463-0.83,0.801-1.178
			c0.338-0.348,0.707-0.604,1.109-0.772c0.535-0.228,1.152-0.34,1.853-0.34c1.266,0,2.278,0.393,3.038,1.178
			c0.76,0.784,1.14,1.877,1.14,3.274c0,1.387-0.377,2.473-1.131,3.256c-0.754,0.782-1.763,1.175-3.022,1.175
			c-1.277,0-2.294-0.39-3.048-1.169S80.418,24.758,80.418,23.391z M82.206,23.333c0,0.974,0.226,1.71,0.674,2.212
			c0.449,0.502,1.021,0.753,1.711,0.753c0.691,0,1.259-0.249,1.702-0.747s0.665-1.244,0.665-2.24c0-0.984-0.216-1.72-0.647-2.203
			c-0.431-0.484-1.004-0.728-1.72-0.728c-0.715,0-1.291,0.245-1.729,0.735C82.424,21.605,82.206,22.344,82.206,23.333z"/>
		<path fill="#EC297B" d="M91.352,24.633v-8.52h1.733v7.072h4.313v1.446L91.352,24.633L91.352,24.633z"/>
		<path fill="#EC297B" d="M99.881,21.633v-8.52h1.734v7.072h4.313v1.447L99.881,21.633L99.881,21.633z"/>
	</g>
</g>
</svg>
