<?xml version="1.0" encoding="utf-8"?>
<!-- Generator: Adobe Illustrator 15.1.0, SVG Export Plug-In . SVG Version: 6.00 Build 0)  -->
<!DOCTYPE svg PUBLIC "-//W3C//DTD SVG 1.1//EN" "http://www.w3.org/Graphics/SVG/1.1/DTD/svg11.dtd">
<svg version="1.1" id="Layer_1" xmlns="http://www.w3.org/2000/svg" xmlns:xlink="http://www.w3.org/1999/xlink" x="0px" y="0px"
	 width="600px" height="500px" viewBox="0 0 600 500" enable-background="new 0 0 600 500" xml:space="preserve">
<g>
	<path fill="none" stroke="#000000" stroke-width="21" stroke-linecap="round" stroke-linejoin="round" stroke-miterlimit="10" d="
		M167.342,442.411c0,0-14.912-40.972-14.913-40.974l11.971-4.356c19.48-7.091,30.893-24.871,23.322-45.669
		c-7.569-20.797-27.74-27.083-47.222-19.992l-12.169,3.809c0,0-13.202-36.271-13.203-36.273l11.971-4.355
		c19.48-7.092,29.355-29.096,23.322-45.668c-6.032-16.574-27.74-27.083-47.222-19.993l-11.97,4.357
		c0.001,0.003-15.936-43.781-15.936-43.781L434.711,58.695c0,0,15.537,42.684,15.537,42.685l-11.971,4.356
		c-19.482,7.091-30.384,26.275-23.324,45.669c7.059,19.394,27.74,27.083,47.223,19.992l11.971-4.356
		c-0.002-0.003,13.402,36.822,13.402,36.822l-11.971,4.355c-19.482,7.091-32.527,20.381-23.324,45.67
		c9.205,25.287,27.74,27.082,47.223,19.991l11.972-4.356c-0.002-0.002,15.11,41.521,15.11,41.521L167.342,442.411z"/>
	<path fill="none" stroke="#000000" stroke-width="21" stroke-linecap="round" stroke-linejoin="round" stroke-miterlimit="10" d="
		M405.383,302.591c10.89-3.962,16.5-16,12.537-26.887l-43.516-119.558c-3.961-10.886-15.998-16.5-26.886-12.537L196.67,198.514
		c-10.888,3.962-16.499,16-12.537,26.887l43.516,119.558c3.962,10.886,15.998,16.499,26.886,12.537L405.383,302.591z"/>
</g>
</svg>
