<?xml version="1.0" encoding="utf-8"?>
<!-- Generator: Adobe Illustrator 15.1.0, SVG Export Plug-In . SVG Version: 6.00 Build 0)  -->
<!DOCTYPE svg PUBLIC "-//W3C//DTD SVG 1.1//EN" "http://www.w3.org/Graphics/SVG/1.1/DTD/svg11.dtd">
<svg version="1.1" id="Layer_1" xmlns="http://www.w3.org/2000/svg" xmlns:xlink="http://www.w3.org/1999/xlink" x="0px" y="0px"
	 width="500px" height="500px" viewBox="0 0 500 500" enable-background="new 0 0 500 500" xml:space="preserve">
<g>
	<defs>
		<rect id="SVGID_1_" x="-100" y="-100" width="700" height="700"/>
	</defs>
	<clipPath id="SVGID_2_">
		<use xlink:href="#SVGID_1_"  overflow="visible"/>
	</clipPath>
	<path clip-path="url(#SVGID_2_)" fill="#0866FF" d="M500,250C500,111.929,388.071,0,250,0C111.929,0,0,111.929,0,250
		c0,117.245,80.715,215.622,189.606,242.638V326.396h-51.552V250h51.552v-32.919c0-85.092,38.508-124.532,122.048-124.532
		c15.838,0,43.167,3.105,54.347,6.211v69.254c-5.901-0.621-16.149-0.932-28.882-0.932c-40.993,0-56.832,15.528-56.832,55.9V250
		h81.659l-14.028,76.396h-67.631v171.772C404.073,483.218,500,377.818,500,250"/>
	<path clip-path="url(#SVGID_2_)" fill="#FFFFFF" d="M347.918,326.396L361.946,250h-81.659v-27.019
		c0-40.372,15.838-55.899,56.831-55.899c12.733,0,22.981,0.31,28.882,0.931V98.76c-11.18-3.106-38.509-6.212-54.347-6.212
		c-83.539,0-122.048,39.441-122.048,124.533V250h-51.552v76.396h51.552v166.242C208.949,497.437,229.173,500,250,500
		c10.254,0,20.358-0.632,30.288-1.831V326.396H347.918z"/>
</g>
</svg>
