<?xml version="1.0" encoding="utf-8"?>
<!-- Generator: Adobe Illustrator 15.1.0, SVG Export Plug-In . SVG Version: 6.00 Build 0)  -->
<!DOCTYPE svg PUBLIC "-//W3C//DTD SVG 1.1//EN" "http://www.w3.org/Graphics/SVG/1.1/DTD/svg11.dtd">
<svg version="1.1" id="Layer_1" xmlns="http://www.w3.org/2000/svg" xmlns:xlink="http://www.w3.org/1999/xlink" x="0px" y="0px"
	 width="190px" height="50px" viewBox="0 0 190 50" enable-background="new 0 0 190 50" xml:space="preserve">
<g>
	<g>
		<path d="M78.353,36.013c7.229,0.526,14.859,0.611,22.705,0.251c3.833-0.17,7.737-0.461,11.938-0.888
			c4.069-0.41,8.063-0.915,11.871-1.499c1.415-0.201,2.854-0.443,4.242-0.676c0.551-0.093,1.102-0.186,1.652-0.275
			c0.563-0.104,1.109-0.202,1.657-0.302c1.388-0.25,2.825-0.51,4.236-0.799l5.921-1.143l2.99-0.479
			c0.515-0.087,1.037-0.155,1.48-0.209l1.521-0.194c4.178-0.506,8.262-0.753,12.135-0.733c4.443,0.03,8.431,0.361,12.188,1.014
			c4.291,0.728,8.293,1.836,11.896,3.294c1.986,0.802,2.725-0.811,0.664-1.642c-3.723-1.506-7.848-2.649-12.26-3.398
			c-3.852-0.669-7.934-1.008-12.479-1.038c-3.947-0.021-8.107,0.23-12.363,0.746l-1.523,0.194c-0.459,0.057-1.006,0.127-1.549,0.22
			l-3.007,0.482l-5.964,1.15c-1.398,0.286-2.824,0.544-4.203,0.793c-0.549,0.099-1.098,0.198-1.646,0.299
			c-0.535,0.087-1.088,0.181-1.641,0.273c-1.379,0.231-2.806,0.471-4.208,0.671c-3.787,0.581-7.751,1.081-11.791,1.489
			c-4.168,0.424-8.04,0.711-11.84,0.881c-8.223,0.377-16.203,0.263-23.724-0.344c-8.082-0.648-15.961-1.887-23.421-3.682
			c-8.063-1.966-15.594-4.575-22.38-7.754c-3.704-1.736-7.203-3.646-10.399-5.679c-1.677-1.064-3.314-2.198-4.865-3.37
			c-1.896-1.444-3.273-2.621-4.461-3.813l-1.254,1.251c1.247,1.25,2.679,2.476,4.645,3.973c1.592,1.203,3.269,2.364,4.986,3.454
			c3.259,2.072,6.825,4.02,10.597,5.787c6.892,3.229,14.535,5.878,22.715,7.872c7.551,1.816,15.522,3.069,23.696,3.726
			C77.524,35.95,77.938,35.982,78.353,36.013z"/>
	</g>
	<g>
		<path d="M131.979,13.852c2.646,9.388,10.637,14.57,21.201,13.734C150.533,18.198,142.541,13.021,131.979,13.852z"/>
	</g>
	<g>
		<path d="M131.54,45.443c10.487-0.313,18.69-6.316,21.806-15.956C142.858,29.8,134.656,35.804,131.54,45.443z"/>
	</g>
	<g>
		<path d="M111.708,17.622c2.43,8.908,9.939,13.887,19.938,13.209C129.217,21.923,121.707,16.947,111.708,17.622z"/>
	</g>
	<g>
		<path d="M111.298,48.057c9.925-0.292,17.703-5.955,20.7-15.065C122.075,33.283,114.295,38.946,111.298,48.057z"/>
	</g>
	<g>
		<path d="M91.508,19.971c1.878,8.8,8.873,14.014,18.576,13.839C108.207,25.012,101.211,19.805,91.508,19.971z"/>
	</g>
	<g>
		<path d="M86.047,45.325c9.177,2.12,17.858-1.414,23.113-9.406C99.985,33.802,91.303,37.335,86.047,45.325z"/>
	</g>
	<g>
		<path d="M69.635,20.374c1.163,8.516,7.192,13.745,16.367,14.172C84.839,26.031,78.81,20.804,69.635,20.374z"/>
	</g>
	<g>
		<path d="M63.854,43.088c8.214,2.942,16.646,0.543,22.47-6.396C78.109,33.751,69.678,36.149,63.854,43.088z"/>
	</g>
	<g>
		<path d="M62.28,32.313c-0.058-7.956-4.874-13.402-13.092-14.802C49.246,25.467,54.062,30.914,62.28,32.313z"/>
	</g>
	<g>
		<path d="M40.838,37.238c6.957,3.721,14.868,2.591,21.113-3.018C54.994,30.499,47.083,31.63,40.838,37.238z"/>
	</g>
	<g>
		<path d="M43.338,27.469c0.351-6.67-3.339-11.489-10.059-13.134C32.929,21.005,36.618,25.824,43.338,27.469z"/>
	</g>
	<g>
		<path d="M24.47,30.229c5.521,3.504,12.151,3.061,17.76-1.193C36.708,25.531,30.08,25.975,24.47,30.229z"/>
	</g>
	<g>
		<path d="M25.037,19.04c0.001-5.566-3.274-9.475-8.956-10.688C16.079,13.917,19.354,17.826,25.037,19.04z"/>
	</g>
	<g>
		<path d="M9.942,17.518c3.264,4.352,8.406,5.721,14.087,3.748C20.766,16.913,15.624,15.543,9.942,17.518z"/>
	</g>
	<g>
		<path d="M11.76,11.596c-0.424-4.459-3.352-7.421-8.041-8.132C4.144,7.923,7.071,10.885,11.76,11.596z"/>
	</g>
</g>
</svg>
