<?xml version="1.0" encoding="utf-8"?>
<!-- Generator: Adobe Illustrator 15.1.0, SVG Export Plug-In . SVG Version: 6.00 Build 0)  -->
<!DOCTYPE svg PUBLIC "-//W3C//DTD SVG 1.1//EN" "http://www.w3.org/Graphics/SVG/1.1/DTD/svg11.dtd">
<svg version="1.1" id="Layer_1" xmlns="http://www.w3.org/2000/svg" xmlns:xlink="http://www.w3.org/1999/xlink" x="0px" y="0px"
	 width="600px" height="500px" viewBox="0 0 600 500" enable-background="new 0 0 600 500" xml:space="preserve">
<g>
	<path fill="none" stroke="#000000" stroke-width="21" stroke-linecap="round" stroke-linejoin="round" stroke-miterlimit="10" d="
		M157.158,321.93c0,0,44.167-39.139,74.916-44.594c33.244-5.898,73.459,21.447,97.055,21.447c23.592,0,70.781-8.578,65.953,39.303
		c0,0,61.129-54.432,76.143-62.417c9.103-4.841,25.295-7.578,39.507-6.7c10.604,0.655,15.288,13.684,7.557,20.971
		c-27.863,26.262-90.65,82.098-114.523,103.885c-5.705,5.205-13.137,8.088-20.858,8.088H193.509"/>
	
		<line fill="none" stroke="#000000" stroke-width="21" stroke-linecap="round" stroke-linejoin="round" stroke-miterlimit="10" x1="293.201" y1="338.087" x2="395.08" y2="338.087"/>
	<path fill="none" stroke="#000000" stroke-width="21" stroke-linecap="round" stroke-linejoin="round" stroke-miterlimit="10" d="
		M77.877,321.359l62.512,137.54l53.413-24.278c6.67-3.032,9.621-10.898,6.59-17.57l-51.533-113.379
		c-3.031-6.671-10.898-9.62-17.569-6.588L77.877,321.359z"/>
	<g>
		<path fill="none" stroke="#000000" stroke-width="21" stroke-linecap="round" stroke-linejoin="round" stroke-miterlimit="10" d="
			M339.641,80.602c6.677-22.846,29.947-39.501,54.892-39.501c30.379,0,54.938,24.559,54.938,54.938
			c0,0,4.547,66.033-109.875,124.699c-114.331-58.667-109.783-124.7-109.783-124.7c0-30.379,24.558-54.938,54.937-54.938
			c24.943,0,48.14,16.655,54.796,39.5L339.641,80.602z"/>
	</g>
</g>
</svg>
