<?xml version="1.0" encoding="utf-8"?>
<!-- Generator: Adobe Illustrator 15.1.0, SVG Export Plug-In . SVG Version: 6.00 Build 0)  -->
<!DOCTYPE svg PUBLIC "-//W3C//DTD SVG 1.1//EN" "http://www.w3.org/Graphics/SVG/1.1/DTD/svg11.dtd">
<svg version="1.1" id="Layer_1" xmlns="http://www.w3.org/2000/svg" xmlns:xlink="http://www.w3.org/1999/xlink" x="0px" y="0px"
	 width="600px" height="500px" viewBox="0 0 600 500" enable-background="new 0 0 600 500" xml:space="preserve">
<g>
	<path fill="none" stroke="#000000" stroke-width="21" stroke-linecap="round" stroke-linejoin="round" stroke-miterlimit="10" d="
		M182.369,274.25c-17.27-10.378-37.785-16.443-59.185-16.443c-56.867,0-107.509,42.821-107.509,95.645h116.76"/>
	
		<circle fill="none" stroke="#000000" stroke-width="21" stroke-linecap="round" stroke-linejoin="round" stroke-miterlimit="10" cx="123.184" cy="171.906" r="48.619"/>
	<path fill="none" stroke="#000000" stroke-width="21" stroke-linecap="round" stroke-linejoin="round" stroke-miterlimit="10" d="
		M418.676,274.25c17.271-10.378,37.785-16.443,59.185-16.443c56.866,0,107.51,42.821,107.51,95.645H468.61"/>
	
		<circle fill="none" stroke="#000000" stroke-width="21" stroke-linecap="round" stroke-linejoin="round" stroke-miterlimit="10" cx="477.859" cy="171.906" r="48.619"/>
	
		<circle fill="none" stroke="#000000" stroke-width="21" stroke-linecap="round" stroke-linejoin="round" stroke-miterlimit="10" cx="300.341" cy="171.906" r="63.462"/>
	<path fill="none" stroke="#000000" stroke-width="21" stroke-linecap="round" stroke-linejoin="round" stroke-miterlimit="10" d="
		M440.672,392.742L440.672,392.742c0-68.948-66.104-124.842-140.331-124.842c-74.228,0-140.33,55.894-140.33,124.842l0,0H440.672z"
		/>
</g>
</svg>
