<?xml version="1.0" encoding="utf-8"?>
<!-- Generator: Adobe Illustrator 15.1.0, SVG Export Plug-In . SVG Version: 6.00 Build 0)  -->
<!DOCTYPE svg PUBLIC "-//W3C//DTD SVG 1.1//EN" "http://www.w3.org/Graphics/SVG/1.1/DTD/svg11.dtd">
<svg version="1.1" id="Layer_1" xmlns="http://www.w3.org/2000/svg" xmlns:xlink="http://www.w3.org/1999/xlink" x="0px" y="0px"
	 width="300px" height="150px" viewBox="0 0 300 150" enable-background="new 0 0 300 150" xml:space="preserve">
<g>
	<path d="M290.51,76.313c-2.225-0.002-2.346-2.323-3.595-3.613c-0.711-1.281-2.777-1.188-2.592-2.772
		c2.714-0.909,4.472-3.613,4.55-6.47c1.072-1.603-0.775-5.221,2.154-5.683c0.906-1.065,1.625-2.324,1.646-3.626
		c-0.138-1.304-1.401-1.705-2.345-2.323c-9.322-2.912-19.745-4.635-29.996-5.052c-0.889-0.078-0.583-1.248-1.343-1.387
		c-1.08,0.014-4.808-1.348-4.146,1.077c-17.948-1.716-33.633-2.029-51.506-2.537c0.026-1.651-1.885-1.301-2.729-2.108
		c-3.174-6.084-6.858-11.956-10.448-17.889c0.428-2.883-2.699-3.917-4.616-5.218c-6.898-1.604-13.309-1.991-20.314-2.706
		c-27.899-1.018-57.652-1.397-84.688,5.159c-6.251,1.678-12.23,4.124-17.598,8.071c-1.655,0.291-2.848,1.416-3.946,2.541
		c-2.228,4.221-6.122,7.462-8.631,11.423c-5.13,1.062-11.081,1.887-16.277,3.043c-1.358,0.259-2.715,0.506-4.126,0.752
		c-0.517-0.008-1.048-0.086-1.599-0.271c-1.529-3.646-2.994-7.638-4.077-11.15c-0.479-0.964-3.398-1.154-2.537,1.802
		c1,2.97,1.985,5.944,2.938,8.972c-4.918-0.333-10.688-0.782-15.643-0.949c-3.02-0.101-3.416,2.167-3.264,3.505
		c1.083,1.828,1.074,4.336,1.61,6.537c-0.869,0.716-0.887,1.795-0.839,2.845c1.5,1.516,1.237,4.053,1.845,5.841
		c0.269,1.084-0.875,1.097-1.393,1.598c-1.135,1.434-1.464,3.48-1.331,5.201c-0.581,0.752-1.563,2.152-1.665,3.463
		c-0.141,1.855,0.855,4.099,1.342,5.193c0.255,1.047,0.778,1.993,1.291,2.938c1.557,1.991,4.119,2.67,6.688,2.838
		c3.437-0.392,6.56,0.961,9.814,1.998c1.041,0.461,9.521,2.438,12.614,3.633c0.486,3.342,2.223,5.94,4.084,8.766
		c3.078,4.084,8.206,5.182,12.854,4.523c3.111-1.981,5.356-5.344,5.766-9.053c-1.229-0.561-2.909-0.746-3.657-1.646
		c1.944,0.492,3.777,0.955,5.82,1.363c-0.604,0.117-1.271,0.104-1.847,0.414c-0.212,3.301-2.063,5.843-4.354,8.062
		c-1.598,1.165-0.873,1.033,0.468,0.579c3.162-1.221,5.211-4.141,6.622-7.008c0.392-0.693,0.149-1.332,0.823-1.799
		c25.816,4.225,49.481,7.873,74.563,12.401c2.823,0.173,5.201,0.401,8.011-0.442c3.518-1.564,6.996-4.558,10.918-3.605
		c1.465-0.23,3.421,0.594,4.575-0.148c0.031-1.969,0.072-4.51,0.582-6.533c0.856-2.02,0.807-4.846,2.605-6.12
		c-2.063,3.842-2.421,8.378-2.621,12.979c0.254,11.913,5.5,25.496,17.6,29.563c3.928,0.635,8.406,2.644,11.785-0.16
		c7.959-5.113,9.762-14.613,9.52-23.287c0.029,0.032,0.093,0.099,0.124,0.129c1.387,8.629-1.354,19.162-9.652,23.729
		c0.646,0.246,2.087-0.004,2.977-0.245c5.878-1.599,10.493-6.739,13.01-12.298c0.626-1.389,1.096-2.967,1.876-4.194
		c5.691,1.615,12.316,2.42,18.605,2.36c5.939-0.031,11.119-2.107,16.629-3.163c7.029,1.224,13.998-1.462,19.313-6.108
		c6.173-2.727,12.99-4.048,18.641-7.832c4.963-2.525,6.315-7.68,7.758-12.453c1.248-0.679,2.439-1.645,3.691-2.449
		c0.492-1.231-0.5-0.576,0.877-2.737c1.539-1.418,2.125-1.987,2.287-2.58C294.036,80.117,293.359,76.804,290.51,76.313z
		 M285.202,72.544c0.746,0.996,1.796,1.602,1.901,2.97c-7.147-3.894-13.647,2.688-20.434,3.944
		c-4.439,1.517-9.029,2.683-13.563,4.008c-5.125,0.774-10.229,2.218-15.36,3.312c0.871-0.844,0.923-2.146-0.077-3.081
		c-0.664-0.202-0.429-0.991-1.125-1.161c8.193-1.936,16.6-3.262,24.578-5.801c5.873-1.844,11.87-3.433,17.684-5.53
		C281.038,70.763,283.543,71.024,285.202,72.544z M281.4,79.818c-1.867-0.313-2.829,2.18-4.268,2.791
		c0.684,0.837,0.214,2.418,1.672,2.662c0.792,0.107,1.594-0.418,1.859-1.112c0.104-0.507,0.238-1.013,0.373-1.486
		c0.354,0.882,0.003,1.81-0.514,2.374c-1.189,0.901-2.75,1.13-4.116,1.204c-0.791-0.171-1.296-0.528-1.825-1.045
		c-2.07,0.348-3.484,1.549-5.555,1.929c-0.883,1.7-2.812,2.49-4.443,3.321c-2.214-0.513-4.305,1.351-6.23,0.651
		c0.226-0.125,0.574-0.118,0.578-0.437c-0.062-0.097-0.125-0.161-0.218-0.259c-5.231,1.568-10.688,3.07-15.851,4.1
		c0.302-0.916,0.916-1.669,0.871-2.717c3.947-0.668,7.837-1.527,11.35-2.805c0.076-0.73,1.029-0.842,1.501-0.42
		c0.405,0.387,1.202,0.271,1.712,0.121c-0.045,0.729,0.391,1.34,0.895,1.729c1.906-0.031,3.884-0.636,5.949-0.699
		c1.104-1.476,5.078-1.761,3.28-4.521c-0.153-0.32,0.767-0.306,1.149-0.427c1.854-0.731,3.496-2.137,5.623-2.196
		c1.08,0.081,0.976-1.384,2.177-1.015c0.626-1.418,1.846-2.162,3.032-2.903c-1.041-0.48-1.76-0.732-2.622-0.836
		c-1.052,0.174-1.73,0.924-2.411,1.771c-0.036,0.316-0.045,0.889,0.428,1.15c-2.436,1.39-5.398,1.914-8.175,2.729
		c-0.284-0.195,0.323-0.313,0.483-0.438c2.073-0.507,3.961-1.46,6.095-1.839c0.332-0.822,0.282-1.742,0.929-2.4
		c1.403-2.359,4.09-0.859,5.85-0.352c0.539,0.072,0.75,0.68,1.125,1.035c0.357,0.988-0.229,1.59-0.664,2.123
		c-0.196,0.241-0.282,0.217-0.196-0.037C281.447,80.968,281.684,80.359,281.4,79.818z M279.407,83.439
		c0.55-0.342,0.563-1.516,0.604-2.149c-0.219-0.322,0.362-0.787,0.711-0.813c0.314,2.196-0.69,3.973-1.209,4.108
		c-0.731,0.084-1.326-0.498-1.346-1.164c-0.496-0.771,0.447-0.729,0.574-0.214C278.577,83.682,279.244,83.598,279.407,83.439z
		 M276.585,95.051c0.231,0.258,0.5,0.264,0.777,0.204c0.672-0.301,0.698,0.129,0.438,0.243c-10.02,4.361-20.686,8.109-31.437,10.632
		c-1.303,0.011-2.577,0.339-3.691,0.511c-0.138,0.635,0.563,0.582,0.811,1.03c-2.393,0.563-5.859,0.922-8.243-0.926
		c1.614-1.595,3.604-2.929,5.349-4.838c0.102-0.41-1.186-1.257-0.107-1.146c0.248,0.354,0.466,0.705,0.682,1.06
		c-1.257,1.155-2.346,2.321-3.934,3.686c0.787,0.427,1.463-0.168,2.041-0.539c4.476-1.864,9.838-1.495,14.254-3.521
		c2.412-1.899,5.938-2.098,8.85-3.289c0.802-0.527,1.303,0.021,2.158,0.035c2.923-1.987,6.363-2.727,9.684-3.752
		c0.195-0.283,0.196-0.379,0.01-0.668c0.422-0.532,1.284-0.805,1.949-0.668c0.868,1.316,2.346-1.678,2.273,0.736
		C277.836,94.245,276.354,93.777,276.585,95.051z M229.636,107.577c1.146-0.109,2.906-1.033,4.468-1.295
		c0.334-1.105-1.086-1.732-1.195-2.782c-0.203-1.114-0.5-2.452-0.07-3.525c-0.779-0.869-2.156-0.162-2.836-1.314
		c0.1-0.285,0.579-0.563,0.234-0.919c-1.613-0.374-2.885-0.235-4.657-0.646c-1.034-0.396,0.007-1.381,0.583-1.573
		c-0.065,0.061-0.35,0.412-0.219,0.66c0.97,0.967,2.514-0.312,3.646,0.311c1.337-0.232,3.292,0.688,3.891-0.984
		c-1.484-0.438-2.787-1.02-4.553-1.313c0.001-0.127,0.006-0.254,0.006-0.351c2.623,0.773,5.545,0.853,7.971,2.066
		c0.276,0.543,0.777,1.026,0.896,1.602c-0.749-0.807-1.684-1.934-2.84-1.188c-1.289,1.281-1.887,2.828-1.789,4.672
		c0.134,1.591,0.776,3.093,1.297,4.372c0.284,0.036,0.406,0.419,0.691,0.454C233.714,107.189,232.523,108.068,229.636,107.577z
		 M233.614,110.46c-0.354-0.005-1.082-0.44-1.079-0.666s0.021-0.469,0.374-0.463c0.354,0.006,0.825,0.229,0.901,0.483
		C233.874,110.031,233.966,110.466,233.614,110.46z M223.293,97.059c0.126,0.065,0.121,0.287-0.006,0.35
		c-0.316-0.037-0.764,0.084-0.92-0.141c0.388-0.345-0.71-1.22-0.104-1.464c-0.396-0.991-1.52-0.278-2.271-0.86
		c-0.572,0.021-1.147,0.235-1.379,0.803c0.111,0.986,0.8,0.677,1.14,1.285c0.406,0.388-0.501,0.473-0.942,0.307
		c-0.857,0.081-0.041-1.431-1.115-1.732c2.184-1.521,1.973-4.225,3.779-6.006c2.688-3.324,6.614-4.596,10.26-5.998
		c2.158,0.099,4.768-2.273,5.824,1.108c0.398,0.929-0.278,1.647-0.86,2.274c-4.25,1.613-9.522,1.594-12.2,6.219
		C224.001,94.436,222.616,95.587,223.293,97.059z M10.063,67.009c-0.251-0.163,0.04-0.508-0.21-0.672
		c4.38,0.189,10.929,0.342,15.781,0.672c0.386,0.026,0.379,0.196,0.001,0.24C20.323,67.43,15.172,67.03,10.063,67.009z
		 M16.019,68.011c-1.128,0.152-4.938,0.277-5.978,0.396c-0.05-0.347-0.118-0.541-0.082-0.827c1.273-0.021,4.772,0.058,6.057,0.142
		C16.338,67.739,16.753,67.911,16.019,68.011z M9.864,65.544c0.101-0.285-0.216-0.416-0.084-0.699
		c8.902,0.289,20.965,1.207,29.787,1.679c0.679,0.037,0.681,0.231,0.002,0.274C30.697,67.365,18.449,65.534,9.864,65.544z
		 M9.669,63.921c-0.125-0.161-0.12-0.446-0.117-0.669c13.229,0.974,26.43,1.598,39.653,2.919c-0.002,0.063-0.003,0.128-0.005,0.224
		C35.517,66.112,23.31,64.87,9.669,63.921z M11.325,59.597c-0.722-0.583-2.545,0.309-2.589-0.931
		c1.179-0.234,2.565,0.423,3.997,0.286c-0.51,0.409-0.842,0.972-1.295,1.472c0.459,1.12,1.855-0.828,2.279,0.481
		c0.158,0.065,0.225-0.123,0.353-0.217c-0.086-0.541,0.127,0.066,0.222,0.1c0.635,0.042,0.647-0.848,1.164-1.221
		c-0.126-0.192-0.347-0.26-0.57-0.231c-0.241,1.171-0.913-0.492-1.37,0.295c-0.144-0.986,2.198-0.441,2.96-0.397
		c-0.703,0.307-1.146,0.612-1.351,1.435c0.531,0.613,0.763-0.428,1.228,0.277c-0.19,0.125-0.1,0.38-0.135,0.57
		c-2.22-0.258-5.115,0.078-7.068-0.907c-0.061-0.191-0.121-0.352-0.118-0.573c0.571,0.104,1.257,0.877,1.96,0.603
		C11.438,60.457,11.034,59.878,11.325,59.597z M9.354,61.757c13.133,1.003,26.296,2.007,39.873,3.018
		c0.044,0.192-0.03,0.372-0.009,0.571C36.371,64.38,22.188,63.55,9.472,62.33C9.411,62.139,9.319,61.979,9.354,61.757z
		 M19.575,60.078c-0.161,0.157-0.164,0.347-0.356,0.471c-0.575,0.149-0.709-1.409-1.138-0.368c-0.258,0.154-1.24-0.02-0.689-0.583
		c-0.063-0.097-0.125-0.161-0.219-0.227c10.345,0.482,32.323,2.454,32.323,2.454l-0.015,0.92c0,0-19.57-1.582-29.118-2.307
		c-0.672,0.306,0.179,0.765,0.432,0.801c9.741,0.537,28.55,2.075,28.55,2.075l-0.013,0.793c0,0-21.823-1.65-32.545-2.456
		c-0.235-1.21,0.958-0.397,1.376-0.676c0.277,0.544,1.073,0.461,1.395,0.149C19.879,60.876,20.114,60.1,19.575,60.078z
		 M50.022,78.636c1.762,1.044,2.817,2.49,3.937,4.064c-3.969-4.033-10.64-5.982-16.387-4.041c-2.2,0.567-4.624,1.196-6.8,2.178
		C36.479,77.53,43.849,75.423,50.022,78.636z M49.363,76.116c0.186-2.094-0.191-4.813-0.058-6.531
		c0.006-0.078,0.389-0.068,0.396,0.01c0.191,1.985-0.203,4.759,0.233,6.529c4.812,2.903,9.305,7.963,10.204,13.313
		c0.274,0.701,0.81,1.061,1.471,1.389c7.799,0.855,15.515,2.947,23.479,3.456c0.275-0.095,1.988-1.048,2.157-2.759
		c0.36-3.627-1.052-14.531-0.806-19.717c0.121-2.554,0.276-2.156,0.326,0.004c0.346,4.627,0.861,13.874,1.212,19.004
		c0.009,1.461-0.595,2.869-1.843,3.483c-0.318,0.122-0.605,0.212-0.926,0.334c-9.044-0.831-15.329-1.94-23.689-3.537
		c-0.812-0.354-1.352-0.163-1.863-2.146c-0.622-1.462-0.748-3.188-1.85-4.599C55.479,81.01,52.665,78.266,49.363,76.116z
		 M53.281,53.534c1.782-0.29,5.085,0.067,7.3,0.243c0.092,0.224,0.312,0.387,0.244,0.671c-0.551,0.659-0.946-0.427-1.485-0.469
		C57.372,53.949,55.116,53.881,53.281,53.534z M55.277,54.958c-0.649-0.045-0.831-0.013-1.01-0.087
		c-0.179-0.075-0.317-0.366,0.149-0.323c0.438,0.041,0.541,0.081,0.901,0.123C55.679,54.712,55.926,55.006,55.277,54.958z
		 M50.545,59.778c-0.095-0.001-0.286,0.027-0.347-0.132c0.842-3.036,0.666-8.547,3.487-9.537
		C50.634,52.253,51.36,56.457,50.545,59.778z M50.312,60.474c4.571,0.136,8.213,0.83,12.687,1.091
		c2.115,0.765,4.534,2.455,4.94,4.907c-2.012,0.603-2.222-2.131-3.832-2.697c-3.932-2.413-10.008-1.779-14.154-2.64
		C50.083,60.915,50.182,60.693,50.312,60.474z M69.91,42.366c6.67-1.024,16.3-1.792,23.062-1.847
		c1.791-0.016,1.804,0.211,0.089,0.282c-6.947,0.289-16.008,1.316-23.251,1.912C69.717,42.522,70.003,42.526,69.91,42.366z
		 M114.937,30.952c2.409,2.326,4.17,5.466,3.955,8.892c-2.623,1.134-4.783-0.774-7.521-0.374
		c-8.121,1.364-16.647,0.306-25.153-0.052c-0.252-0.068-0.534-0.358-0.562-0.581c-0.604-2.01-1.175-4.021-1.874-5.969
		c-0.152-0.416,0.288-0.091,0.354-0.344C94.128,31.32,104.896,31.332,114.937,30.952z M84.661,29.581
		c0.181-0.442,0.522-0.492,0.893-0.475c0.369,0.018,18.016-1.515,20.28-0.903C98.621,28.469,91.912,28.934,84.661,29.581z
		 M131.531,71.71c-14.748-1.219-29.366-2.755-43.619-3.109c0.163-0.283,0.042-0.635,0.237-0.916
		c0.258-0.188,0.575-0.246,0.924-0.209c14.472,0.676,29.071,1.289,43.399,2.98C131.575,70.981,133.448,72.948,131.531,71.71z
		 M91.082,56.167c-0.388-0.055-0.396-0.193,0.009-0.188c2.856,0.031,6.701,0.301,9.367,0.594c0.217,0.417,0.68,1.154-0.233,0.695
		c-0.249-0.321-0.563-0.517-0.911-0.586C96.772,56.67,93.684,56.543,91.082,56.167z M93.884,57.813
		c-0.649-0.046-1.041-0.341-0.825-0.338c0.361,0.006,0.795-0.06,1.12-0.018C94.502,57.499,94.532,57.859,93.884,57.813z
		 M91.64,53.031c-1.637,0.859-2.834,3.03-3.506,5.556c-0.848,3.183-0.947,6.845-0.986,8.191c-0.096,0.094-0.161,0.092-0.223-0.004
		c0.286-4.702,0.276-11.293,4.62-13.871C91.671,52.828,91.866,52.9,91.64,53.031z M89.958,55.833
		c-1.324,3.41-1.643,7.406-2.019,11.052c-0.128,0.029-0.158-0.066-0.222-0.099C87.998,63.235,88.598,56.646,89.958,55.833z
		 M113.179,47.792c0.577,0.144,0.577,1.395,1.346,1.154c0.771-0.24,1.974-1.443,1.974-1.443s0.577,0.241,0.961,0.434
		c0.386,0.193,0.53,0.625,0.626,1.443c0.097,0.818-0.336,1.636-0.576,1.491c-0.24-0.144-0.818-0.289-1.156-0.625
		c-0.336-0.336-1.058,0-0.577,0.674s0.733,0.526,0.337,1.011c-0.434,0.529-1.174,1.268-3.465,0.096
		c-2.067-1.058-1.755-3.422-1.538-3.801C111.302,47.888,112.6,47.647,113.179,47.792z M111.237,47.821
		c0.424-2.729,5.762-2.451,6.041-0.348c-0.596-0.375-1.096-1.002-1.143-0.145c-0.646,0.688-0.904,0.938-1.733,1.243
		c-0.273-0.831-1.251-1.229-1.917-1.302C112.065,46.976,111.497,47.476,111.237,47.821z M126.356,51.715
		c-2.331,0.757-5.56,0.165-7.878,0.128c-0.188-0.13-0.186-0.32-0.342-0.48c2.604,0.041,5.493,0.088,8.224,0.131
		C126.358,51.588,126.358,51.651,126.356,51.715z M126.59,52.989c-2.287,0.027-4.826-0.141-7.106-0.463
		C121.459,52.371,126.172,52.494,126.59,52.989z M120.034,53.9c-1.066,1.126-3.466,0.199-5.023,0.269
		c0.459-0.85,1.174-0.091,1.632-0.941c0.321-0.28,0.314,0.851,1.801,0.774c0.579-0.468-0.206-0.988-0.324-1.498
		c-0.897,0.431-1.103-1.36-1.477-1.778C117.889,51.413,118.947,52.956,120.034,53.9z M116.883,52.073
		c0.144,0.145,0.576,0.77,0.77,1.011c0.192,0.241,0,0.337-0.24,0.097c-0.241-0.241-0.727-0.776-0.866-1.011
		C116.401,51.93,116.739,51.93,116.883,52.073z M120.739,53.467c2.254,0.067,4.731-0.02,6.729,0.234
		C125.567,54.168,122.701,53.879,120.739,53.467z M118.27,51.014c0.554-0.879,0.443-1.962,0.142-2.951
		c0.127,0.034,0.191-0.061,0.256-0.123c0.609-6.374,1.379-12.682,2.335-18.923c3.236,0.178,5.998,0.223,9.265,0.593
		c-2.104,6.381-2.509,13.902-2.744,20.663c-0.287,0.123-0.262,0.535-0.58,0.563C123.919,51.231,121.298,50.269,118.27,51.014z
		 M84.958,38.827c-0.128-0.001-0.318-0.005-0.445-0.007c-1.047-1.985-1.045-4.208-1.744-6.094c0.127,0.003,0.222,0.004,0.349,0.006
		C83.912,34.713,84.163,36.877,84.958,38.827z M83.679,39.378c-3.718,0.099-6.093-0.352-9.715-0.251
		c-0.266,0.694-0.94,1.224-0.701,2.148c-0.856-0.045-1.913,0.446-2.77,0.401c2.794-3.957,6.416-7.996,11.353-8.838
		C82.799,34.791,83.361,37.372,83.679,39.378z M83.666,40.172c-3.056,0.396-6.583,0.562-9.593,0.102
		c0.037-0.381,0.448-0.248,0.58-0.563C77.697,40.013,80.687,39.743,83.666,40.172z M95.332,41.501
		c5.913-0.318,11.103-1.22,17.175-1.536c1.488,0.278,3.036,0.747,4.066,1.875c-0.434,1.359-2.06-0.318-2.746,1.004
		c-0.913-0.554-1.537-1.327-2.382-2.102c-3.37,0.264-6.638,0.053-9.948,0.54c-2.034,0.063-4.17,0.505-6.087,1.269
		c1.354,0.688,2.41,2.229,3.023,3.573c-0.657-0.551-1.492,0.039-1.808-0.125c-0.942-0.649-2.126-2.161-3.313-1.418
		c-0.753-0.551-1.751-1.711-2.596-0.518c-0.475-0.166-0.697-0.17-1.144-0.019c-0.405,1.55-1.95-1.143-2.2,0.537
		c0.563,0.517,1.063,1.097,1.02,1.858c-1.102-0.685-2.024-2.573-3.513-2.819c-3.364-0.148-6.708,0.465-9.62,1.816
		c-1.573-0.978-2.562,1.293-3.91,0.159c-1.201-0.304-2.141,0.887-3.318,1.091c0.076,1.049-1.077,1.761-0.838,2.718
		c-0.702,0.211-0.176-0.955,0.022-1.365c0.363-0.946,0.573-2.151,1.408-2.709C77.599,44.236,86.145,42.085,95.332,41.501z
		 M107.421,50.174c0.679,1.217-0.643,0.769-1.156,0.776c-0.744-1.124-2.156-2.193-3.516-2.565c1.852-0.604,3.886-0.764,5.736-1.272
		c0.157,0.128-0.633,0.441-0.766,0.757C109.728,49.489,107.002,48.548,107.421,50.174z M105.218,50.933
		c-1.845,0.098-3.721,0.227-5.464,0.041c0.042-0.666,0.569-1.801,1.491-1.819C104.337,48.874,105,50.612,105.218,50.933z
		 M77.744,53.003c0.124,0.128,0.25,0.227,0.344,0.355c11.039-1.126,22.26-1.773,32.837-1.89c0.563,0.517-0.674,0.497-1.15,0.458
		c-10.575-0.01-21.674,0.586-32.045,1.723c-2.592-2.805-5.959-2.488-9.664-3.087c-0.83-0.026-3.217-0.238-4.088-0.336
		c-1.266-0.06-1.334-0.241-0.039-0.151C68.183,50.343,74.733,50.181,77.744,53.003z M85.849,68.567
		c-12.25-0.527-23.326-0.113-35.688-0.553c-0.674-0.025-0.705-0.146-0.034-0.175c7.55-0.335,16.374-0.499,24.311-0.693
		c3.718-0.1,8.505,0.392,11.778,0.284C86.114,67.841,85.728,68.216,85.849,68.567z M84.569,69.321
		c-5.949,0.135-28.202-0.164-33.56-0.32c-1.31-0.037-1.372-0.328-0.066-0.328c5.4,0.004,27.829,0.063,33.813,0.227
		C86.073,68.936,85.852,69.292,84.569,69.321z M62.836,63.753c-4.378-0.323-8.661-0.551-12.688-0.995
		c0.004-0.254,0.009-0.541,0.014-0.826C54.442,62.382,58.766,62.101,62.836,63.753z M50.847,63.441
		c3.875,0.031,9.027,0.869,13.248,0.999c0.218,0.354,0.567,0.359,0.783,0.713c-4.225,0.026-14.974-1.034-14.974-1.034
		S50.18,63.462,50.847,63.441z M65.657,66.085c-0.098,0.158,0.188,0.162,0.121,0.352c-5.25,0.679-15.989-1.08-15.989-1.08
		l0.104-0.57C49.894,64.786,60.392,65.652,65.657,66.085z M49.821,66.638c2.764-0.124,6.94,0.021,9.66,0.296
		c0.374,0.038,0.398,0.14,0.041,0.147c-2.885,0.062-6.95,0.049-9.89,0.115C49.667,67.069,49.884,66.702,49.821,66.638z
		 M87.445,70.017c0.002-0.317,0.505,0.074,0.505,0.08c0.843,5.65,0.248,13.586,1.411,20.088c0.851,2.396,2.978,5.481,5.674,5.748
		c12.488,1.502,25.978,4.034,38.653,5.762c0.354-0.313,0.006-0.412,0.013-0.795c-0.738-9.412-0.813-18.687-0.696-28.021
		c0.446-0.057,0.516,1.627,0.404,2.516c-0.21,9.237,0.18,17.938,0.8,26.839c-13.341-1.896-27.29-4.278-41.044-6.211
		c-2.988-1.828-4.783-5.118-4.984-8.426C87.858,81.945,87.445,70.024,87.445,70.017z M133.589,72.188
		c-0.248-0.449-0.548-1.533,0.374-1.583c28.189,2.769,53.906,5.338,81.615,8.259c0.602,0.168,1.291,0.751,1.476,1.166
		c-1.601,0.801-3.403,0.358-5.149,0.269C186.155,77.791,159.589,74.794,133.589,72.188z M133.497,70.026
		c0.625-5.421,0.863-10.434,2.307-15.175c0.125,0.002,0.221,0.003,0.349,0.005c-1.095,4.905-1.878,10.133-2.307,15.176
		C133.75,70.032,133.622,70.029,133.497,70.026z M203.924,71.251c0.327-0.631,1.153-0.971,1.848-0.643
		c1.03,1.169,1.086,3.768,0.487,5.106c-0.259,0.313-1.847,0.832-2.317,0.444C202.921,74.427,204.115,73.159,203.924,71.251z
		 M208.266,71.69c0.325-0.631,1.151-0.971,1.846-0.643c0.85,1.072,1.002,3.578,0.488,5.107c-0.26,0.313-1.848,0.832-2.316,0.443
		C207.261,74.867,208.456,73.599,208.266,71.69z M212.372,72.056c0.327-0.63,1.151-0.969,1.848-0.641
		c1.324,1.369,0.995,3.961,0.488,5.104c-0.26,0.313-1.849,0.834-2.317,0.444C211.369,75.233,212.564,73.965,212.372,72.056z
		 M159.234,55.284c-4.469-0.154-19.481-0.887-24.09-1.147c-2.355,0.03-2.159-0.207,0.051-0.152
		c25.337,0.909,61.264,2.483,86.032,7.375c2.909,0.653,9.012,2.11,9.014,2.117c0.302,0.083,0.808,0.109,1.104,0.192
		c-0.286,0.311-1.007,0.596-1.132,0.011C230.094,63.646,183.604,56.968,159.234,55.284z M168.576,29.077
		c-0.358,0.63-0.66,1.546-1.393,1.693c2.07-2.381-1.255-5.006-0.67-7.792c0.096-0.093,0.226-0.219,0.323-0.344
		c0.729-0.02,0.081,0.795,0.108,1.146C167.366,25.342,168.609,27.045,168.576,29.077z M167.096,28.355
		c-1.537,0.77-5.512-0.946-5.529,2.198c-0.327,0.599-0.338,1.234-0.029,1.841c0.125,0.193,0.314,0.196,0.471,0.357
		c2.893-0.017,5.244-0.203,8.014-0.571c1.94-0.222,0.895-2.304,1.293-3.505c-0.467-0.643-1.487-0.277-2.024-0.381
		c-0.207-0.988-0.543-1.851-0.877-2.776c2.387-0.249,6.507,0.23,8.92,0.269c0.051,0.859,0.224,1.941,0.526,2.867
		c0.564,4.329,1.332,7.993,1.838,12.161c0.096,0.065-0.576,0.309-0.799,0.21c0.164-2.252,0.137-4.475-1.395-6.088
		c-2.252-2.164-5.599-1.423-8.093-0.351c-3.334,1.883-6.59,4.913-8.357,8.219c-1.46-0.119-3.249,0.583-4.575,0.149
		c-4.547-5.599-12.045-1.43-17.822-1.65c-2.197,0.377-4.456,0.627-6.745,0.782c0.529-5.327,0.271-12.986,6.97-14.848
		c8.858-1.827,17.653-1.592,27.121-1.854C166.523,26.345,166.763,27.365,167.096,28.355z M177.025,36.993
		c-0.938-0.999-1.787-1.569-3.405-1.547c-5.377,0.582-10.479,5.867-11.83,10.895c-0.604,0.117-1.241,0.203-1.849,0.32
		c2.162-5.967,7.375-12.268,14.271-12.571c1.555,0.152,2.749,0.901,3.616,2.218c0.612,1.439,0.707,3.505,0.271,4.927
		c-0.095-0.001-0.127-0.002-0.222-0.003C177.938,39.549,178.021,38.249,177.025,36.993z M175.193,36.266
		c0.914,0.427,1.664,1.17,2.033,2.096c0.156,1.38,0.834,3.348-0.985,3.986c-0.322,0.281-0.95-0.141-1.244,0.33
		c0.274,0.735,1.302-0.042,0.911,0.681c-1.944,0.445-0.577-1.693-1.104-2.623c-0.174-0.986-1.25-1.29-1.94-1.746
		c-0.285,0.027-0.573,0.118-0.89,0.082c-0.437-0.579-0.584-1.28-1.375-1.515c-0.569-0.104-1.088,0.555-1.255,1.029
		c-0.138,0.665,0.628,0.518,0.649,1.026c-1.432,0.303-2.217,1.924-3.354,2.741c-0.949,0.329-1.576,0.462-2.41,0.247
		C166.605,39.05,170.605,35.239,175.193,36.266z M170.143,38.472c0.031-0.031,0.502-0.127,0.516,0.02
		c0.013,0.147,2.402,4.25,3.386,6.235c-0.127-0.003-0.222-0.003-0.349-0.006C172.553,42.607,171.604,40.242,170.143,38.472z
		 M171.666,42.497c-1.336,0.075-2.95-0.237-4.45,0.151c0.812-1.066,2.099-2.062,3.345-2.55
		C170.832,40.96,171.456,41.637,171.666,42.497z M167.064,42.96c0.188,0.014,3.451-0.1,5.064,0.243
		c-0.191,0.092-0.544,0.309-0.924,0.208c-1.557-0.056-3.176,0.013-4.572-0.073C166.718,43.022,166.878,42.945,167.064,42.96z
		 M181.359,43.923c-0.131,0.251,0.281,0.322,0.119,0.573c-1.98,0.762-4.139,0.506-6.086,1.269c-0.127-0.066-0.151-0.447-0.438-0.452
		c-2.545,0.276-5.133,1.188-7.683,1.815C171.423,45.324,176.521,44.639,181.359,43.923z M177.316,46.494
		c1.853-0.543,4.109-0.665,6.086-1.173c0.125,0.128,0.22,0.225,0.344,0.354c5.021-0.205,10.205-2.6,15.325-1.121
		c0.03,0.096-0.033,0.158-0.099,0.22c-10.58,0.245-21.406,2.072-31.639,4.418C170.105,46.728,173.936,47.552,177.316,46.494z
		 M184.109,44.761c-0.315-0.037-0.312-0.386-0.467-0.579c1.813-0.098,3.799-1.21,5.727-0.608c0.095,0.098,0.156,0.162,0.251,0.258
		C187.969,43.837,185.986,44.631,184.109,44.761z M189.294,42.429c-2.138,0.57-4.368,0.979-6.534,1.389
		c-0.131,0.221,0.497,0.802-0.015,0.92c-0.729-0.107-0.392-1.403-1.373-1.514c-0.445-0.039-1.597,0.578-1.365-0.117
		c0.994-0.524,2.263-0.345,3.347-0.646c1.641-1.245,3.875-0.034,5.395-1.629c1.43-0.009,2.811-1.066,4.098-0.061
		C197.559,43.99,190.191,41.872,189.294,42.429z M181.766,40.595c-0.849-4.683-1.587-10.188-2.628-14.556
		c1.65,0.058,3.367-0.01,4.919,0.205c0.622,4.807,1.377,9.264,1.617,14.095C184.37,40.414,183.066,40.52,181.766,40.595z
		 M144.313,41.306c4.383-0.697,8.854-1.559,11.898,2.311c0.521,1.152,1.236,2.18,1.566,3.36c-0.543,0.276-1.332-0.117-1.849,0.319
		c-2.282-0.227-1.212-3.608-3.821-3.269c-1.445-0.976-4.042,0.602-4.765-1.918c-2.413-0.165-4.719-0.837-6.988,0.016
		c-0.314-0.132-0.6-0.232-0.914-0.364C141.023,41.615,142.648,41.571,144.313,41.306z M169.229,45.889
		c-0.178,0.312-1.818,0.623-3,0.873c0.652,0.963-0.647,0.815-1.032,1.127c-6.783,1.163-13.847,1.939-21.19,2.394
		C152.455,48.226,160.443,47.114,169.229,45.889z M161.518,49.545c-0.135,0.442-0.299,0.725-0.019,1.143
		c0.312,0.354,0.479-0.246,0.578-0.436c0.003-0.127,0.004-0.254,0.005-0.349c3.359-1.566,7.443-3.261,10.568-3.484
		c-3.443,0.897-6.709,2.497-9.692,4.419c0.183,0.448,0.567,0.104,0.824,0.013c0.128-0.061,0.377,0.279,0.214,0.369
		c-0.813,0.452-2.262,0.391-3.189-0.893C160.686,49.976,160.854,49.249,161.518,49.545z M205.874,56.192
		c1.711-0.33,16.788,1.74,17.336,2.341C217.632,57.745,211.8,56.985,205.874,56.192z M231.337,80.607
		c0.699-4.086-0.97-6.938,1.879-10.259c0.685-1.133,1.94-2.192,1.646-3.627c-1.713-2.154-3.877,0.097-5.846,0.129
		c-1.003,1.096-2.498,1.327-3.345,2.584c-1.059,0.649-0.87-1.254-1.928-0.604c1.991-3.334,5.869-3.59,9.092-4.555
		c1.042,0.43,1.888,1.174,2.381,2.103c0.875,2.904-2.582,4.597-3.446,6.933C231.637,75.723,232.48,78.499,231.337,80.607z
		 M225.251,81.782c1.958,0.698,3.697-0.863,4.486-2.438c0.784-1.307,1.139-3.213,1.217-4.682c0.528,1.912,0.047,5.008-0.544,6.279
		c-0.743,0.979-1.729,1.688-3.021,2.237c-1.4,0.232-3.289,1.155-4.217-0.512c-1.012-2.207-1.48-4.596-2.525-6.804
		c0.203-0.792,1.164-1.348,1.649-1.913C222.063,76.618,222.518,80.054,225.251,81.782z M228.636,70.752
		c0.302,0.989-0.128,0.061-0.346-0.259c-0.19,0.027-0.252-0.196-0.476-0.104c-0.83,0.336,0.703,1.727-0.461,1.008
		c0.053,0.701-1.379,0.9-1.613,1.689c-0.979-0.428-0.967,0.843-1.854,0.67c-0.135,0.441-0.646,0.594-1.027,0.65
		c-0.088-0.414,0.14-0.729,0.113-1.143c1.867-1.589,2.982-3.795,5.226-4.934c0.655,0.614,1.024,1.318,1.461,1.96
		C229.245,70.315,228.864,70.343,228.636,70.752z M230.393,74.083c-0.012,2.699-0.692,5.578-3.068,7.16
		c-1.598,0.673-2.879-0.649-3.528-1.771c-0.454-1.373-0.907-2.777-0.851-4.364c1.014,0.205,2.473,0.229,3.091-0.65
		c1.093,1.161,1.222-0.901,2.187,0.384c0.142,1.05,0.922-0.081,1.359,0.371C230.527,75.546,229.907,73.59,230.393,74.083z
		 M230.962,74.22c-0.386-1.688-0.278-4.42-1.971-5.876c0.973,0.745,1.282-0.806,2.063,0.033c0.374,0.45,0.268,1.242,0.542,1.851
		C231.893,71.63,230.925,73.209,230.962,74.22z M232.324,74.463c0.449,2.675,1.439,5.169,3.215,7.483
		c-0.634-0.169-1.407-1.356-1.905-2.095C232.836,78.188,232.025,76.583,232.324,74.463z M231.886,60.037
		c1.242-0.171,2.563,0.676,3.63,1.551c0.448-0.343,0.719,0.71,0.92,0.014c-0.115-0.7-0.683-1.059-1.248-1.386
		c0.852,0.396,2.041,1.43,2.371,2.674C235.503,62.318,233.876,60.767,231.886,60.037z M229.042,59.198
		c-1.007-0.62-2.438-0.451-3.187-1.321c0.266-0.726-0.1-1.812,0.826-2.146c0.852,0.458,1.604,1.042,2.39,1.626
		c2.563,0.549,5.06-0.619,6.834,1.602C233.923,59.816,231.105,59.263,229.042,59.198z M226.693,55.032
		c-1.908,0.255-1.334-2.022-2.237-2.989c3.51-1.055,3.854,3.206,5.769,4.666C228.885,57.068,227.896,55.305,226.693,55.032z
		 M223.164,69.267c-0.762,1.895-2.137,2.475-3.393,3.631c-0.133,0.314,0.244,0.607,0.466,0.674c0.396-0.946,1.196,0.56,1.598-0.644
		c0.317,0.07,0.542-0.117,0.798-0.24c-0.261,0.504-2.122,1.682-2.646,2.721c1.03,2.971,1.681,6.125,3.607,8.729
		c2.376,0.324,4.447-0.119,6.093-1.713c0.26-0.225,0.645-0.747,0.889-0.92c0.332-0.236,0.632-0.08,0.361,0.219
		c-1.437,1.58-3.893,2.666-5.955,3.008c-1.397,0.011-3.527,1.248-4.133-0.508c-0.093-0.256-0.447-0.994-0.188-1.276
		c0.626,0.551,1.337,1.737,2.353,1.753c1.287-1.027-1.541-0.85-0.852-2.301c-0.871-1.221-0.902-3.189-2.354-3.784
		c-0.129,0.094-0.228,0.219-0.355,0.313c0.23,0.96,0.517,1.978,0.773,2.906c0.073,0.274-0.16,0.347-0.328,0.108
		c-1.59-2.228-2.059-5.117-2.457-7.3C218.498,71.991,220.771,70.942,223.164,69.267z M241.336,90.836
		c0.602,0.23,1.559-0.04,1.83,0.729c0.005,1.684-1.475,2.867-1.468,4.422c-0.423,0.598-0.851,1.544-1.738,1.466
		c-2.053,1.237-1.438-1.388-2.574-1.884c0-0.063,0-0.125,0.003-0.222c-0.88-0.489-1.96-0.444-2.843-0.967
		c0.039-0.444,0.584-0.784,0.905-1.002c0.796-0.083,1.251,1.258,2.061,0.256c1.126-0.903,1.821-2.672,3.688-2.102
		C241.424,91.346,241.3,91.059,241.336,90.836z M247.313,88.423c-1.244,0.36-2.551,0.626-3.886,0.732
		c0.999-0.97,3.647,0.278,3.332-1.886C248.171,86.467,246.968,88.229,247.313,88.423z M243.327,87.438
		c0.002-0.125,0.004-0.224,0.005-0.349c1.081-0.047,2.078-0.762,3.091-0.618c0.705-0.369-0.006-1.587,1.066-1.126
		C247.962,87.511,244.675,86.604,243.327,87.438z M254.158,87.223c0.289-0.091,0.324-0.306,0.267-0.625
		c4.113-1.013,8.104-2.314,12.187-3.361c0.156,0.162,0.343,0.387,0.563,0.455c-1.337,0.23-2.237,0.979-3.795,0.985
		c-0.161,0.156-0.547,0.437-0.231,0.664c0.656,0.582-0.479,0.151-0.58,0.562c-0.579,0.373-0.597-0.58-1.133-0.685
		c-1.85,0.384-3.697,0.862-5.396,1.63c0.503,0.356,1.229,0.686,1.795,1.045c-0.581,0.594-1.271,0.09-1.807-0.252
		c-0.124-0.191-0.121-0.414-0.341-0.576c-4.228,1.168-9.034,2.996-13.488,3.323c-0.354,0.025-0.399-0.079-0.066-0.146
		C245.964,89.468,250.46,88.273,254.158,87.223z M253.322,84.041c0.16-0.188,0.353-0.25,0.574-0.214
		c0.604,1.915-2.278,1.521-3.556,1.881c0.165-0.379,1.438-0.581,2.075-0.635c0.477,0.039,0.888,0.046,1.15-0.554
		C253.35,84.391,253.318,84.325,253.322,84.041z M253.341,85.895c0.146-0.17,0.318-0.225,0.519-0.191
		c0.544,1.723-2.053,1.367-3.199,1.691c0.146-0.341,1.294-0.521,1.865-0.57c0.43,0.035,0.801,0.043,1.037-0.498
		C253.364,86.208,253.337,86.15,253.341,85.895z M259.396,84.821c-1.121,0.325-2.295,0.563-3.498,0.659
		c0.9-0.871,3.283,0.252,3-1.696C260.167,83.063,259.085,84.645,259.396,84.821z M255.811,83.936
		c0.002-0.114,0.002-0.199,0.004-0.313c0.974-0.042,1.869-0.685,2.78-0.556c0.636-0.332-0.004-1.431,0.962-1.016
		C259.98,84.002,257.021,83.184,255.811,83.936z M264.805,80.878c0.146-0.17,0.317-0.226,0.519-0.192
		c0.544,1.725-2.052,1.368-3.199,1.692c0.147-0.341,1.294-0.521,1.866-0.569c0.428,0.035,0.799,0.041,1.037-0.498
		C264.828,81.191,264.801,81.134,264.805,80.878z M269.939,78.844c0.158-0.189,0.349-0.255,0.57-0.225
		c0.647,1.9-2.244,1.568-3.514,1.958c0.158-0.384,1.426-0.612,2.063-0.681c0.476,0.029,0.889,0.027,1.139-0.578
		C269.975,79.191,269.941,79.13,269.939,78.844z M267.818,87.13c-1.153,0.554-1.806,1.654-3.018,2.017
		c0.844-1.193,4.178-1.929,2.18-4.088c-0.48-0.01-1.154-0.021-1.094-0.341c0.717-0.196,2.498-1.295,1.711,0.375
		C267.874,85.702,268.084,86.467,267.818,87.13z M260.879,86.716c0.501,0.406,0.704,1.095-0.083,0.685
		c-0.787-0.408-1.971-0.824-1.437-0.42c0.533,0.405,1.063,1.209,0.383,0.873s-1.86-1.004-2.004-1.043
		c-0.344-0.091,2.863-0.855,3.264-0.922c0.396-0.064,1.109,0.486,1.396,0.743c0.282,0.259,0.025,0.507-0.654,0.17
		C261.064,86.466,260.381,86.313,260.879,86.716z M263.557,87.538c0.313,0.194,0.562,0.676,0.457,1.149
		c-1.365,0.074-2.806,0.687-4.132,0.283C260.784,88.161,262.372,88.091,263.557,87.538z M263.878,86.547
		c0.004-0.253-0.454-1.368-0.16-1.265c0.216,0.075,1.694,0.063,2.271,0.071c0.579,0.009,0.715,0.517-0.194,0.898
		S263.873,86.8,263.878,86.547z M267.352,82.257c0.143-0.344,1.283-0.551,1.854-0.612c0.428,0.026,0.801,0.023,1.024-0.521
		c-0.2-0.113-0.229-0.17-0.231-0.428c0.144-0.173,0.313-0.23,0.517-0.203C271.095,82.205,268.493,81.907,267.352,82.257z
		 M239.788,88.302c-2.419,0.375-4.656,1.196-7.138,1.474c0.002-0.094,0.005-0.222,0.006-0.349c2.035-0.125,3.953-0.954,5.861-1.05
		c0.705-0.497-0.166-1.652,1.164-1.347C240.031,86.973,239.7,87.823,239.788,88.302z M231.487,91.027
		c-0.214-0.512,0.386-0.313,0.577-0.467c0.273,0.83-0.094,1.998,0.303,2.99c0.32-0.123,0.516-0.469,0.928-0.336
		c-0.148,1.301-1.47,0.486-2.296,0.535C232.37,93.456,231.28,92.104,231.487,91.027z M233.749,100.561
		c0.183-1.427,0.461-3.041,1.774-3.75c0.287-0.061,0.67-0.213,0.92,0.014c1.221,1.164,2.242,2.831,3.011,4.398
		c-0.729-0.043-2.302,0.948-3.437,0.391C235.943,100.373,234.511,100.604,233.749,100.561z M272.407,92.126
		c-3.287,1.09-6.791,1.67-9.867,3.272c-1.521-0.024-2.843,1.097-4.281,1.646c-5.708,1.528-14.001,3.771-17.077,3.507
		c1.086-0.396,2.125-0.33,3.314-0.74c10.796-1.925,20.933-6.178,31.275-9.569c1.604-0.958,2.621-2.943,3.811-3.939
		C278.869,89.243,275.496,91.604,272.407,92.126z M247.572,94.145c-0.387,0.312,0.859,1.822-0.729,1.703
		c-1.113,0.108-2.262,0.534-3.311,0.518c1.158-0.934,2.643-0.401,3.673-1.307C247.402,94.809,246.717,93.938,247.572,94.145z
		 M247.645,97.574c-1.369,0.23-2.584,0.783-3.925,1.081c-0.28-0.291,0.013-0.699,0.359-0.693c1.231,0.433,1.854-0.637,2.871-0.748
		c0.29-0.249-0.074-1.271,0.718-1.132C247.405,96.618,247.746,97.1,247.645,97.574z M254.112,92.311
		c0.972,2.715-2.317,1.805-3.565,2.452c0.143-1.046,1.76-0.829,2.526-1.009c0.282,0.132,0.384-0.216,0.575-0.308
		C253.37,92.997,253.664,92.462,254.112,92.311z M254.771,94.544c0.975,2.715-2.313,1.806-3.563,2.452
		c0.145-1.046,1.761-0.829,2.525-1.007c0.281,0.131,0.384-0.218,0.576-0.311C254.031,95.229,254.325,94.696,254.771,94.544z
		 M259.816,91.588c0.16-0.188,0.354-0.248,0.574-0.214c0.605,1.916-2.278,1.521-3.555,1.881c0.164-0.378,1.438-0.58,2.074-0.633
		c0.475,0.039,0.888,0.045,1.15-0.554C259.844,91.938,259.813,91.874,259.816,91.588z M260.374,93.559
		c0.146-0.17,0.317-0.224,0.519-0.191c0.543,1.723-2.052,1.367-3.199,1.693c0.147-0.342,1.295-0.523,1.867-0.57
		c0.428,0.033,0.799,0.041,1.035-0.498C260.396,93.873,260.371,93.814,260.374,93.559z M264.869,90.634
		c0.146-0.17,0.318-0.224,0.519-0.19c0.544,1.724-2.052,1.367-3.2,1.69c0.147-0.341,1.295-0.521,1.867-0.569
		c0.428,0.035,0.799,0.041,1.037-0.498C264.895,90.948,264.866,90.891,264.869,90.634z M265.46,91.979
		c0.146-0.17,0.317-0.224,0.519-0.191c0.545,1.725-2.052,1.368-3.197,1.693c0.146-0.343,1.294-0.522,1.865-0.57
		c0.429,0.035,0.801,0.041,1.037-0.499C265.482,92.293,265.459,92.234,265.46,91.979z M266.743,90.048
		c0.967-0.11,1.813-0.815,2.733-0.754c0.607-0.377-0.108-1.426,0.885-1.079c0.563,1.915-2.445,1.311-3.603,2.147
		C266.753,90.248,266.749,90.162,266.743,90.048z M247.273,68.985c-0.883-0.332-0.438-0.484,0.265-0.568
		c1.808,0.156,3.36,0.371,5.007,0.651c2.063,0.224,4.341,0.609,6.627,0.679c2.416-2.186,5.178-4.015,7.403-6.171
		c0.282,0.101,0.405,0.452,0.337,0.8c-2.104,2.412-3.98,4.574-6.173,6.635C256.333,70.526,251.84,69.47,247.273,68.985z
		 M257.182,71.956c-2.339-0.477-6.173-1.111-8.746-1.806c-0.293-0.079-0.379-0.381,0.121-0.366c2.108,0.384,6.521,1.32,8.719,1.758
		C257.891,71.786,257.564,72.034,257.182,71.956z M286.359,66.263c-0.908,1.256-2.34,1.912-3.723,1.795
		c-0.695-0.266-1.813,0.098-1.924-0.951c-0.798-1.729-0.92-3.703-1.206-5.645c0.097-0.062,0.411-0.213,0.478-0.307
		c0.16,1.876,0.121,4.29,1.873,5.968c0.726,0.361,1.701,0.821,2.502,0.39c2.472-1.549,2.807-4.625,2.628-7.391
		c-0.234-1.21-0.275-2.608-1.214-3.449c0.67-0.211,1.848-1.143,2.414-0.847c0.4,0.18,0.248,1.144-0.578,1.099
		c-0.288,0.25-0.361,0.819-0.717,1.132C287.964,60.583,287.509,63.931,286.359,66.263z M280.822,60.373
		c1.384-1.184,2.923-2.112,4.062-3.714c1.129,0.78,1.327,2.371,1.656,3.678c0.336,2.769-0.496,5.201-2.521,6.724
		c-1.277,0.395-2.117-0.668-2.61-1.533C280.672,63.865,280.543,62.021,280.822,60.373z M277.604,60.989
		c2.629-4.207,4.318-4.842,7.156-7.527c1.729-0.925,4.989-1.266,6.682,0.222c0.597,2.456-1.829,3.178-3.157,4.745
		c0.024,0.509-0.236,0.949-0.15,1.491c-1.765-2.792,3.351-2.932,2.821-5.576c-1.313-1.451-3.236-0.243-4.673,0.179
		c-1.179,0.236-1.369,2.233-2.537,1.77c-0.41-0.039-0.772,0.718-1.046-0.017c-1.284,0.805-3.553,3.596-3.362,3.726
		c0.479-0.309,1.146-0.267,1.599-0.673c-0.265,0.599-1.418,1.216-1.84,1.813c0.211,2.798,0.04,5.4,2.17,7.339
		c2.059,0.383,4.195-0.251,5.397-1.946c-0.474,1.834-3.241,3.003-6.111,2.856c-2.745-1.061-2.338-4.738-2.967-7.13
		C277.592,61.847,277.6,61.434,277.604,60.989z M267.628,52.997c6.269,2.265,8.763,9.668,9.947,16.543
		c0.075,0.444-0.015,0.668-0.265-0.031c-0.612-2.342-1.332-5.481-2.303-8.047c-1.178-3.557-4.013-6.771-7.449-8.348L267.628,52.997z
		 M267.393,56.157c-1.716,0.004-3.067-1.64-4.679-2.207c-0.665-0.136-1.088-0.648-1.688-0.88c1.837,0.347,3.541,0.945,5.016,2.145
		c0.27-0.516-0.962-1.659-1.393-1.907c0.484-0.281,0.816,0.11,1.506,0.766C266.718,54.655,267.503,55.175,267.393,56.157z
		 M265.043,52.119c-2.023,1.46-4.352-0.006-6.864,0.24c-0.63-0.264-0.883-0.427-1.126-1.066c0.008-0.476-0.045-1.208,0.497-1.23
		c0.793,0.013,1.511,0.818,2.364,1.055C261.563,51.237,263.857,50.766,265.043,52.119z M261.068,50.436
		c-1.146,0.108-2.25-0.449-2.84-1.189c-1.938,0.033-1.207-1.988-2.016-3.113C259.244,45.325,259.6,48.951,261.068,50.436z
		 M254.88,66.12c0.582-0.752,1.353,0.816,1.595-0.418c0.627,0.422,0.988-0.334,1.622-0.197c0.253-1.964,2.271,1.084,1.83-1.241
		c0.003-0.222,0.039-0.412,0.263-0.568c0.221,0.258-0.088,1.522,0.644,1.503c0.291-0.313,0.338-1.265,0.931-0.557
		c0.156,0.099,0.668-0.085,0.579-0.467c0.099-0.252-0.177-0.861,0.234-0.791c-0.231,0.601,0.495,0.803,0.778,1.063
		c0.348-0.027,0.705-0.435,1.049-0.11c-0.844,1.13-2.699,0.021-3.578,1.308c-0.542,0.088-1.297-0.307-1.596,0.451
		c-1.145,0.077-2.234,0.664-3.344,0.521c-0.597,1.545-1.884-1.302-1.949,0.857c-0.894,0.176-2.076,0.666-2.855-0.141
		c-0.752-0.712-0.1-1.844,0.82-1.703c0.638-0.115,0.632,0.232,1.268,0.117c0.188,0.16-2.738,0.463-1.039,1.476
		c0.734-0.21,1.656-0.26,2.049-0.984c-0.023-0.476,0.078-0.92,0.369-1.264C254.576,65.194,254.47,65.829,254.88,66.12z M251.966,52
		c-5.798-0.855-11.313-1.986-17.401-2.559c-0.095-0.064-0.123-0.129-0.22-0.226c6.501,0.708,13.759,1.712,20.062,2.83
		C254.042,52.896,252.634,51.978,251.966,52z M206.739,45.565c7.774,0.118,36.17,1.493,45.196,2.072l-0.049,0.175
		c-8.921-0.443-37.216-1.695-45.104-1.971C205.146,45.783,205.093,45.541,206.739,45.565z M222,54.3
		c3.087,0.335,3.002,0.536-0.054,0.252c-13.274-1.229-32.706-3.083-46.509-3.768c-0.028-0.096,0.066-0.158,0.101-0.221
		C188.914,51.341,208.914,52.879,222,54.3z M201.282,43.446c1.422,0.405-0.433,1.296,0.639,1.727
		c0.295-0.503,0.318-0.027,0.251,0.226c-0.986,0.08-1.972,0.095-2.527-0.738c0.422-0.413,0.811,0.632,1.677-0.253
		c-0.843-0.903-2.528-0.174-3.603-0.572c-1.974-0.203-5.753-0.547-7.828-0.766c-0.627-0.065-0.615-0.194,0.006-0.184
		C193.189,42.954,198.239,43.318,201.282,43.446z M199.355,42.717c-1.424-0.339-4.235,0.727-4.809-1.22
		c-0.656-0.677-1.277-1.545-2.262-1.529c-1.236-4.148-1.954-8.956-2.166-13.532C193.72,31.67,196.426,37.239,199.355,42.717z
		 M190.006,33.549c0.632,2.168,0.92,4.048,1.393,6.31c-1.646-0.281-3.213,0.33-4.926,0.239c0.313-1.678-1.589-3.995,0.432-5.233
		c0.961-0.43,0.164-4.317,1.838-1.687C189.198,32.424,189.761,33.037,190.006,33.549z M188.909,22.669
		c-5.08-2.049-10.945-0.715-16.435-1.088c-12.119,1.14-23.956,2.571-35.437,5.627c-5.538,2.675-4.745,8.659-5.682,13.63
		c0.303,2.895-1.717,8.039,1.561,9.743c9.155,1.417,18.489-0.435,27.462-1.404c-0.513,0.214-0.49,0.786-0.369,1.138
		c-9.078,1.729-18.162,3.807-27.599,2.068c-5.146-1.957-1.956-6.796-2.563-10.554c0.451-4.407,1.039-9.321,2.852-13.452
		c0.938-1.032,2.127-1.967,3.343-2.55c15.551-3.246,31.602-5.976,47.657-5.084C185.471,21.248,187.696,21.062,188.909,22.669z
		 M95.426,19.684c26.771-3.892,54.467-3.926,80.977-1.343c3.229,0.559,6.594,0.804,9.46,2.216c-14.58-1.79-29.041,0.901-43.85,3.396
		c-7.947,2.445-16.652,0.592-25.044,1.092c-12.926-0.015-25.644,0.798-38.563,2.466c-8.863,2.146-15.863,10.958-19.516,18.902
		c-0.988-1.762-0.432-4.834-0.235-7.212c0.48-2.28,0.805-4.593,2.516-6.345C70.147,23.569,83.193,21.997,95.426,19.684z
		 M61.068,31.236c-1.882,2.51-2.567,5.58-3.127,8.874c-0.099,2.223-0.425,4.789,0.146,6.863c0.309,0.482,0.879,0.586,1.359,0.372
		c3.084-8.177,9.557-15.792,18.022-18.927c18.786-3.067,37.458-2.896,57.302-2.516c-4.612,2.499-3.975,8.257-5.221,12.716
		c-0.25,3.711-0.819,7.546-0.532,11.425c0.568,1.376,1.645,2.498,3.008,2.959c0.474,0.161,0.725,0.394,0.194,0.407
		c-1.408,0.036-3.165-0.126-4.614-0.403c-0.406-0.419-0.689-0.615-0.551-1.279c0.201-0.663,1.024-0.556,1.287-1.123
		c-0.246-8.452,1.021-16.118,3.228-23.133c0.068-0.316-0.308-0.545-0.468-0.483c-15.879-0.095-33.939-0.732-50.207,1.708
		C70.804,30.122,63.444,39.66,59.779,48.366c-1.01-0.428-3.153,0.521-2.966-1.286C56.362,41.547,58.692,32.505,61.068,31.236z
		 M57.327,36.798c-0.375,1.646-1.263,3.568-1.139,5.698c-0.983-0.111-2.13,0.093-3.179,0.171c-0.876,1.13-1.539,2.898-3.038,3.255
		C52.312,42.656,54.646,39.708,57.327,36.798z M51.334,46.197c1.66-0.545,3.545-1.213,4.717-1.067
		c-0.001,0.063-0.001,0.127-0.003,0.223c-1.884,0.573-3.951,0.858-5.649,1.72C48.427,47.264,50.981,46.319,51.334,46.197z
		 M48.372,46.722c0.96,1.477,2.937,1.032,4.551,1.312c1.176,0.018,2.292-0.313,3.193-0.965c0.021,0.603,0.294,1.401,0.795,1.822
		c0.916,0.3,1.942-0.255,2.949,0.3c0.936-0.81,0.939-3.096,2.682-2.814c0.205,1.115-0.827,2.083-1.065,3.063
		c-0.16,0.125-0.323,0.313-0.483,0.437c-2.979-0.397-6.602-0.296-9.58-0.725C50.835,47.651,44.319,49.834,48.372,46.722z
		 M22.559,36.423c-0.216-0.541,0.468-0.544,0.54-0.384c1.338,3.025,2.487,6.897,3.561,9.987c-0.127-0.001-0.254-0.003-0.35-0.005
		C24.896,43.141,24.069,39.274,22.559,36.423z M6.842,47.997c0.29-0.282,0.095-1.136,1.033-1.032
		c13.684,0.218,28.046,1.813,42.49,2.171c0.157,0.161,0.313,0.322,0.47,0.483C36.261,49.419,21.726,48.711,6.842,47.997z
		 M8.052,57.735c-0.604-0.01-0.366-0.927,0.14-0.792c14.464,1.12,41.679,3.396,41.679,3.396l-0.362,0.788
		C49.508,61.127,21.437,58.869,8.052,57.735z M7.155,67.075c0.582-0.594,2.121-1.698,1.676-0.404
		c0.241,0.799,0.536,2.027-0.956,2.145c-0.255-0.004-0.348,0.5-0.546,1.004c-0.799,2.243,1.435,1.971,1.307,4.064
		c0.063,0.578-0.586,0.496-1.195,0.293C6.315,71.993,6.295,69.284,7.155,67.075z M5.517,72.704c0.477-0.668,1.042,0.137,0.914,1.012
		c1.211,1.797,3.219,1.354,5.117,1.795c0.304,0.023,0.573,0.078,0.814,0.156c0.698,1.319,2.393,3.728,0.015,3.474
		c-2.124,0.141-4.466-0.576-6.581-1.404C5.098,76.177,4.385,74.11,5.517,72.704z M11.396,72.7c0.839,0.098,3.089,0.916,3.739,0.926
		c0.649,0.01,0.271,1.087-1.53,0.914C11.803,74.367,10.676,72.616,11.396,72.7z M7.849,82.46c-0.459-1.055-1.486-1.828-1.156-3.246
		c0.761,0.858,1.721,1.615,2.93,1.509c1.58,0.532,3.637,1.01,4.183,2.605c0.303,0.46,1.025,0.398,0.585-0.815
		c-0.193-0.7-0.615-1.057-0.718-3.136c0.767,1.729,1.228,3.048,2.31,4.876C13.438,84.402,9.914,84.398,7.849,82.46z M10.561,71.717
		c-1.11-0.113-0.55-1.374-0.634-2.074c0.192-0.156,0.103-0.443,0.106-0.665c12.341-1.17,26.044-2.125,38.904-1.92
		c-0.009,0.477-0.14,0.393-0.673,0.338c-9.081-0.145-19.203,1.047-28.075,1.762c-1.238,0.201-1.034,0.926-0.018,0.939
		c8.681-0.587,20.191-1.554,28.991-1.321c0.029,0.128-0.067,0.19-0.131,0.253C36.168,69.077,23.258,70.109,10.561,71.717z
		 M48.433,67.661l-0.079,0.504c0,0-22.032,1.092-22.467,1.158c-0.434,0.063-1.294-0.311,0.006-0.361
		C27.192,68.911,48.433,67.661,48.433,67.661z M27.235,87.546c0.225-0.123,0.385-0.248,0.577-0.342
		c6.985,1.593,14.345,3.221,21.976,4.306c0.39,0.057,1.293,0.158,2.309,0.436c0.28,0.32,0.725,0.266,1.006,0.586
		C44.321,91.564,35.715,89.521,27.235,87.546z M45.796,92.636c-0.229,0.41,0.142,1.147,0.678,1.378
		c0.051,0.827,1.06,0.76,0.791,1.707c0.336,0.801,0.839-0.379,0.982,0.608c0.57,0.104,1.074,0.334,1.711,0.249
		c-1.131,0.72-3.206-0.146-3.974-1.778C45.839,93.973,45.171,93.45,45.796,92.636z M45.958,96.419
		c-1.758-1.035-2.108-3.24-2.56-4.741c0.127,0.004,0.254,0.006,0.349,0.006C44.134,93.405,44.783,95.143,45.958,96.419z
		 M50.368,100.713c-2.717,1.102-5.145-0.018-7.181-1.829c-2.151-2.446-3.443-5.104-3.778-7.968c0.569,0.136,1.456,0.277,2.185,0.384
		c0.516,3.533,2.559,6.869,6.161,8.007c1.216,0.27,2.096,0.064,2.961-0.429c1.675-1.498,2.719-3.262,2.629-5.549
		c0.253,0.004,0.539,0.01,0.793,0.014C53.901,96.261,52.999,99.04,50.368,100.713z M55.807,88.318
		c-3.537-5.266-8.949-8.368-14.826-8.336c-6.085,1.109-11.964,3.367-17.168,7.031c-0.095,0.03-0.157-0.065-0.22-0.1
		c5.202-3.602,10.961-6.145,17.043-7.16c7.688-0.582,14.752,5.001,17.401,12.029C57.159,91.04,56.806,89.384,55.807,88.318z
		 M192.046,120.696c-1.45,3.247-4.581,6.438-8.242,6.95c-5.415,0.994-10.038-1.875-13.274-5.929
		c-4.881-6.747-7.017-16.118-3.842-24.071c1.287-2.965,3.629-6.356,6.979-7.319c4.729-1.735,9.809,0.41,13.309,3.864
		C193.563,101.253,195.643,112.179,192.046,120.696z M197.643,98.364c-8.244-12.429-15.162-13.188-18.865-13.896
		c-8.543-0.717-15.998-0.51-21.243,5.728c-3.98,4.604-6.692,9.692-10.806,14.618c-4.345,3.521-9.832,0.933-14.939,0.502
		c-23.249-3.803-46.469-7.603-69.306-11.397c-1.268-0.21-2.853-0.396-4.114-0.985c0.174-0.918,1.145-0.108,1.719-0.194
		c26.447,4.456,52.968,8.372,79.129,12.823c2.376,0.388,3.89,0.063,6.428-0.691c2.605-2.086,3.864-5.338,5.971-7.908
		c4.112-5.047,7.182-11.154,14.588-12.598c4.563-0.844,9.233-0.723,12.729-0.305c5.2,0.621,8.987,2.48,12.459,5.979
		c2.349,2.166,4.235,5.277,6.264,7.66C197.648,97.919,197.646,98.143,197.643,98.364z M200.225,95.771
		c3.366-0.013,7.19,1.129,10.711,1.438c4.601,0.392,8.848,0.967,13.584,0.662c0.254-0.06,2.789,0.298,3.766,0.887
		c0.843,0.839,1.588,1.867,1.094,3.099c-0.7,2.084-2.423,3.688-4.859,3.924c-7.65-0.122-15.381-1.42-23.037-3.227
		C199.665,101.001,196.229,97.388,200.225,95.771z M219.45,108.907c0,0.063,0,0.127-0.003,0.223
		c-4.131,0.156-8.274-0.896-11.885-1.556C207.396,106.962,216.061,108.473,219.45,108.907z M201.864,106.436
		c-0.769-1.633-1.664-3.233-2.304-4.959C200.492,102.28,202.088,104.855,201.864,106.436z M204.962,105.341
		c-0.574,0.214-1.149,0.459-1.604,1.021c-0.143,0.889,0.533,1.479,1.129,1.997c4.582,0.849,11.25,1.418,15.654,2.039
		c0.646,0.091,0.598,0.261-0.053,0.23c-4.885-0.22-11.303-1.18-16.193-2.099c-0.625-0.581-0.483-1.499-1.109-2.082
		C203.304,105.792,204.427,105.016,204.962,105.341z M277.159,102.842c-14.32,5.805-28.953,11.225-44.246,14.283
		c-8.315,1.614-17.192,0.614-24.996-1.893c-2.749-0.934-2.953-3.984-4.481-5.787c0.097,0.002,0.223,0.003,0.317,0.005
		c2.644,3.567,5.841,6.223,10.676,5.666c1.679,0.446,3.285,0.646,4.997,0.771c0.739,0.055,7.133,0.838,8.613,0.674
		c4.259-0.467,8.126-2.42,12.24-3.319c7.262-1.281,14.852-3.193,21.815-5.847c4.907-0.938,9.418-2.992,14.05-4.696
		c2.562-1.23,5.213-2.331,7.713-3.752C282.212,100.667,279.495,101.798,277.159,102.842z M285.345,91.411
		c-0.147-0.574,0.876-1.129,0.023-1.461c-0.681,0.848-1.44,0.739-2.298,0.758c-1.18,0.233-1.59-1.933-2.846-0.84
		c-0.074-1.271,2.648-0.752,1.18-2.269c-0.114-0.828,0.181-1.426,0.729-1.957c1.675,0.472,3.451,0.563,4.996,1.352
		c0.41,0.164,0.704-0.339,1.017,0.016C287.833,88.751,286.663,90.417,285.345,91.411z M291.73,86.991
		c-0.483,0.368-1.481,0.868-1.885,0.967c-0.091-0.319,0.342-1.456-0.546-1.629c-0.45,0.343-0.854-0.142-1.233-0.242
		c0.509-0.055,0.959-0.397,1.498-0.42c0.472,0.451,0.823,1.11,2.145,1.051C292.114,86.466,292.132,86.688,291.73,86.991z
		 M291.066,83.184c0.112-1.078-1.104-0.592-1.704-0.728c0.165-1.375,0.442-3.244,1.631-4.087c0.125-0.089,0.137-0.294-0.001-0.278
		c-0.413,0.045-0.835,0.336-1.221,0.593c-0.947,1.7-1.203,3.728-0.756,5.608c-0.287,0.123-0.699,0.085-1.051,0.08
		c-0.652-0.933,1.096-2.938-0.97-2.875c-1.726,0.606-3.41,0.708-4.927,0.271c0.097-0.095,0.16-0.125,0.226-0.221
		c1.394,0.213,2.509-0.021,3.786-0.414c0.042-0.604-0.748-0.869-0.771-1.475c-0.18-0.732-0.572-1.915-0.082-2.764
		c0.319-0.187,0.953-0.019,0.93-0.558c-1.766-0.821-3.821-0.66-6.055-0.668c3.922-1.334,8.123,0.338,11.49,1.937
		c0.182,0.086,0.184,0.533,0.085,0.627c1.412,1.133,1.898,2.86,3.084,4.086C293.652,82.271,292.463,83.234,291.066,83.184z"/>
	<path d="M127.262,30.832c-1.694-1.361-3.932-0.475-5.805-0.442c-0.579,6.406-1.509,12.934-2.151,19.402
		c2.063,0.001,3.173,0.358,4.986,0.165c0.282,0.227,1.139,0.029,1.428-0.189c0.441-3.677,0.719-7.134,1.313-10.619
		C127.106,36.546,128.077,33.418,127.262,30.832z"/>
	<path d="M179.775,93.41c-2.094-0.065-4.035,0.253-5.612,1.497c-3.953,2.955-4.474,7.711-4.663,11.582
		c0.466,6.582,3.246,13.485,9.579,16.729c2.809,1.158,6.428,1.184,8.719-1.098c4.613-4.469,5.174-11.701,3.238-17.798
		C189.591,99.38,185.229,94.102,179.775,93.41z M174.477,97.2c1.352-1.06,2.924-2.146,4.707-2.338
		c0.565,0.295,1.364,0.021,1.933,0.284c-2.729-0.267-5.704,1.18-7.362,3.629C173.189,98.196,174.495,97.932,174.477,97.2z
		 M174.782,106.202c0.603,0.071,1.264,0.073,1.7,0.526c-0.286,0.121-1.2-0.272-1.713-0.154c-0.293,0.503-0.869,0.843-0.816,1.479
		c0.98,0.271,1.671,0.853,2.488,1.312c-0.986-0.072-2.319-0.423-3.036-1.261C173.382,107.5,174.209,106.354,174.782,106.202z
		 M177.152,114.616c-0.975-0.716-1.243-1.769-1.896-2.667c0.896-0.305,0.848,0.742,1.126,1.16c1.556,2.121,4.419,3.69,6.683,3.22
		C181.34,117.471,178.652,116.036,177.152,114.616z M182.908,120.075c-3.11,0.546-5.159-1.101-6.936-3.192
		c-0.586-1.183-1.522-2.216-1.755-3.554c0.063,0.002,0.126,0.003,0.222,0.004C176.113,117.98,179.999,120.047,182.908,120.075z
		 M180.482,114.796c-0.971-0.435-1.198-1.16-1.112-1.86c0.599,0.231,0.544,1.725,1.567,1.17c0.262-0.313,0.705-0.274,0.933-0.652
		c-0.47-0.452-0.585-1.613-0.097-1.971C183.527,113.078,182.232,114.632,180.482,114.796z M181.918,110.468
		c-0.171,0.822-1.093,0.775-1.641,1.244c-1.561,0.293-2.563-0.549-3.273-1.769c0.035-0.254-0.086-0.541,0.139-0.696
		c0.307,0.672,0.582,1.438,1.336,1.864c1.104,0.525,2.484-0.191,2.656-1.229c0.461-1.072-0.222-2.1-1.103-2.654
		c-0.451-1.5-3.933,1.314-1.453-0.678c0.957-0.303,2.172-0.518,2.917,0.479C182.4,108.029,182.255,109.266,181.918,110.468z
		 M179.436,110.126c0.086,0.674-0.67-0.203-0.754-0.976c-0.084-0.771,0.666-1.059,1.27-1.135c0.676-0.086,0.475,0.394,0.087,0.578
		C179.648,108.782,179.352,109.45,179.436,110.126z M179.145,105.15c-0.924,0.238-0.334,1.171-1.289,1.248
		c0.014-0.889-0.318-1.877-0.974-2.649c0.869-0.779-1.265-0.435-0.332-1.147c1.22-0.774,2.779-1.004,4.236-0.854
		C180.043,102.593,179.23,103.818,179.145,105.15z M184.475,121.497c-2.593,1.196-5.324,0.185-7.238-1.356
		c-1.551-1.375-2.703-3.379-3.653-5.201l0.08-0.08c1.677,2.605,3.401,5.238,6.317,6.392c3.643,0.923,5.302-0.565,7.164-1.901
		C186.716,120.263,185.465,121.005,184.475,121.497z M188.787,115.087c-0.111,1.058-1.07,0.849-0.863-0.11s0.235-1.834,0.137-2.5
		c-0.088-0.578,0.403-1.147,0.68-0.373C189.016,112.877,188.9,114.03,188.787,115.087z M187.85,107.661
		c-0.074,0.602-0.555,0.891,0.079,0.965c1.345-0.614,0.97,1.199,0.369,0.967c-0.604,0.086-1.432-0.698-1.68-1.112
		c0.713-0.752-0.066-1.781-0.272-2.736c-0.31-0.577-1.648-0.219-1.126-1.162c0.339-1.201-0.857-1.889-1.579-2.533
		c-0.694-0.203-0.957-1.699-2.134-1.654c-1.437,0.549-2.298-1.244-3.553-0.151c-0.581,0.563-1.529,0.196-2.079,0.856
		c0.503-1.709,1.79-0.386,2.102-2.063c0.666,0.137,1.623-0.322,1.929,0.315c-0.167,0.539,0.653,0.838,1.038,0.685
		c0.904-0.97,1.644,0.407,2.5,0.517c0.563,0.454,1.248,1.323,1.479,0.69c-0.125-0.099,1.03,1.19,1.558,1.994
		c0.121,0.383-0.731,0.114-0.932,0.651c0.12,0.415,0.336,0.769,0.682,1.06c0.511-0.087,0.76,0.202,1.146-0.235
		C187.457,105.696,189.979,107.568,187.85,107.661z"/>
	<path d="M201.943,101.419c6.572,2.138,13.896,2.89,20.654,3.282c2.418-0.217,5.317-0.836,6.217-3.426
		c-0.563-0.549-1.086,0.396-1.724,0.416c-2.44-0.26-5.397-0.022-7.767-0.791c0.066-0.188,0.101-0.348,0.262-0.473
		c-0.25-0.289-0.531-0.548-0.915-0.459c-0.569-0.01-2.183,1.458-1.625,0.324c-0.938-0.811-2.183-0.545-3.297-0.307
		c-3.165-0.654-6.468-0.676-9.694-1.521c-1.255-1.005-2.539-0.072-3.871-0.283c-0.38-0.039-0.785-0.427-1.141-0.146
		C199.656,99.508,201.23,100.2,201.943,101.419z"/>
	<path d="M204.607,75.442c0.33,0.272,0.713-0.1,0.896-0.319c0.063-1.198,0.619-2.591,0.058-3.667
		c-0.484-0.23-0.756-0.057-0.982,0.385C204.71,73.177,203.895,74.23,204.607,75.442z"/>
	<path d="M226.3,87.737c1.278-0.552,2.622-1.103,3.901-1.652c0.197-0.41-0.276-0.642-0.434-0.801
		c-2.289,0.122-4.473,1.707-6.457,2.627c-0.146,1.174-1.554,1.85-1.856,2.957c-0.199,0.567-0.661,1.577-0.156,1.807
		c0.287-0.121,0.229-0.407,0.233-0.662c0.455-0.598,1.005-1.317,1.855-0.891C224.328,89.866,225.013,88.828,226.3,87.737z"/>
	<path d="M227.829,77.473c-0.806,0.653-1.688,0.321-2.409-0.261c-0.638,0.181-0.326,0.438-0.461,1.008
		c1.018,0.018,0.835,1.38,1.813,1.871c0.512-0.182,1.065,0.875,1.365,0.021c0.674-0.402,0.336-1.171,0.6-1.705
		C228.549,78.119,228.725,77.104,227.829,77.473z"/>
	<path d="M228.489,58.045c0.307,0.608,1.426,0.214,1.924,0.825c1.144-0.014,2.533,0.454,3.31-0.392
		C231.766,57.812,230.52,58.205,228.489,58.045z"/>
	<path d="M237.712,95.001c0.59,0.867,1.017,2.113,2.254,2.103c0.542-0.119,1.277-0.457,1.289-1.125
		c-0.1-1.778,1.789-2.797,0.642-4.435c-1.562,0.293-2.506,1.802-3.821,2.67C237.975,94.466,237.718,94.686,237.712,95.001z
		 M238.538,95.016c0.511-0.246,0.276,0.514,0.791,0.233c0.09,0.226,0.088,0.447,0.339,0.578c0.919,0.108,0.97-0.97,1.264-1.567
		c-0.055-0.51-0.046-1.05-0.324-1.499c0.321-0.344,0.805-0.686,1.151-0.553c-0.18,1.33-1.055,2.492-1.077,3.762
		c-0.387,0.408-0.992,0.589-1.496,0.326C238.97,95.848,238.402,95.458,238.538,95.016z"/>
	<path d="M279.473,73.373c-12.402,5.042-25.812,7.4-38.734,11.165c-0.002,0.127-0.002,0.223-0.006,0.35
		c2.262-0.377,4.373-1.424,6.567-1.61c8.222-1.615,16.435-2.881,24.203-6.028c2.536-1.77,5.813-2.226,8.631-3.515
		C280.428,73.103,279.691,73.504,279.473,73.373z"/>
	<path d="M258.664,51.793c1.018-0.015,1.548,0.502,2.499,0.612c5.567-0.515-1.606-0.756-2.494-0.866
		C258.666,51.636,258.666,51.7,258.664,51.793z"/>
	<path d="M269.465,75.5c2.294-0.438,4.467-1.199,6.668-1.83c0.285,0.036,0.703-0.37,1.057-0.555c1.627-0.388,3.699-0.989,5.26-1.188
		c0.001-0.063,0.002-0.127,0.003-0.223c-4.763-0.012-9.017,1.92-13.422,3.216C268.609,75.359,269.277,75.37,269.465,75.5z"/>
	<path d="M285.466,61.941c1.146-0.078,0.245-1.362,0.511-2.057c-0.148-0.669-1.068-0.748-1.141-0.24
		c-1.05,0.11-2.042,0.539-2.779,0.972c-0.381,0.089-1.441,0.93-0.589,1.134c0.858-0.081,1.655-0.259,2.642-0.307
		C284.617,61.387,285.313,61.652,285.466,61.941z"/>
	<path d="M284.518,63.736c-0.262,0.504-0.254-0.131-0.571-0.009c-0.355,0.343-1.054,0.364-1.015-0.239
		c-0.225,0.219-0.73,0.21-0.707,0.688c1.043,0.239,1.27,1.956,2.388,1.626c0.84-0.938,0.251-1.839,0.616-2.849
		C284.535,62.592,284.997,63.521,284.518,63.736z"/>
	<path d="M288.862,78.001c-0.894,0.146-1.673-0.692-2.361-1.308c-0.864,0.431-0.548,1.375-0.848,2.166
		c1.086-0.301,2.305,0.08,3.549-0.28C289.335,78.295,288.984,78.193,288.862,78.001z"/>
	<path d="M208.948,75.882c0.329,0.273,0.713-0.1,0.893-0.319c0.065-1.199,0.62-2.59,0.06-3.667c-0.484-0.23-0.754-0.057-0.984,0.385
		C209.05,73.616,208.232,74.671,208.948,75.882z"/>
	<path d="M213.057,76.248c0.327,0.271,0.713-0.102,0.895-0.319c0.063-1.199,0.619-2.591,0.059-3.668
		c-0.486-0.229-0.754-0.055-0.984,0.386C213.159,73.983,212.342,75.036,213.057,76.248z"/>
	<path d="M113.611,51.112c0.239,0,0.239-0.434,0-0.674c-0.241-0.24-0.433-0.77-0.288-1.203c0.144-0.434-0.771-0.481-0.915-0.193
		c-0.122,0.244-0.337,0.625,0,1.203S113.37,51.112,113.611,51.112z"/>
</g>
</svg>
