<?xml version="1.0" encoding="utf-8"?>
<!-- Generator: Adobe Illustrator 15.1.0, SVG Export Plug-In . SVG Version: 6.00 Build 0)  -->
<!DOCTYPE svg PUBLIC "-//W3C//DTD SVG 1.1//EN" "http://www.w3.org/Graphics/SVG/1.1/DTD/svg11.dtd">
<svg version="1.1" id="Layer_1" xmlns="http://www.w3.org/2000/svg" xmlns:xlink="http://www.w3.org/1999/xlink" x="0px" y="0px"
	 width="250px" height="100px" viewBox="0 0 250 100" enable-background="new 0 0 250 100" xml:space="preserve">
<g>
	<rect x="37.69" y="2" fill="none" width="174.619" height="18.078"/>
	<path fill="#FFFFFF" stroke="#000000" d="M68.041,2l2.918,7.419L73.897,2h3.094l-6.236,15.75h-3.801l-2.583-6.51l-2.562,6.51
		h-3.801L51.771,2h7.327l2.918,7.434L64.955,2H68.041z"/>
	<path fill="#FFFFFF" stroke="#000000" d="M89.156,15.32v2.43H77.492V4.25H88.85l-0.018,2.43H83.36v2.628h4.086v2.43H83.36v3.583
		H89.156z"/>
	<path fill="#FFFFFF" stroke="#000000" d="M102.26,15.32v2.43H90.596V4.25h5.868v11.07H102.26z"/>
	<path fill="#FFFFFF" stroke="#000000" d="M113.924,7.651c-1.068-0.888-2.376-1.332-3.925-1.332h-0.197v9.378h0.18
		c1.572,0,2.939-0.475,4.104-1.422l1.404,2.069c-1.656,1.2-3.426,1.801-5.31,1.801c-2.076,0-3.853-0.66-5.328-1.98
		c-1.536-1.38-2.304-3.102-2.304-5.166c0-0.996,0.204-1.95,0.612-2.862c0.408-0.912,0.955-1.656,1.638-2.232
		c1.607-1.355,3.396-2.034,5.363-2.034c1.944,0,3.678,0.576,5.203,1.728L113.924,7.651z"/>
	<path fill="#FFFFFF" stroke="#000000" d="M123.464,18.146c-2.053,0-3.805-0.679-5.256-2.034c-1.501-1.393-2.25-3.097-2.25-5.112
		c0-2.004,0.749-3.702,2.25-5.094c1.451-1.355,3.197-2.034,5.237-2.034s3.786,0.678,5.237,2.034c1.5,1.393,2.25,3.09,2.25,5.094
		c0,1.992-0.74,3.681-2.223,5.067C127.228,17.453,125.48,18.146,123.464,18.146z M123.212,15.698c1.547,0,2.801-0.447,3.762-1.341
		c0.959-0.895,1.439-2.013,1.439-3.357c0-1.308-0.462-2.388-1.386-3.24c-0.96-0.875-2.231-1.355-3.815-1.44V15.698z"/>
	<path fill="#FFFFFF" stroke="#000000" d="M149.457,17.75h-5.887v-7.344l-4.23,7.741l-4.248-7.741v7.344h-2.557V4.25h5.652
		l2.971,5.4l2.988-5.4h5.311V17.75z"/>
	<path fill="#FFFFFF" stroke="#000000" d="M163.351,15.32v2.43h-11.664V4.25h11.357l-0.018,2.43h-5.473v2.628h4.088v2.43h-4.088
		v3.583H163.351z"/>
	<path fill="#FFFFFF" stroke="#000000" d="M182.359,6.68h-4.627v11.07h-5.867V6.68h-4.627V4.25h15.121V6.68z"/>
	<path fill="#FFFFFF" stroke="#000000" d="M190.027,18.146c-2.053,0-3.805-0.679-5.256-2.034c-1.5-1.393-2.25-3.097-2.25-5.112
		c0-2.004,0.75-3.702,2.25-5.094c1.451-1.355,3.197-2.034,5.238-2.034c2.039,0,3.785,0.678,5.236,2.034
		c1.5,1.393,2.25,3.09,2.25,5.094c0,1.992-0.74,3.681-2.223,5.067C193.791,17.453,192.042,18.146,190.027,18.146z M189.775,15.698
		c1.547,0,2.801-0.447,3.762-1.341c0.959-0.895,1.439-2.013,1.439-3.357c0-1.308-0.461-2.388-1.387-3.24
		c-0.959-0.875-2.23-1.355-3.814-1.44V15.698z"/>
</g>
</svg>
