<?xml version="1.0" encoding="utf-8"?>
<!-- Generator: Adobe Illustrator 15.1.0, SVG Export Plug-In . SVG Version: 6.00 Build 0)  -->
<!DOCTYPE svg PUBLIC "-//W3C//DTD SVG 1.1//EN" "http://www.w3.org/Graphics/SVG/1.1/DTD/svg11.dtd">
<svg version="1.1" id="Layer_1" xmlns="http://www.w3.org/2000/svg" xmlns:xlink="http://www.w3.org/1999/xlink" x="0px" y="0px"
	 width="250px" height="100px" viewBox="0 0 250 100" enable-background="new 0 0 250 100" xml:space="preserve">
<g>
	<rect y="31.595" fill="none" width="250" height="67.405"/>
	<path fill="#FFFFFF" stroke="#000000" d="M68.943,34.43h-5.397v12.915H56.7V34.43h-5.397v-2.835h17.64V34.43z"/>
	<path fill="#FFFFFF" stroke="#000000" d="M82.772,47.345h-2.538v-6.012h-4.608v6.012h-5.868v-13.5h5.868v5.058h4.608v-5.058h2.538
		V47.345z"/>
	<path fill="#FFFFFF" stroke="#000000" d="M96.686,44.915v2.43H85.022v-13.5H96.38l-0.018,2.43H90.89v2.628h4.086v2.43H90.89v3.582
		H96.686z"/>
	<path fill="#FFFFFF" stroke="#000000" d="M116.927,31.595l-6.237,15.75h-3.801l-6.237-15.75h7.325l2.917,7.419l2.938-7.419H116.927
		z"/>
	<path fill="#FFFFFF" stroke="#000000" d="M123.569,47.345h-5.868v-13.5h5.868V47.345z"/>
	<path fill="#FFFFFF" stroke="#000000" d="M138.562,47.741l-10.17-6.84v6.444h-2.556v-13.5h2.448l7.74,5.166v-5.166h2.537V47.741z"
		/>
	<path fill="#FFFFFF" stroke="#000000" d="M154.367,36.275h-4.627v11.07h-5.867v-11.07h-4.627v-2.43h15.121V36.275z"/>
	<path fill="#FFFFFF" stroke="#000000" d="M170.169,47.345h-6.227l-0.811-2.034h-5.111l-0.793,2.034h-2.627l5.309-13.5h4.914
		L170.169,47.345z M162.25,43.079l-1.674-4.248l-1.674,4.248H162.25z"/>
	<path fill="#FFFFFF" stroke="#000000" d="M182.013,37.247c-1.031-0.888-2.34-1.332-3.924-1.332h-0.197v9.378h0.197
		c1.297,0,2.49-0.348,3.582-1.044v-1.764h-1.818v-2.43h4.248v5.778c-1.572,1.272-3.559,1.908-5.957,1.908
		c-1.908,0-3.66-0.678-5.256-2.034c-0.686-0.576-1.23-1.323-1.639-2.241s-0.611-1.875-0.611-2.871s0.203-1.95,0.611-2.862
		s0.953-1.656,1.639-2.232c1.619-1.355,3.426-2.034,5.418-2.034c1.824,0,3.539,0.576,5.146,1.728L182.013,37.247z"/>
	<path fill="#FFFFFF" stroke="#000000" d="M197.925,44.915v2.43h-11.664v-13.5h11.357l-0.018,2.43h-5.473v2.628h4.088v2.43h-4.088
		v3.582H197.925z"/>
	<path fill="#FFFFFF" stroke="#000000" d="M19.251,72.544h-7.266l-0.945-2.373H5.076l-0.924,2.373H1.086l6.195-15.75h5.733
		L19.251,72.544z M10.011,67.568l-1.953-4.956l-1.953,4.956H10.011z"/>
	<path fill="#FFFFFF" stroke="#000000" d="M33.366,59.045v7.866c0,1.716-0.69,3.163-2.07,4.338c-1.32,1.127-2.85,1.691-4.59,1.691
		c-1.308,0-2.508-0.342-3.6-1.025c-0.792-0.504-1.437-1.216-1.935-2.134s-0.747-1.875-0.747-2.871v-7.866h5.868v11.449
		c0.168,0.023,0.306,0.035,0.414,0.035c1.164,0,2.142-0.354,2.934-1.063c0.792-0.708,1.188-1.565,1.188-2.573v-7.848H33.366z"/>
	<path fill="#FFFFFF" stroke="#000000" d="M49.17,61.475h-4.626v11.069h-5.868V61.475H34.05v-2.43h15.12V61.475z"/>
	<path fill="#FFFFFF" stroke="#000000" d="M56.838,72.941c-2.052,0-3.804-0.678-5.256-2.034c-1.5-1.392-2.25-3.096-2.25-5.112
		c0-2.004,0.75-3.702,2.25-5.094c1.452-1.355,3.198-2.034,5.238-2.034s3.786,0.678,5.238,2.034c1.5,1.393,2.25,3.09,2.25,5.094
		c0,1.992-0.741,3.681-2.223,5.067C60.603,72.248,58.854,72.941,56.838,72.941z M56.586,70.494c1.548,0,2.802-0.447,3.762-1.342
		c0.96-0.894,1.44-2.013,1.44-3.357c0-1.308-0.462-2.388-1.386-3.24c-0.96-0.875-2.232-1.355-3.816-1.44V70.494z"/>
	<path fill="#FFFFFF" stroke="#000000" d="M82.83,72.544h-5.886v-7.344l-4.23,7.74l-4.248-7.74v7.344H65.91v-13.5h5.652l2.97,5.4
		l2.988-5.4h5.31V72.544z"/>
	<path fill="#FFFFFF" stroke="#000000" d="M91.865,72.941c-2.052,0-3.804-0.678-5.256-2.034c-1.5-1.392-2.25-3.096-2.25-5.112
		c0-2.004,0.75-3.702,2.25-5.094c1.452-1.355,3.198-2.034,5.238-2.034s3.786,0.678,5.238,2.034c1.5,1.393,2.25,3.09,2.25,5.094
		c0,1.992-0.741,3.681-2.223,5.067C95.63,72.248,93.881,72.941,91.865,72.941z M91.613,70.494c1.548,0,2.802-0.447,3.762-1.342
		c0.96-0.894,1.44-2.013,1.44-3.357c0-1.308-0.462-2.388-1.386-3.24c-0.96-0.875-2.232-1.355-3.816-1.44V70.494z"/>
	<path fill="#FFFFFF" stroke="#000000" d="M100.883,72.544v-13.5h8.333c0.66,0,1.291,0.177,1.891,0.531
		c0.6,0.354,1.056,0.813,1.368,1.377c0.323,0.6,0.485,1.218,0.485,1.854c0,0.78-0.306,1.542-0.918,2.286
		c0.973,0.804,1.459,1.884,1.459,3.24c0,0.72-0.166,1.404-0.496,2.051c-0.33,0.648-0.824,1.17-1.484,1.566s-1.362,0.594-2.105,0.594
		H100.883z M109.019,64.103c0.396,0,0.726-0.126,0.99-0.378c0.264-0.252,0.396-0.564,0.396-0.936c0-0.348-0.138-0.654-0.414-0.918
		s-0.601-0.396-0.972-0.396h-2.268v2.628H109.019z M109.091,70.115c0.504,0,0.936-0.174,1.295-0.521
		c0.361-0.348,0.541-0.768,0.541-1.26c0-0.516-0.178-0.948-0.531-1.296s-0.789-0.522-1.305-0.522h-2.34v3.6H109.091z"/>
	<path fill="#FFFFFF" stroke="#000000" d="M121.007,72.544h-5.869v-13.5h5.869V72.544z"/>
	<path fill="#FFFFFF" stroke="#000000" d="M134.939,70.115v2.43h-11.664v-13.5h5.867v11.07H134.939z"/>
	<path fill="#FFFFFF" stroke="#000000" d="M147.593,70.115v2.43h-11.665v-13.5h11.358l-0.018,2.43h-5.473v2.628h4.086v2.43h-4.086
		v3.582H147.593z"/>
	<path fill="#FFFFFF" stroke="#000000" d="M173.041,72.544h-6.867v-8.567l-4.936,9.03l-4.955-9.03v8.567H153.3v-15.75h6.594
		l3.465,6.3l3.486-6.3h6.195V72.544z"/>
	<path fill="#FFFFFF" stroke="#000000" d="M188.394,59.045v7.866c0,1.716-0.689,3.163-2.07,4.338c-1.32,1.127-2.85,1.691-4.59,1.691
		c-1.309,0-2.508-0.342-3.6-1.025c-0.793-0.504-1.438-1.216-1.936-2.134s-0.746-1.875-0.746-2.871v-7.866h5.867v11.449
		c0.168,0.023,0.307,0.035,0.414,0.035c1.164,0,2.143-0.354,2.934-1.063c0.793-0.708,1.188-1.565,1.188-2.573v-7.848H188.394z"/>
	<path fill="#FFFFFF" stroke="#000000" d="M191.437,68.837c1.234,1.116,2.525,1.674,3.869,1.674c0.721,0,1.379-0.12,1.98-0.36
		l-4.627-2.844c-1.656-1.02-2.484-2.322-2.484-3.906c0-1.308,0.586-2.421,1.756-3.339s2.631-1.377,4.383-1.377
		c1.572,0,3.102,0.474,4.59,1.422l-1.422,1.962c-0.875-0.636-1.926-0.954-3.15-0.954c-0.564,0-1.098,0.078-1.602,0.234l4.537,2.79
		c1.654,1.02,2.482,2.334,2.482,3.942c0,1.356-0.615,2.502-1.844,3.438c-1.23,0.936-2.752,1.404-4.564,1.404
		c-2.207,0-4.037-0.727-5.488-2.178L191.437,68.837z"/>
	<path fill="#FFFFFF" stroke="#000000" d="M214.837,70.115v2.43h-11.664v-13.5h11.357l-0.018,2.43h-5.473v2.628h4.086v2.43h-4.086
		v3.582H214.837z"/>
	<path fill="#FFFFFF" stroke="#000000" d="M229.218,59.045v7.866c0,1.716-0.689,3.163-2.07,4.338c-1.32,1.127-2.85,1.691-4.59,1.691
		c-1.309,0-2.508-0.342-3.6-1.025c-0.793-0.504-1.438-1.216-1.936-2.134s-0.746-1.875-0.746-2.871v-7.866h5.867v11.449
		c0.168,0.023,0.307,0.035,0.414,0.035c1.164,0,2.143-0.354,2.934-1.063c0.793-0.708,1.188-1.565,1.188-2.573v-7.848H229.218z"/>
	<path fill="#FFFFFF" stroke="#000000" d="M248.443,72.544h-5.887v-7.344l-4.23,7.74l-4.248-7.74v7.344h-2.555v-13.5h5.652
		l2.969,5.4l2.988-5.4h5.311V72.544z"/>
	<path fill="#FFFFFF" stroke="#000000" d="M49.159,98.14c-2.052,0-3.804-0.678-5.256-2.033c-1.5-1.393-2.25-3.096-2.25-5.112
		c0-2.004,0.75-3.702,2.25-5.095c1.452-1.355,3.198-2.033,5.238-2.033s3.786,0.678,5.238,2.033c1.5,1.393,2.25,3.091,2.25,5.095
		c0,1.992-0.741,3.681-2.223,5.067C52.924,97.448,51.175,98.14,49.159,98.14z M48.907,95.693c1.548,0,2.802-0.447,3.762-1.342
		c0.96-0.893,1.44-2.012,1.44-3.356c0-1.308-0.462-2.388-1.386-3.24c-0.96-0.876-2.232-1.355-3.816-1.44V95.693z"/>
	<path fill="#FFFFFF" stroke="#000000" d="M69.517,86.675h-5.472v2.627h4.086v2.43h-4.086v6.013h-5.868v-13.5h11.34V86.675z"/>
	<path fill="#FFFFFF" stroke="#000000" d="M89.956,98.207l-11.865-7.98v7.519h-2.982v-15.75h2.856l9.03,6.026v-6.026h2.961V98.207z"
		/>
	<path fill="#FFFFFF" stroke="#000000" d="M104.052,95.314v2.431H92.388v-13.5h11.358l-0.018,2.431h-5.472v2.627h4.086v2.43h-4.086
		v3.582H104.052z"/>
	<path fill="#FFFFFF" stroke="#000000" d="M118.002,84.245l2.502,6.372l2.521-6.372h2.646l-5.347,13.5h-3.258l-2.213-5.58
		l-2.197,5.58h-3.258l-5.346-13.5h6.282l2.502,6.372l2.521-6.372H118.002z"/>
	<path fill="#FFFFFF" stroke="#000000" d="M128.601,96.4l1.722-2.309c1.05,0.826,2.254,1.238,3.612,1.238h0.21V81.974h6.847v9.176
		c0,2.604-1.086,4.572-3.256,5.902c-1.232,0.756-2.604,1.133-4.115,1.133C131.576,98.185,129.903,97.591,128.601,96.4z"/>
	<path fill="#FFFFFF" stroke="#000000" d="M155.193,95.314v2.431h-11.664v-13.5h11.357l-0.018,2.431h-5.473v2.627h4.088v2.43h-4.088
		v3.582H155.193z"/>
	<path fill="#FFFFFF" stroke="#000000" d="M163.544,84.245c1.68,0,3.074,0.479,4.186,1.44c1.109,0.96,1.664,2.148,1.664,3.563
		c0,1.849-0.918,3.282-2.754,4.302l2.322,3.187l-2.16,1.403l-2.789-3.888c-0.35,0.013-0.854,0.019-1.514,0.019v3.474h-5.867v-13.5
		H163.544z M163.527,91.841c0.984,0,1.785-0.244,2.402-0.729c0.619-0.486,0.928-1.101,0.928-1.845c0-0.756-0.307-1.377-0.918-1.863
		c-0.613-0.486-1.41-0.729-2.395-0.729H162.5v5.166H163.527z"/>
	<path fill="#FFFFFF" stroke="#000000" d="M171.896,94.037c1.236,1.116,2.525,1.674,3.871,1.674c0.719,0,1.379-0.119,1.979-0.359
		l-4.625-2.844c-1.656-1.021-2.484-2.322-2.484-3.906c0-1.309,0.584-2.422,1.756-3.34c1.17-0.918,2.629-1.377,4.383-1.377
		c1.57,0,3.102,0.475,4.59,1.422l-1.422,1.963c-0.877-0.637-1.926-0.955-3.15-0.955c-0.564,0-1.098,0.078-1.602,0.234l4.535,2.791
		c1.656,1.02,2.484,2.334,2.484,3.941c0,1.355-0.615,2.502-1.846,3.438c-1.23,0.937-2.75,1.404-4.563,1.404
		c-2.209,0-4.039-0.727-5.49-2.178L171.896,94.037z"/>
	<path fill="#FFFFFF" stroke="#000000" d="M195.296,95.314v2.431h-11.664v-13.5h11.357l-0.018,2.431H189.5v2.627h4.088v2.43H189.5
		v3.582H195.296z"/>
	<path fill="#FFFFFF" stroke="#000000" d="M209.121,84.245l-3.996,7.435v6.065h-5.814v-6.065l-3.996-7.435h6.623l2.16,4.122
		l2.232-4.122H209.121z"/>
</g>
</svg>
