<?xml version="1.0" encoding="utf-8"?>
<!-- Generator: Adobe Illustrator 15.1.0, SVG Export Plug-In . SVG Version: 6.00 Build 0)  -->
<!DOCTYPE svg PUBLIC "-//W3C//DTD SVG 1.1//EN" "http://www.w3.org/Graphics/SVG/1.1/DTD/svg11.dtd">
<svg version="1.1" id="Layer_1" xmlns="http://www.w3.org/2000/svg" xmlns:xlink="http://www.w3.org/1999/xlink" x="0px" y="0px"
	 width="15px" height="100px" viewBox="0 0 15 100" enable-background="new 0 0 15 100" xml:space="preserve">
<g>
	<g>
		<circle fill="#F8BC00" cx="7.499" cy="1.39" r="0.892"/>
		<path fill="#F8BC00" d="M11.046,8.064c1.597-1.914,0.083-4.341-1.905-3.063c0.105-0.77-0.431-1.917-1.643-1.917
			c-1.209-0.005-1.744,1.15-1.647,1.917C3.872,3.722,2.357,6.15,3.952,8.064c1.378,1.659,3.288,3.685,3.546,7.288
			C7.753,11.749,9.66,9.723,11.046,8.064z M7.5,6.904C8.338,6.92,9.22,7.521,9.087,8.679c-0.156,1.326-1.283,2.117-1.587,4.959
			c-0.308-2.842-1.433-3.633-1.586-4.959C5.775,7.521,6.659,6.92,7.5,6.904z"/>
		<path fill="#F8BC00" d="M7.517,23.363c1.428-8.481,7.837-9.954,6.522-11.271c-1.348-1.343-4.688-0.098-5.87,3.602
			c-0.358,1.114-0.563,2.344-0.669,3.565c-0.108-1.221-0.313-2.452-0.671-3.565c-1.182-3.7-4.521-4.944-5.869-3.602
			c-1.314,1.317,5.092,2.79,6.52,11.271c0.006,0.032,0.014,0.059,0.02,0.09C7.503,23.422,7.515,23.396,7.517,23.363z"/>
		<circle fill="#F8BC00" cx="7.499" cy="23.887" r="0.892"/>
		<path fill="#F8BC00" d="M7.499,24.778c-0.003,0.003-1.159,0.837-1.247,1.734c-0.096,0.959,0.944,1.68,1.247,3.611
			c0.305-1.931,1.343-2.651,1.248-3.611C8.658,25.615,7.501,24.782,7.499,24.778z"/>
		<rect x="7.238" y="28.36" fill="#F8BC00" width="0.522" height="68.933"/>
		<circle fill="#F8BC00" cx="7.499" cy="98.606" r="0.892"/>
		<rect x="7.238" y="29.613" fill="#F8BC00" width="0.522" height="68.932"/>
	</g>
</g>
</svg>
