<?xml version="1.0" encoding="utf-8"?>
<!-- Generator: Adobe Illustrator 15.1.0, SVG Export Plug-In . SVG Version: 6.00 Build 0)  -->
<!DOCTYPE svg PUBLIC "-//W3C//DTD SVG 1.1//EN" "http://www.w3.org/Graphics/SVG/1.1/DTD/svg11.dtd">
<svg version="1.1" id="Layer_1" xmlns="http://www.w3.org/2000/svg" xmlns:xlink="http://www.w3.org/1999/xlink" x="0px" y="0px"
	 width="580px" height="50px" viewBox="0 0 580 50" enable-background="new 0 0 580 50" xml:space="preserve">
<g id="stroke_1_" display="none">
	<path display="inline" fill="#2A2A2A" d="M271.164,258.992l-0.05-20.359h4.01c6.983,0,8.449-6.345,8.449-11.667
		c0-19.063,16.104-35.168,35.167-35.168h35.548v4c0,10.729,8.737,19.46,19.476,19.46c10.73,0,19.461-8.729,19.461-19.46v-4h93.646
		c19.383,0,35.151,15.776,35.151,35.168v32.026H271.164z"/>
	<path display="inline" fill="#2A2A2A" d="M486.87,195.798c17.2,0,31.151,13.951,31.151,31.168v28.026H275.154l-0.03-12.359
		c7.883,0,12.449-5.891,12.449-15.667c0-16.774,13.967-31.168,31.167-31.168h31.548c0,12.968,10.509,23.46,23.476,23.46
		c12.951,0,23.46-10.492,23.46-23.46H486.87 M486.87,187.798h-97.646v8c0,8.524-6.937,15.46-15.461,15.46
		c-8.531,0-15.476-6.936-15.476-15.46v-8H318.74c-10.423,0-20.268,4.142-27.717,11.663c-7.384,7.453-11.452,17.221-11.452,27.505
		c0,7.667-3.118,7.667-4.449,7.667h-8.02l0.07,28.359h258.851v-36.026C526.021,205.368,508.459,187.798,486.87,187.798
		L486.87,187.798z"/>
</g>
<g>
	<path d="M247.672,20.939v9.768h84.646l0.011-4.309c-2.747,0-4.34-2.053-4.34-5.459c0-5.846-4.866-10.862-10.861-10.862h-10.995
		c0,4.521-3.663,8.176-8.182,8.176c-4.517,0-8.177-3.655-8.177-8.176h-31.244C252.535,10.077,247.672,14.939,247.672,20.939z"/>
	<path d="M253.666,31.758c0-4.521,3.671-8.189,8.188-8.189c4.518,0,8.19,3.667,8.19,8.189c0,4.494-3.67,8.163-8.19,8.163
		C257.336,39.921,253.663,36.252,253.666,31.758z"/>
	<path d="M307.153,31.756c0-4.515,3.674-8.189,8.189-8.189s8.19,3.672,8.19,8.189c0,4.493-3.673,8.167-8.19,8.167
		C310.827,39.923,307.151,36.249,307.153,31.756z"/>
</g>
<line fill="none" stroke="#000000" stroke-width="2" stroke-miterlimit="10" x1="359" y1="23" x2="575" y2="23"/>
<line fill="none" stroke="#000000" stroke-width="2" stroke-miterlimit="10" x1="5" y1="23" x2="221" y2="23"/>
</svg>
